SplineFontDB: 3.0
FontName: KAN-KaveriItalic
FullName: KAN Kaveri Italic
FamilyName: KAN Kaveri
Weight: Book
Copyright: Copyright (c) 2009-2015, NLCI (http://www.nlci.in/fonts/)
Version: 1.0 Wed May 17 15:42:18 1995
ItalicAngle: 12
UnderlinePosition: -593.92
UnderlineWidth: 40.96
Ascent: 1638
Descent: 410
InvalidEm: 0
LayerCount: 2
Layer: 0 1 "Back" 1
Layer: 1 1 "Fore" 0
XUID: [1021 297 2115494286 1251845]
FSType: 0
OS2Version: 0
OS2_WeightWidthSlopeOnly: 0
OS2_UseTypoMetrics: 1
CreationTime: 1250825687
ModificationTime: 1523584290
PfmFamily: 81
TTFWeight: 400
TTFWidth: 5
LineGap: 0
VLineGap: 0
Panose: 5 0 0 0 0 0 0 0 0 0
OS2TypoAscent: -147
OS2TypoAOffset: 1
OS2TypoDescent: -401
OS2TypoDOffset: 1
OS2TypoLinegap: 0
OS2WinAscent: -483
OS2WinAOffset: 1
OS2WinDescent: -211
OS2WinDOffset: 1
HheadAscent: -483
HheadAOffset: 1
HheadDescent: 211
HheadDOffset: 1
OS2SubXSize: 1434
OS2SubYSize: 1331
OS2SubXOff: 0
OS2SubYOff: 293
OS2SupXSize: 1434
OS2SupYSize: 1331
OS2SupXOff: 0
OS2SupYOff: 928
OS2StrikeYSize: 102
OS2StrikeYPos: 530
OS2Vendor: 'Alts'
OS2UnicodeRanges: 00000000.00000000.00000000.00000000
Lookup: 262 0 0 "blwm" { "blwm-2sub"  } []
MarkAttachClasses: 1
DEI: 91125
TtTable: prep
NPUSHB
 1
 1
SCANTYPE
PUSHW_1
 511
SCANCTRL
EndTTInstrs
ShortTable: maxp 16
  1
  0
  319
  202
  5
  175
  6
  2
  8
  64
  10
  0
  3
  557
  4
  2
EndShort
LangName: 1033 "" "" "Italic" "NLCI:KAN Kaveri Italic" "" "1.0 Wed May 17 15:42:18 1995"
Encoding: Original
Compacted: 1
UnicodeInterp: none
NameList: Adobe Glyph List
DisplaySize: -48
AntiAlias: 1
FitToEm: 1
WinInfo: 0 37 14
BeginPrivate: 0
EndPrivate
AnchorClass2: "Sub" "blwm-2sub" "Nukta"""  "s"""  "V""" 
BeginChars: 572 313

StartChar: .notdef
Encoding: 0 -1 0
Width: 1024
Flags: W
LayerCount: 2
Fore
SplineSet
63 0 m 1,0,-1
 63 1237 l 1,1,-1
 961 1237 l 1,2,-1
 961 0 l 1,3,-1
 63 0 l 1,0,-1
897 63 m 1,4,-1
 897 1174 l 1,5,-1
 127 1174 l 1,6,-1
 127 63 l 1,7,-1
 897 63 l 1,4,-1
EndSplineSet
EndChar

StartChar: exclam
Encoding: 4 33 4
Width: 708
VWidth: 1024
Flags: W
LayerCount: 2
Fore
SplineSet
623 1325 m 0,0,1
 564 1094 564 1094 513 896 c 0,2,3
 491 812 491 812 470 728 c 0,4,5
 448 644 448 644 430 569 c 0,6,7
 412 495 412 495 397 439 c 0,8,9
 383 382 383 382 376 354 c 0,10,-1
 244 354 l 0,11,-1
 350 1261 l 0,12,13
 355 1301 355 1301 366 1332 c 0,14,15
 377 1364 377 1364 396 1386 c 0,16,17
 415 1409 415 1409 445 1421 c 0,18,19
 475 1433 475 1433 518 1433 c 0,20,21
 623 1433 623 1433 623 1325 c 0,0,1
411 102 m 0,22,23
 411 52 411 52 373 17 c 0,24,25
 336 -18 336 -18 272 -18 c 0,26,27
 249 -18 249 -18 226 -11 c 0,28,29
 202 -3 202 -3 182 12 c 0,30,31
 163 27 163 27 151 50 c 0,32,33
 139 73 139 73 138 102 c 0,34,35
 138 130 138 130 148 153 c 0,36,37
 158 176 158 176 177 193 c 0,38,39
 195 210 195 210 220 219 c 0,40,41
 245 228 245 228 272 228 c 0,42,43
 300 228 300 228 325 219 c 0,44,45
 350 210 350 210 369 194 c 0,46,47
 388 178 388 178 399 154 c 0,48,49
 411 131 411 131 411 102 c 0,22,23
EndSplineSet
EndChar

StartChar: quotedbl
Encoding: 5 34 5
Width: 694
VWidth: 1024
Flags: W
LayerCount: 2
Fore
SplineSet
788 1417 m 0,0,1
 788 1406 788 1406 777 1367 c 0,2,3
 765 1328 765 1328 747 1272 c 0,4,5
 729 1217 729 1217 708 1156 c 0,6,7
 687 1094 687 1094 667 1038 c 0,8,9
 647 983 647 983 632 941 c 0,10,11
 617 899 617 899 612 885 c 0,12,-1
 545 885 l 0,13,-1
 570 1353 l 0,14,15
 572 1385 572 1385 580 1411 c 0,16,17
 588 1437 588 1437 603 1456 c 0,18,19
 618 1475 618 1475 641 1486 c 0,20,21
 665 1497 665 1497 700 1497 c 0,22,23
 738 1497 738 1497 763 1477 c 0,24,25
 788 1456 788 1456 788 1417 c 0,0,1
451 1417 m 0,26,27
 451 1406 451 1406 439 1367 c 0,28,29
 428 1328 428 1328 410 1272 c 0,30,31
 392 1217 392 1217 371 1156 c 0,32,33
 350 1094 350 1094 331 1038 c 0,34,35
 312 983 312 983 297 941 c 0,36,37
 282 899 282 899 276 885 c 0,38,-1
 210 885 l 0,39,-1
 237 1353 l 0,40,41
 239 1385 239 1385 246 1411 c 0,42,43
 253 1437 253 1437 267 1456 c 0,44,45
 281 1475 281 1475 305 1486 c 0,46,47
 329 1497 329 1497 365 1497 c 0,48,49
 401 1497 401 1497 425 1477 c 0,50,51
 451 1456 451 1456 451 1417 c 0,26,27
EndSplineSet
EndChar

StartChar: numbersign
Encoding: 6 35 6
Width: 1558
VWidth: 1024
Flags: W
LayerCount: 2
Fore
SplineSet
1130 883 m 0,0,-1
 1030 583 l 0,1,-1
 1367 583 l 0,2,-1
 1367 478 l 0,3,-1
 994 478 l 0,4,-1
 816 -48 l 0,5,-1
 711 -14 l 0,6,-1
 877 478 l 0,7,-1
 572 478 l 0,8,-1
 394 -48 l 0,9,-1
 290 -12 l 0,10,-1
 457 478 l 0,11,-1
 160 478 l 0,12,-1
 160 583 l 0,13,-1
 490 583 l 0,14,-1
 594 883 l 0,15,-1
 256 883 l 0,16,-1
 256 990 l 0,17,-1
 629 990 l 0,18,-1
 797 1485 l 0,19,-1
 904 1451 l 0,20,-1
 744 990 l 0,21,-1
 1051 990 l 0,22,-1
 1217 1485 l 0,23,-1
 1325 1451 l 0,24,-1
 1166 990 l 0,25,-1
 1459 990 l 0,26,-1
 1459 883 l 0,27,-1
 1130 883 l 0,0,-1
709 883 m 0,28,-1
 608 583 l 0,29,-1
 912 583 l 0,30,-1
 1013 883 l 0,31,-1
 709 883 l 0,28,-1
EndSplineSet
EndChar

StartChar: dollar
Encoding: 7 36 7
Width: 1165
VWidth: 1024
Flags: W
LayerCount: 2
Fore
SplineSet
1025 1034 m 0,0,-1
 902 1034 l 0,1,-1
 912 1239 l 0,2,3
 912 1246 912 1246 904 1257 c 0,4,5
 896 1268 896 1268 889 1271 c 0,6,7
 887 1272 887 1272 876 1277 c 0,8,9
 865 1282 865 1282 849 1288 c 0,10,11
 833 1294 833 1294 810 1299 c 0,12,13
 788 1305 788 1305 763 1307 c 0,14,-1
 665 786 l 0,15,16
 735 763 735 763 796 731 c 0,17,18
 857 698 857 698 903 655 c 0,19,20
 949 612 949 612 974 558 c 0,21,22
 1000 503 1000 503 1000 436 c 0,23,24
 1000 355 1000 355 974 292 c 0,25,26
 948 229 948 229 906 182 c 0,27,28
 864 134 864 134 810 101 c 0,29,30
 757 68 757 68 702 47 c 0,31,32
 648 25 648 25 599 15 c 0,33,34
 549 4 549 4 514 2 c 0,35,-1
 474 -214 l 0,36,-1
 350 -214 l 0,37,-1
 390 0 l 0,38,39
 335 3 335 3 287 10 c 0,40,41
 239 17 239 17 196 29 c 0,42,43
 153 40 153 40 112 56 c 0,44,45
 71 72 71 72 30 92 c 0,46,-1
 96 422 l 0,47,-1
 237 422 l 0,48,-1
 218 180 l 0,49,50
 218 172 218 172 223 168 c 0,51,52
 228 164 228 164 232 162 c 0,53,54
 236 160 236 160 253 152 c 0,55,56
 270 144 270 144 295 135 c 0,57,58
 320 126 320 126 350 118 c 0,59,60
 380 110 380 110 413 106 c 0,61,-1
 516 642 l 0,62,63
 449 670 449 670 394 705 c 0,64,65
 338 740 338 740 297 782 c 0,66,67
 256 824 256 824 233 876 c 0,68,69
 210 927 210 927 210 988 c 0,70,71
 210 1077 210 1077 247 1150 c 0,72,73
 284 1223 284 1223 347 1275 c 0,74,75
 409 1328 409 1328 492 1360 c 0,76,77
 574 1392 574 1392 663 1401 c 0,78,-1
 692 1559 l 0,79,-1
 812 1559 l 0,80,-1
 786 1407 l 0,81,82
 837 1405 837 1405 887 1397 c 0,83,84
 936 1389 936 1389 977 1379 c 0,85,86
 1018 1369 1018 1369 1050 1360 c 0,87,88
 1081 1351 1081 1351 1093 1347 c 0,89,-1
 1025 1034 l 0,0,-1
642 1298 m 0,90,91
 592 1283 592 1283 551 1259 c 0,92,93
 510 1235 510 1235 481 1203 c 0,94,95
 452 1171 452 1171 436 1130 c 0,96,97
 420 1090 420 1090 420 1044 c 0,98,99
 420 973 420 973 455 925 c 0,100,101
 490 876 490 876 554 843 c 0,102,-1
 642 1298 l 0,90,91
780 380 m 0,103,104
 780 448 780 448 744 500 c 0,105,106
 708 553 708 553 631 589 c 0,107,-1
 539 116 l 0,108,109
 657 145 657 145 718 213 c 0,110,111
 780 282 780 282 780 380 c 0,103,104
EndSplineSet
EndChar

StartChar: percent
Encoding: 8 37 8
Width: 1802
VWidth: 1024
Flags: W
LayerCount: 2
Fore
SplineSet
1721 556 m 0,0,1
 1721 495 1721 495 1710 427 c 0,2,3
 1699 359 1699 359 1675 294 c 0,4,5
 1651 228 1651 228 1617 169 c 0,6,7
 1582 110 1582 110 1535 65 c 0,8,9
 1488 20 1488 20 1428 -7 c 0,10,11
 1368 -34 1368 -34 1296 -34 c 0,12,13
 1229 -34 1229 -34 1183 -11 c 0,14,15
 1136 12 1136 12 1106 52 c 0,16,17
 1076 92 1076 92 1062 146 c 0,18,19
 1048 200 1048 200 1049 260 c 0,20,21
 1049 321 1049 321 1060 389 c 0,22,23
 1071 457 1071 457 1095 522 c 0,24,25
 1119 587 1119 587 1153 646 c 0,26,27
 1188 705 1188 705 1235 749 c 0,28,29
 1283 794 1283 794 1342 820 c 0,30,31
 1401 847 1401 847 1475 847 c 0,32,33
 1542 847 1542 847 1588 824 c 0,34,35
 1635 801 1635 801 1665 761 c 0,36,37
 1695 722 1695 722 1708 669 c 0,38,39
 1721 616 1721 616 1721 556 c 0,0,1
411 0 m 0,40,-1
 279 0 l 0,41,-1
 1453 1407 l 0,42,-1
 1583 1407 l 0,43,-1
 411 0 l 0,40,-1
816 1149 m 0,44,45
 816 1088 816 1088 805 1020 c 0,46,47
 794 953 794 953 770 888 c 0,48,49
 746 822 746 822 712 763 c 0,50,51
 677 704 677 704 629 658 c 0,52,53
 581 613 581 613 522 587 c 0,54,55
 463 560 463 560 390 560 c 0,56,57
 323 560 323 560 276 583 c 0,58,59
 228 606 228 606 198 646 c 0,60,61
 168 686 168 686 154 740 c 0,62,63
 140 794 140 794 140 854 c 0,64,65
 140 915 140 915 152 983 c 0,66,67
 164 1050 164 1050 187 1115 c 0,68,69
 210 1180 210 1180 245 1239 c 0,70,71
 280 1298 280 1298 328 1343 c 0,72,73
 376 1388 376 1388 436 1414 c 0,74,75
 496 1441 496 1441 568 1441 c 0,76,77
 635 1441 635 1441 682 1418 c 0,78,79
 729 1395 729 1395 759 1355 c 0,80,81
 789 1316 789 1316 802 1263 c 0,82,83
 816 1209 816 1209 816 1149 c 0,44,45
1569 596 m 0,84,85
 1569 624 1569 624 1565 654 c 0,86,87
 1561 684 1561 684 1549 709 c 0,88,89
 1537 734 1537 734 1515 751 c 0,90,91
 1493 768 1493 768 1457 768 c 0,92,93
 1410 768 1410 768 1373 738 c 0,94,95
 1336 708 1336 708 1307 659 c 0,96,97
 1278 610 1278 610 1257 550 c 0,98,99
 1237 490 1237 490 1224 429 c 0,100,101
 1211 369 1211 369 1205 315 c 0,102,103
 1199 261 1199 261 1199 226 c 0,104,105
 1199 197 1199 197 1203 166 c 0,106,107
 1207 134 1207 134 1220 107 c 0,108,109
 1232 80 1232 80 1254 62 c 0,110,111
 1277 44 1277 44 1313 44 c 0,112,113
 1359 44 1359 44 1396 75 c 0,114,115
 1433 106 1433 106 1462 156 c 0,116,117
 1490 206 1490 206 1510 268 c 0,118,119
 1530 330 1530 330 1544 391 c 0,120,121
 1557 452 1557 452 1563 507 c 0,122,123
 1569 561 1569 561 1569 596 c 0,84,85
660 1189 m 0,124,125
 660 1217 660 1217 657 1247 c 0,126,127
 653 1277 653 1277 642 1303 c 0,128,129
 630 1329 630 1329 608 1345 c 0,130,131
 586 1361 586 1361 552 1361 c 0,132,133
 504 1361 504 1361 466 1331 c 0,134,135
 428 1301 428 1301 399 1252 c 0,136,137
 370 1203 370 1203 350 1143 c 0,138,139
 330 1083 330 1083 317 1022 c 0,140,141
 304 962 304 962 298 909 c 0,142,143
 292 855 292 855 292 820 c 0,144,145
 292 791 292 791 296 760 c 0,146,147
 301 728 301 728 313 701 c 0,148,149
 325 674 325 674 348 657 c 0,150,151
 371 640 371 640 407 640 c 0,152,153
 454 640 454 640 490 671 c 0,154,155
 527 702 527 702 556 752 c 0,156,157
 584 801 584 801 604 862 c 0,158,159
 624 923 624 923 636 985 c 0,160,161
 649 1046 649 1046 655 1100 c 0,162,163
 660 1154 660 1154 660 1189 c 0,124,125
EndSplineSet
EndChar

StartChar: ampersand
Encoding: 9 38 9
Width: 1476
VWidth: 1024
Flags: W
LayerCount: 2
Fore
SplineSet
1261 646 m 0,0,1
 1217 553 1217 553 1148 455 c 0,2,3
 1080 357 1080 357 1000 270 c 0,4,5
 1036 221 1036 221 1071 188 c 0,6,7
 1106 155 1106 155 1145 134 c 0,8,9
 1184 114 1184 114 1231 104 c 0,10,11
 1278 95 1278 95 1338 94 c 0,12,-1
 1338 2 l 0,13,14
 1287 0 1287 0 1251 -2 c 0,15,16
 1215 -4 1215 -4 1185 -6 c 0,17,18
 1152 -8 1152 -8 1121 -7 c 0,19,20
 1090 -6 1090 -6 1061 0 c 0,21,22
 1035 4 1035 4 1011 14 c 0,23,24
 987 24 987 24 963 40 c 0,25,26
 939 56 939 56 913 81 c 0,27,28
 887 106 887 106 860 140 c 0,29,30
 814 105 814 105 764 76 c 0,31,32
 714 46 714 46 657 24 c 0,33,34
 601 2 601 2 538 -11 c 0,35,36
 475 -24 475 -24 400 -24 c 0,37,38
 321 -24 321 -24 253 0 c 0,39,40
 185 24 185 24 135 69 c 0,41,42
 84 114 84 114 55 178 c 0,43,44
 26 243 26 243 26 325 c 0,45,46
 26 403 26 403 54 467 c 0,47,48
 82 532 82 532 131 587 c 0,49,50
 180 642 180 642 246 687 c 0,51,52
 312 732 312 732 386 770 c 0,53,54
 362 803 362 803 342 836 c 0,55,56
 321 869 321 869 305 902 c 0,57,58
 290 935 290 935 281 970 c 0,59,60
 272 1005 272 1005 272 1042 c 0,61,62
 272 1127 272 1127 308 1199 c 0,63,64
 344 1271 344 1271 407 1323 c 0,65,66
 469 1375 469 1375 554 1405 c 0,67,68
 640 1435 640 1435 740 1435 c 0,69,70
 826 1435 826 1435 887 1411 c 0,71,72
 947 1387 947 1387 986 1348 c 0,73,74
 1025 1309 1025 1309 1043 1259 c 0,75,76
 1061 1209 1061 1209 1061 1157 c 0,77,78
 1061 1081 1061 1081 1030 1021 c 0,79,80
 999 961 999 961 942 911 c 0,81,82
 886 862 886 862 807 823 c 0,83,84
 729 784 729 784 636 753 c 0,85,-1
 931 362 l 0,86,87
 985 422 985 422 1026 492 c 0,88,89
 1067 561 1067 561 1093 614 c 0,90,91
 1094 616 1094 616 1091 622 c 0,92,93
 1088 627 1088 627 1084 632 c 0,94,95
 1080 637 1080 637 1077 641 c 0,96,97
 1073 645 1073 645 1072 644 c 0,98,-1
 965 663 l 0,99,-1
 965 759 l 0,100,-1
 1411 759 l 0,101,-1
 1411 663 l 0,102,-1
 1261 646 l 0,0,1
856 1139 m 0,103,104
 856 1176 856 1176 846 1210 c 0,105,106
 836 1245 836 1245 816 1272 c 0,107,108
 796 1299 796 1299 766 1315 c 0,109,110
 736 1331 736 1331 698 1331 c 0,111,112
 660 1331 660 1331 619 1317 c 0,113,114
 578 1303 578 1303 543 1274 c 0,115,116
 508 1245 508 1245 485 1202 c 0,117,118
 462 1158 462 1158 462 1099 c 0,119,120
 462 1061 462 1061 472 1023 c 0,121,122
 482 986 482 986 499 951 c 0,123,124
 515 916 515 916 536 883 c 0,125,126
 557 851 557 851 579 824 c 0,127,128
 640 849 640 849 691 879 c 0,129,130
 742 909 742 909 779 946 c 0,131,132
 815 984 815 984 836 1031 c 0,133,134
 856 1079 856 1079 856 1139 c 0,103,104
442 688 m 0,135,136
 352 630 352 630 300 556 c 0,137,138
 248 482 248 482 248 386 c 0,139,140
 248 323 248 323 269 271 c 0,141,142
 291 220 291 220 327 184 c 0,143,144
 363 148 363 148 410 129 c 0,145,146
 457 109 457 109 508 109 c 0,147,148
 545 109 545 109 578 115 c 0,149,150
 611 122 611 122 645 136 c 0,151,152
 679 150 679 150 714 173 c 0,153,154
 749 195 749 195 791 224 c 0,155,-1
 442 688 l 0,135,136
EndSplineSet
EndChar

StartChar: quotesingle
Encoding: 10 39 10
Width: 356
VWidth: 1024
Flags: W
LayerCount: 2
Fore
SplineSet
462 1417 m 0,0,1
 462 1406 462 1406 450 1367 c 0,2,3
 438 1328 438 1328 419 1272 c 0,4,5
 401 1217 401 1217 378 1156 c 0,6,7
 356 1094 356 1094 336 1038 c 0,8,9
 316 983 316 983 300 941 c 0,10,11
 284 899 284 899 279 885 c 0,12,-1
 210 885 l 0,13,-1
 237 1353 l 0,14,15
 240 1385 240 1385 247 1411 c 0,16,17
 255 1437 255 1437 270 1456 c 0,18,19
 285 1475 285 1475 310 1486 c 0,20,21
 335 1497 335 1497 371 1497 c 0,22,23
 411 1497 411 1497 436 1477 c 0,24,25
 462 1456 462 1456 462 1417 c 0,0,1
EndSplineSet
EndChar

StartChar: parenleft
Encoding: 11 40 11
Width: 878
VWidth: 1024
Flags: W
LayerCount: 2
Fore
SplineSet
961 1409 m 0,0,1
 874 1398 874 1398 801 1355 c 0,2,3
 729 1312 729 1312 670 1247 c 0,4,5
 611 1182 611 1182 565 1099 c 0,6,7
 518 1017 518 1017 483 926 c 0,8,9
 448 835 448 835 424 741 c 0,10,11
 399 647 399 647 384 558 c 0,12,13
 369 469 369 469 361 390 c 0,14,15
 354 311 354 311 354 252 c 0,16,17
 354 135 354 135 377 55 c 0,18,19
 400 -25 400 -25 441 -79 c 0,20,21
 481 -132 481 -132 536 -161 c 0,22,23
 590 -190 590 -190 652 -204 c 0,24,-1
 633 -300 l 0,25,26
 527 -294 527 -294 438 -248 c 0,27,28
 349 -202 349 -202 285 -125 c 0,29,30
 220 -48 220 -48 184 58 c 0,31,32
 148 164 148 164 148 292 c 0,33,34
 148 417 148 417 171 552 c 0,35,36
 194 687 194 687 239 818 c 0,37,38
 284 949 284 949 352 1068 c 0,39,40
 421 1187 421 1187 513 1280 c 0,41,42
 605 1373 605 1373 722 1433 c 0,43,44
 839 1493 839 1493 979 1505 c 0,45,-1
 961 1409 l 0,0,1
EndSplineSet
EndChar

StartChar: parenright
Encoding: 12 41 12
Width: 876
VWidth: 1024
Flags: W
LayerCount: 2
Fore
SplineSet
728 931 m 0,0,1
 728 757 728 757 699 602 c 0,2,3
 670 447 670 447 617 315 c 0,4,5
 564 183 564 183 489 75 c 0,6,7
 414 -33 414 -33 322 -112 c 0,8,9
 230 -191 230 -191 123 -239 c 0,10,11
 16 -288 16 -288 -100 -302 c 0,12,-1
 -82 -202 l 0,13,14
 9 -190 9 -190 83 -144 c 0,15,16
 157 -98 157 -98 218 -30 c 0,17,18
 278 39 278 39 323 125 c 0,19,20
 369 212 369 212 402 306 c 0,21,22
 436 400 436 400 459 495 c 0,23,24
 482 591 482 591 496 678 c 0,25,26
 510 766 510 766 516 840 c 0,27,28
 522 914 522 914 522 965 c 0,29,30
 522 997 522 997 518 1038 c 0,31,32
 514 1080 514 1080 503 1126 c 0,33,34
 492 1172 492 1172 472 1219 c 0,35,36
 452 1265 452 1265 419 1304 c 0,37,38
 386 1343 386 1343 338 1371 c 0,39,40
 290 1399 290 1399 226 1409 c 0,41,-1
 246 1505 l 0,42,43
 358 1493 358 1493 437 1453 c 0,44,45
 516 1413 516 1413 570 1359 c 0,46,47
 624 1305 624 1305 655 1241 c 0,48,49
 686 1178 686 1178 702 1118 c 0,50,51
 718 1059 718 1059 723 1009 c 0,52,53
 728 959 728 959 728 931 c 0,0,1
EndSplineSet
EndChar

StartChar: asterisk
Encoding: 13 42 13
Width: 1048
VWidth: 1024
Flags: W
LayerCount: 2
Fore
SplineSet
975 1076 m 0,0,-1
 705 1061 l 0,1,-1
 696 1091 l 0,2,-1
 921 1239 l 0,3,-1
 1069 1195 l 0,4,-1
 975 1076 l 0,0,-1
671 1111 m 0,5,-1
 644 1111 l 0,6,-1
 570 1373 l 0,7,-1
 656 1501 l 0,8,-1
 744 1373 l 0,9,-1
 671 1111 l 0,5,-1
766 761 m 0,10,-1
 669 1013 l 0,11,-1
 696 1032 l 0,12,-1
 908 862 l 0,13,-1
 912 707 l 0,14,-1
 766 761 l 0,10,-1
612 1061 m 0,15,-1
 340 1076 l 0,16,-1
 246 1195 l 0,17,-1
 392 1239 l 0,18,-1
 618 1091 l 0,19,-1
 612 1061 l 0,15,-1
550 761 m 0,20,-1
 402 707 l 0,21,-1
 407 862 l 0,22,-1
 618 1032 l 0,23,-1
 646 1013 l 0,24,-1
 550 761 l 0,20,-1
EndSplineSet
EndChar

StartChar: plus
Encoding: 14 43 14
Width: 2097
VWidth: 1024
Flags: W
LayerCount: 2
Fore
SplineSet
1113 564 m 0,0,-1
 1113 0 l 0,1,-1
 984 0 l 0,2,-1
 984 564 l 0,3,-1
 420 564 l 0,4,-1
 420 694 l 0,5,-1
 984 694 l 0,6,-1
 984 1258 l 0,7,-1
 1113 1258 l 0,8,-1
 1113 694 l 0,9,-1
 1677 694 l 0,10,-1
 1677 564 l 0,11,-1
 1113 564 l 0,0,-1
EndSplineSet
EndChar

StartChar: comma
Encoding: 15 44 15
Width: 585
VWidth: 1024
Flags: W
LayerCount: 2
Fore
SplineSet
334 98 m 0,0,1
 334 9 334 9 296 -70 c 0,2,3
 258 -149 258 -149 195 -210 c 0,4,5
 132 -271 132 -271 51 -310 c 0,6,7
 -30 -349 -30 -349 -116 -356 c 0,8,-1
 -100 -281 l 0,9,10
 -35 -268 -35 -268 13 -243 c 0,11,12
 62 -219 62 -219 97 -184 c 0,13,14
 132 -149 132 -149 155 -99 c 0,15,16
 178 -50 178 -50 188 14 c 0,17,-1
 56 14 l 0,18,19
 45 28 45 28 40 47 c 0,20,21
 35 65 35 65 36 82 c 0,22,23
 36 114 36 114 49 145 c 0,24,25
 62 176 62 176 84 201 c 0,26,27
 106 226 106 226 136 241 c 0,28,29
 165 256 165 256 198 256 c 0,30,31
 235 256 235 256 261 244 c 0,32,33
 287 232 287 232 303 211 c 0,34,35
 319 189 319 189 326 161 c 0,36,37
 334 132 334 132 334 98 c 0,0,1
EndSplineSet
EndChar

StartChar: hyphen
Encoding: 16 45 16
Width: 667
VWidth: 1024
Flags: W
LayerCount: 2
Fore
SplineSet
566 434 m 0,0,-1
 62 434 l 0,1,-1
 90 577 l 0,2,-1
 594 577 l 0,3,-1
 566 434 l 0,0,-1
EndSplineSet
EndChar

StartChar: period
Encoding: 17 46 17
Width: 585
VWidth: 1024
Flags: W
LayerCount: 2
Fore
SplineSet
318 116 m 0,0,1
 318 86 318 86 307 60 c 0,2,3
 296 34 296 34 276 16 c 0,4,5
 257 -3 257 -3 231 -14 c 0,6,7
 205 -25 205 -25 176 -26 c 0,8,9
 146 -26 146 -26 121 -14 c 0,10,11
 96 -3 96 -3 78 16 c 0,12,13
 60 35 60 35 49 60 c 0,14,15
 38 86 38 86 38 116 c 0,16,17
 38 145 38 145 49 170 c 0,18,19
 60 196 60 196 78 215 c 0,20,21
 96 234 96 234 121 245 c 0,22,23
 146 256 146 256 176 256 c 0,24,25
 205 256 205 256 231 245 c 0,26,27
 257 234 257 234 276 215 c 0,28,29
 295 196 295 196 307 170 c 0,30,31
 318 145 318 145 318 116 c 0,0,1
EndSplineSet
EndChar

StartChar: slash
Encoding: 18 47 18
Width: 1028
VWidth: 1024
Flags: W
LayerCount: 2
Fore
SplineSet
134 -195 m 0,0,-1
 0 -195 l 0,1,-1
 893 1407 l 0,2,-1
 1028 1407 l 0,3,-1
 134 -195 l 0,0,-1
EndSplineSet
EndChar

StartChar: zero
Encoding: 19 48 19
Width: 1544
VWidth: 1024
Flags: W
LayerCount: 2
Fore
SplineSet
1389 309 m 0,0,-1
 1554 1094 l 0,1,2
 1562 1137 1562 1137 1540 1174 c 0,3,4
 1509 1205 1509 1205 1470 1204 c 0,5,-1
 1262 1204 l 0,6,7
 1209 1204 1209 1204 1164 1168 c 0,8,9
 1120 1132 1120 1132 1112 1094 c 0,10,-1
 944 301 l 0,11,12
 936 258 936 258 970 228 c 0,13,14
 1004 198 1004 198 1049 199 c 0,15,-1
 1257 199 l 0,16,17
 1300 199 1300 199 1341 234 c 0,18,19
 1383 270 1383 270 1389 309 c 0,0,-1
1595 240 m 0,20,21
 1585 179 1585 179 1538 121 c 0,22,23
 1513 96 1513 96 1485 74 c 0,24,25
 1456 51 1456 51 1425 37 c 0,26,27
 1357 4 1357 4 1286 4 c 0,28,-1
 926 4 l 0,29,30
 815 4 815 4 756 90 c 0,31,32
 711 143 711 143 711 219 c 0,33,34
 711 248 711 248 719 281 c 0,35,-1
 905 1163 l 0,36,37
 923 1259 923 1259 1026 1328 c 0,38,39
 1128 1397 1128 1397 1247 1397 c 0,40,-1
 1565 1397 l 0,41,42
 1684 1397 1684 1397 1745 1315 c 0,43,44
 1788 1258 1788 1258 1788 1182 c 0,45,46
 1788 1151 1788 1151 1780 1112 c 0,47,-1
 1595 240 l 0,20,21
EndSplineSet
EndChar

StartChar: one
Encoding: 20 49 20
Width: 1544
VWidth: 1024
Flags: W
LayerCount: 2
Fore
SplineSet
1544 0 m 0,0,-1
 817 0 l 0,1,-1
 856 195 l 0,2,-1
 1108 195 l 0,3,-1
 1303 1108 l 0,4,5
 1307 1137 1307 1137 1307 1145 c 0,6,7
 1307 1153 1307 1153 1307 1161 c 0,8,9
 1303 1171 1303 1171 1303 1174 c 0,10,11
 1295 1199 1295 1199 1270 1198 c 0,12,-1
 1073 1198 l 0,13,-1
 1114 1393 l 0,14,-1
 1354 1393 l 0,15,16
 1448 1393 1448 1393 1505 1325 c 0,17,18
 1542 1278 1542 1278 1542 1212 c 0,19,20
 1542 1196 1542 1196 1538 1163 c 0,21,-1
 1333 195 l 0,22,-1
 1585 195 l 0,23,-1
 1544 0 l 0,0,-1
EndSplineSet
EndChar

StartChar: two
Encoding: 21 50 21
Width: 1544
VWidth: 1024
Flags: W
LayerCount: 2
Fore
SplineSet
1544 0 m 0,0,-1
 625 0 l 0,1,-1
 729 504 l 0,2,3
 758 619 758 619 858 680 c 0,4,5
 962 754 962 754 1085 754 c 0,6,-1
 1395 754 l 0,7,8
 1428 754 1428 754 1458 791 c 0,9,10
 1489 828 1489 828 1503 881 c 0,11,-1
 1554 1128 l 0,12,13
 1562 1157 1562 1157 1547 1177 c 0,14,15
 1532 1196 1532 1196 1503 1196 c 0,16,-1
 1194 1196 l 0,17,18
 1180 1196 1180 1196 1160 1191 c 0,19,20
 1141 1186 1141 1186 1115 1175 c 0,21,22
 1089 1164 1089 1164 1081 1130 c 0,23,-1
 1044 948 l 0,24,-1
 825 948 l 0,25,-1
 877 1200 l 0,26,27
 900 1288 900 1288 979 1340 c 0,28,29
 1059 1392 1059 1392 1167 1393 c 0,30,-1
 1585 1393 l 0,31,32
 1689 1393 1689 1393 1749 1325 c 0,33,34
 1788 1278 1788 1278 1788 1212 c 0,35,36
 1788 1196 1788 1196 1784 1163 c 0,37,-1
 1722 868 l 0,38,39
 1704 780 1704 780 1659 719 c 0,40,41
 1630 680 1630 680 1604 653 c 0,42,43
 1577 626 1577 626 1538 604 c 0,44,45
 1472 565 1472 565 1399 565 c 0,46,-1
 1065 565 l 0,47,48
 1020 565 1020 565 998 557 c 0,49,50
 976 549 976 549 970 541 c 0,51,52
 963 533 963 533 961 530 c 0,53,-1
 889 205 l 0,54,-1
 1587 205 l 0,55,-1
 1544 0 l 0,0,-1
EndSplineSet
EndChar

StartChar: three
Encoding: 22 51 22
Width: 1544
VWidth: 1024
Flags: W
LayerCount: 2
Fore
SplineSet
1593 223 m 0,0,1
 1575 133 1575 133 1492 68 c 0,2,3
 1409 2 1409 2 1313 2 c 0,4,-1
 895 2 l 0,5,6
 791 2 791 2 719 59 c 0,7,8
 668 102 668 102 668 168 c 0,9,10
 668 186 668 186 670 195 c 0,11,-1
 713 391 l 0,12,-1
 932 391 l 0,13,-1
 909 281 l 0,14,15
 901 248 901 248 925 222 c 0,16,17
 949 196 949 196 987 197 c 0,18,-1
 1253 197 l 0,19,20
 1292 197 1292 197 1333 226 c 0,21,22
 1374 256 1374 256 1382 299 c 0,23,-1
 1434 532 l 0,24,25
 1442 579 1442 579 1416 610 c 0,26,27
 1390 641 1390 641 1348 641 c 0,28,-1
 1262 641 l 0,29,-1
 1300 836 l 0,30,-1
 1372 836 l 0,31,32
 1423 836 1423 836 1463 857 c 0,33,34
 1503 879 1503 879 1511 907 c 0,35,-1
 1550 1104 l 0,36,37
 1552 1114 1552 1114 1552 1130 c 0,38,39
 1552 1155 1552 1155 1538 1175 c 0,40,41
 1524 1194 1524 1194 1487 1194 c 0,42,-1
 1196 1194 l 0,43,44
 1159 1194 1159 1194 1123 1171 c 0,45,46
 1087 1148 1087 1148 1079 1112 c 0,47,-1
 1063 1026 l 0,48,-1
 844 1026 l 0,49,-1
 883 1223 l 0,50,51
 899 1295 899 1295 979 1341 c 0,52,53
 1059 1388 1059 1388 1167 1389 c 0,54,-1
 1602 1389 l 0,55,56
 1696 1389 1696 1389 1753 1321 c 0,57,58
 1790 1274 1790 1274 1790 1208 c 0,59,60
 1790 1192 1790 1192 1786 1159 c 0,61,-1
 1743 948 l 0,62,63
 1733 891 1733 891 1675 836 c 0,64,65
 1618 781 1618 781 1530 743 c 0,66,67
 1604 718 1604 718 1634 659 c 0,68,69
 1648 630 1648 630 1653 614 c 0,70,71
 1657 598 1657 598 1657 573 c 0,72,73
 1657 559 1657 559 1653 526 c 0,74,-1
 1593 223 l 0,0,1
EndSplineSet
EndChar

StartChar: four
Encoding: 23 52 23
Width: 1544
VWidth: 1024
Flags: W
LayerCount: 2
Fore
SplineSet
1616 334 m 0,0,-1
 1421 334 l 0,1,-1
 1350 0 l 0,2,-1
 1126 0 l 0,3,-1
 1198 334 l 0,4,-1
 823 334 l 0,5,6
 737 334 737 334 685 384 c 0,7,8
 633 434 633 434 647 502 c 0,9,10
 661 555 661 555 677 592 c 0,11,12
 692 629 692 629 731 694 c 0,13,-1
 1114 1393 l 0,14,-1
 1337 1393 l 0,15,-1
 934 682 l 0,16,-1
 881 553 l 0,17,18
 881 543 881 543 883 538 c 0,19,20
 885 533 885 533 889 530 c 0,21,-1
 1237 530 l 0,22,-1
 1419 1395 l 0,23,-1
 1642 1395 l 0,24,-1
 1460 530 l 0,25,-1
 1655 530 l 0,26,-1
 1616 334 l 0,0,-1
EndSplineSet
EndChar

StartChar: five
Encoding: 24 53 24
Width: 1544
VWidth: 1024
Flags: W
LayerCount: 2
Fore
SplineSet
1593 223 m 0,0,1
 1575 133 1575 133 1501 68 c 0,2,3
 1427 2 1427 2 1341 2 c 0,4,-1
 766 2 l 0,5,6
 684 2 684 2 644 52 c 0,7,8
 604 102 604 102 604 150 c 0,9,10
 604 160 604 160 608 182 c 0,11,-1
 655 416 l 0,12,-1
 879 416 l 0,13,-1
 848 268 l 0,14,15
 844 237 844 237 860 222 c 0,16,17
 876 207 876 207 888 202 c 0,18,19
 899 197 899 197 915 197 c 0,20,-1
 1305 197 l 0,21,22
 1328 197 1328 197 1356 225 c 0,23,24
 1374 262 1374 262 1382 299 c 0,25,-1
 1450 616 l 0,26,27
 1458 669 1458 669 1368 670 c 0,28,-1
 707 670 l 0,29,-1
 860 1397 l 0,30,-1
 1810 1397 l 0,31,-1
 1767 1202 l 0,32,-1
 1040 1202 l 0,33,-1
 969 868 l 0,34,-1
 1473 868 l 0,35,36
 1582 868 1582 868 1638 801 c 0,37,38
 1681 750 1681 750 1681 684 c 0,39,40
 1681 670 1681 670 1677 637 c 0,41,-1
 1593 223 l 0,0,1
EndSplineSet
EndChar

StartChar: six
Encoding: 25 54 25
Width: 1544
VWidth: 1024
Flags: W
LayerCount: 2
Fore
SplineSet
1389 303 m 0,0,-1
 1448 580 l 0,1,2
 1456 625 1456 625 1425 648 c 0,3,4
 1394 672 1394 672 1348 672 c 0,5,-1
 967 672 l 0,6,-1
 893 326 l 0,7,8
 885 273 885 273 913 240 c 0,9,10
 952 201 952 201 991 201 c 0,11,-1
 1243 201 l 0,12,13
 1290 201 1290 201 1334 229 c 0,14,15
 1379 258 1379 258 1389 303 c 0,0,-1
1599 252 m 0,16,17
 1576 150 1576 150 1491 76 c 0,18,19
 1395 2 1395 2 1294 2 c 0,20,-1
 877 2 l 0,21,22
 766 2 766 2 694 68 c 0,23,24
 641 121 641 121 641 182 c 0,25,26
 641 192 641 192 645 221 c 0,27,-1
 842 1161 l 0,28,29
 867 1261 867 1261 961 1328 c 0,30,31
 1055 1395 1055 1395 1171 1395 c 0,32,-1
 1788 1395 l 0,33,-1
 1745 1200 l 0,34,-1
 1176 1200 l 0,35,36
 1137 1200 1137 1200 1098 1176 c 0,37,38
 1065 1145 1065 1145 1057 1108 c 0,39,-1
 1006 868 l 0,40,-1
 1452 868 l 0,41,42
 1575 868 1575 868 1636 797 c 0,43,44
 1683 736 1683 736 1683 670 c 0,45,46
 1683 654 1683 654 1679 621 c 0,47,-1
 1599 252 l 0,16,17
EndSplineSet
EndChar

StartChar: seven
Encoding: 26 55 26
Width: 1544
VWidth: 1024
Flags: W
LayerCount: 2
Fore
SplineSet
1788 1147 m 0,0,-1
 1059 0 l 0,1,-1
 836 0 l 0,2,-1
 1567 1147 l 0,3,4
 1569 1172 1569 1172 1558 1187 c 0,5,6
 1547 1202 1547 1202 1522 1202 c 0,7,-1
 1063 1202 l 0,8,-1
 1034 1063 l 0,9,-1
 811 1063 l 0,10,-1
 883 1397 l 0,11,-1
 1610 1397 l 0,12,13
 1710 1397 1710 1397 1757 1323 c 0,14,15
 1794 1276 1794 1276 1794 1208 c 0,16,17
 1794 1170 1794 1170 1788 1147 c 0,0,-1
EndSplineSet
EndChar

StartChar: eight
Encoding: 27 56 27
Width: 1544
VWidth: 1024
Flags: W
LayerCount: 2
Fore
SplineSet
1389 301 m 0,0,-1
 1393 326 l 0,1,2
 1395 336 1395 336 1395 358 c 0,3,4
 1395 411 1395 411 1352 444 c 0,5,-1
 1223 573 l 0,6,-1
 997 444 l 0,7,8
 936 393 936 393 928 362 c 0,9,-1
 911 281 l 0,10,11
 903 250 903 250 930 223 c 0,12,13
 957 196 957 196 1001 197 c 0,14,-1
 1255 197 l 0,15,16
 1294 197 1294 197 1335 226 c 0,17,18
 1377 256 1377 256 1389 301 c 0,0,-1
1559 1122 m 0,19,20
 1561 1132 1561 1132 1561 1155 c 0,21,22
 1561 1171 1561 1171 1556 1180 c 0,23,24
 1540 1203 1540 1203 1511 1202 c 0,25,-1
 1186 1202 l 0,26,27
 1170 1202 1170 1202 1153 1198 c 0,28,29
 1137 1194 1137 1194 1126 1192 c 0,30,31
 1101 1178 1101 1178 1098 1151 c 0,32,33
 1094 1124 1094 1124 1094 1110 c 0,34,35
 1094 1085 1094 1085 1106 1067 c 0,36,-1
 1280 891 l 0,37,-1
 1505 1038 l 0,38,39
 1551 1063 1551 1063 1559 1122 c 0,19,20
1585 182 m 0,40,41
 1569 108 1569 108 1489 54 c 0,42,43
 1409 0 1409 0 1313 0 c 0,44,-1
 895 0 l 0,45,46
 791 0 791 0 719 57 c 0,47,48
 668 100 668 100 668 166 c 0,49,50
 668 184 668 184 670 193 c 0,51,-1
 723 444 l 0,52,53
 731 483 731 483 825 555 c 0,54,-1
 1106 741 l 0,55,-1
 932 918 l 0,56,57
 846 1020 846 1020 856 1073 c 0,58,-1
 887 1225 l 0,59,60
 903 1297 903 1297 983 1343 c 0,61,62
 1063 1390 1063 1390 1171 1391 c 0,63,-1
 1606 1391 l 0,64,65
 1708 1391 1708 1391 1759 1343 c 0,66,67
 1804 1306 1804 1306 1804 1255 c 0,68,69
 1804 1237 1804 1237 1802 1229 c 0,70,-1
 1759 1020 l 0,71,72
 1743 952 1743 952 1653 895 c 0,73,-1
 1364 715 l 0,74,-1
 1522 604 l 0,75,76
 1647 485 1647 485 1630 412 c 0,77,-1
 1585 182 l 0,40,41
EndSplineSet
EndChar

StartChar: nine
Encoding: 28 57 28
Width: 1544
VWidth: 1024
Flags: W
LayerCount: 2
Fore
SplineSet
1466 725 m 0,0,-1
 1546 1106 l 0,1,2
 1554 1145 1554 1145 1526 1171 c 0,3,4
 1497 1198 1497 1198 1444 1198 c 0,5,-1
 1176 1198 l 0,6,7
 1133 1198 1133 1198 1090 1174 c 0,8,9
 1053 1145 1053 1145 1044 1106 c 0,10,-1
 985 825 l 0,11,12
 981 780 981 780 1012 758 c 0,13,14
 1043 727 1043 727 1094 727 c 0,15,-1
 1466 725 l 0,0,-1
1602 268 m 0,16,17
 1577 157 1577 157 1473 79 c 0,18,19
 1369 0 1369 0 1239 0 c 0,20,-1
 651 0 l 0,21,-1
 690 195 l 0,22,-1
 1192 195 l 0,23,24
 1260 195 1260 195 1317 227 c 0,25,26
 1374 260 1374 260 1384 305 c 0,27,-1
 1432 530 l 0,28,-1
 985 530 l 0,29,30
 872 530 872 530 801 596 c 0,31,32
 750 653 750 653 750 719 c 0,33,34
 750 742 750 742 752 752 c 0,35,-1
 842 1186 l 0,36,37
 852 1239 852 1239 903 1290 c 0,38,39
 950 1333 950 1333 1026 1364 c 0,40,41
 1100 1389 1100 1389 1180 1389 c 0,42,-1
 1552 1389 l 0,43,44
 1626 1389 1626 1389 1681 1356 c 0,45,46
 1736 1323 1736 1323 1765 1264 c 0,47,48
 1781 1231 1781 1231 1782 1192 c 0,49,50
 1782 1176 1782 1176 1778 1143 c 0,51,-1
 1602 268 l 0,16,17
EndSplineSet
EndChar

StartChar: colon
Encoding: 29 58 29
Width: 585
VWidth: 1024
Flags: W
LayerCount: 2
Fore
SplineSet
472 895 m 0,0,1
 472 866 472 866 461 841 c 0,2,3
 450 815 450 815 430 796 c 0,4,5
 411 777 411 777 385 766 c 0,6,7
 359 755 359 755 330 755 c 0,8,9
 300 755 300 755 274 766 c 0,10,11
 248 777 248 777 230 796 c 0,12,13
 211 815 211 815 200 841 c 0,14,15
 189 867 189 867 188 895 c 0,16,17
 188 924 188 924 200 950 c 0,18,19
 211 976 211 976 230 995 c 0,20,21
 249 1014 249 1014 274 1025 c 0,22,23
 300 1036 300 1036 330 1036 c 0,24,25
 359 1036 359 1036 385 1025 c 0,26,27
 411 1014 411 1014 430 995 c 0,28,29
 449 976 449 976 461 950 c 0,30,31
 472 924 472 924 472 895 c 0,0,1
318 116 m 0,32,33
 318 86 318 86 307 60 c 0,34,35
 296 34 296 34 276 16 c 0,36,37
 257 -3 257 -3 231 -14 c 0,38,39
 205 -25 205 -25 176 -26 c 0,40,41
 146 -26 146 -26 121 -14 c 0,42,43
 96 -3 96 -3 77 16 c 0,44,45
 58 35 58 35 47 60 c 0,46,47
 36 86 36 86 36 116 c 0,48,49
 36 145 36 145 47 170 c 0,50,51
 58 196 58 196 77 215 c 0,52,53
 96 234 96 234 121 245 c 0,54,55
 146 256 146 256 176 256 c 0,56,57
 205 256 205 256 231 245 c 0,58,59
 257 234 257 234 276 215 c 0,60,61
 295 196 295 196 307 170 c 0,62,63
 318 145 318 145 318 116 c 0,32,33
EndSplineSet
EndChar

StartChar: semicolon
Encoding: 30 59 30
Width: 585
VWidth: 1024
Flags: W
LayerCount: 2
Fore
SplineSet
472 895 m 0,0,1
 472 866 472 866 461 841 c 0,2,3
 450 815 450 815 430 796 c 0,4,5
 411 777 411 777 385 766 c 0,6,7
 359 755 359 755 330 755 c 0,8,9
 300 755 300 755 274 766 c 0,10,11
 248 777 248 777 230 796 c 0,12,13
 211 815 211 815 200 841 c 0,14,15
 189 867 189 867 188 895 c 0,16,17
 188 924 188 924 200 950 c 0,18,19
 211 976 211 976 230 995 c 0,20,21
 249 1014 249 1014 274 1025 c 0,22,23
 300 1036 300 1036 330 1036 c 0,24,25
 359 1036 359 1036 385 1025 c 0,26,27
 411 1014 411 1014 430 995 c 0,28,29
 449 976 449 976 461 950 c 0,30,31
 472 924 472 924 472 895 c 0,0,1
334 100 m 0,32,33
 334 11 334 11 296 -69 c 0,34,35
 258 -149 258 -149 195 -210 c 0,36,37
 132 -271 132 -271 51 -310 c 0,38,39
 -30 -349 -30 -349 -116 -356 c 0,40,-1
 -100 -281 l 0,41,42
 -35 -268 -35 -268 13 -244 c 0,43,44
 62 -220 62 -220 97 -185 c 0,45,46
 132 -150 132 -150 155 -100 c 0,47,48
 178 -51 178 -51 188 14 c 0,49,-1
 56 14 l 0,50,51
 45 28 45 28 40 49 c 0,52,53
 35 69 35 69 36 86 c 0,54,55
 36 117 36 117 49 147 c 0,56,57
 62 177 62 177 85 202 c 0,58,59
 108 227 108 227 137 241 c 0,60,61
 166 256 166 256 198 256 c 0,62,63
 234 256 234 256 260 244 c 0,64,65
 286 232 286 232 302 211 c 0,66,67
 318 190 318 190 326 162 c 0,68,69
 334 133 334 133 334 100 c 0,32,33
EndSplineSet
EndChar

StartChar: less
Encoding: 31 60 31
Width: 2097
VWidth: 1024
Flags: W
LayerCount: 2
Fore
SplineSet
420 564 m 0,0,-1
 420 694 l 0,1,-1
 1677 1177 l 0,2,-1
 1677 1047 l 0,3,-1
 554 629 l 0,4,-1
 1677 212 l 0,5,-1
 1677 82 l 0,6,-1
 420 564 l 0,0,-1
EndSplineSet
EndChar

StartChar: equal
Encoding: 32 61 32
Width: 2097
VWidth: 1024
Flags: W
LayerCount: 2
Fore
SplineSet
420 755 m 0,0,-1
 420 885 l 0,1,-1
 1677 885 l 0,2,-1
 1677 755 l 0,3,-1
 420 755 l 0,0,-1
420 374 m 0,4,-1
 420 504 l 0,5,-1
 1677 504 l 0,6,-1
 1677 374 l 0,7,-1
 420 374 l 0,4,-1
EndSplineSet
EndChar

StartChar: greater
Encoding: 33 62 33
Width: 2097
VWidth: 1024
Flags: W
LayerCount: 2
Fore
SplineSet
420 82 m 0,0,-1
 420 212 l 0,1,-1
 1543 629 l 0,2,-1
 420 1047 l 0,3,-1
 420 1177 l 0,4,-1
 1677 694 l 0,5,-1
 1677 564 l 0,6,-1
 420 82 l 0,0,-1
EndSplineSet
EndChar

StartChar: question
Encoding: 34 63 34
Width: 1017
VWidth: 1024
Flags: W
LayerCount: 2
Fore
SplineSet
971 1139 m 0,0,1
 971 1034 971 1034 928 950 c 0,2,3
 886 867 886 867 818 801 c 0,4,5
 750 736 750 736 664 688 c 0,6,7
 578 639 578 639 493 604 c 0,8,-1
 444 354 l 0,9,-1
 304 354 l 0,10,-1
 360 667 l 0,11,12
 432 690 432 690 501 730 c 0,13,14
 570 770 570 770 623 827 c 0,15,16
 677 884 677 884 710 957 c 0,17,18
 743 1030 743 1030 742 1118 c 0,19,20
 742 1226 742 1226 684 1281 c 0,21,22
 626 1336 626 1336 524 1336 c 0,23,-1
 396 1128 l 0,24,-1
 336 1128 l 0,25,26
 282 1128 282 1128 251 1151 c 0,27,28
 220 1174 220 1174 220 1214 c 0,29,30
 220 1245 220 1245 238 1285 c 0,31,32
 256 1324 256 1324 299 1358 c 0,33,34
 342 1392 342 1392 412 1417 c 0,35,36
 482 1441 482 1441 587 1441 c 0,37,38
 680 1441 680 1441 752 1420 c 0,39,40
 824 1399 824 1399 872 1359 c 0,41,42
 921 1320 921 1320 946 1264 c 0,43,44
 971 1209 971 1209 971 1139 c 0,0,1
476 92 m 0,45,46
 476 67 476 67 467 45 c 0,47,48
 458 22 458 22 441 5 c 0,49,50
 424 -12 424 -12 399 -23 c 0,51,52
 374 -34 374 -34 342 -34 c 0,53,54
 309 -34 309 -34 283 -24 c 0,55,56
 257 -14 257 -14 239 4 c 0,57,58
 221 21 221 21 211 44 c 0,59,60
 201 66 201 66 202 90 c 0,61,62
 202 115 202 115 211 138 c 0,63,64
 221 161 221 161 239 179 c 0,65,66
 257 197 257 197 283 207 c 0,67,68
 309 218 309 218 342 218 c 0,69,70
 374 218 374 218 399 208 c 0,71,72
 424 198 424 198 441 180 c 0,73,74
 458 162 458 162 467 139 c 0,75,76
 476 117 476 117 476 92 c 0,45,46
EndSplineSet
EndChar

StartChar: at
Encoding: 35 64 35
Width: 1961
VWidth: 1024
Flags: W
LayerCount: 2
Fore
SplineSet
1833 782 m 0,0,1
 1833 676 1833 676 1809 585 c 0,2,3
 1785 494 1785 494 1746 421 c 0,4,5
 1707 347 1707 347 1655 290 c 0,6,7
 1603 233 1603 233 1545 195 c 0,8,9
 1488 157 1488 157 1430 137 c 0,10,11
 1372 118 1372 118 1319 118 c 0,12,13
 1232 118 1232 118 1193 161 c 0,14,15
 1155 205 1155 205 1155 292 c 0,16,17
 1073 209 1073 209 1000 164 c 0,18,19
 927 119 927 119 854 120 c 0,20,21
 797 120 797 120 749 144 c 0,22,23
 701 168 701 168 666 212 c 0,24,25
 631 257 631 257 611 320 c 0,26,27
 592 383 592 383 592 462 c 0,28,29
 592 582 592 582 636 686 c 0,30,31
 680 790 680 790 753 867 c 0,32,33
 826 944 826 944 919 988 c 0,34,35
 1012 1032 1012 1032 1111 1032 c 0,36,37
 1134 1032 1134 1032 1160 1028 c 0,38,39
 1187 1024 1187 1024 1214 1016 c 0,40,41
 1241 1008 1241 1008 1268 998 c 0,42,43
 1295 987 1295 987 1317 975 c 0,44,-1
 1355 1023 l 0,45,-1
 1475 1023 l 0,46,47
 1473 1017 1473 1017 1465 987 c 0,48,49
 1458 957 1458 957 1447 912 c 0,50,51
 1436 867 1436 867 1424 812 c 0,52,53
 1411 756 1411 756 1398 699 c 0,54,55
 1367 566 1367 566 1329 400 c 0,56,57
 1321 364 1321 364 1321 334 c 0,58,59
 1321 304 1321 304 1330 283 c 0,60,61
 1339 261 1339 261 1358 249 c 0,62,63
 1377 237 1377 237 1407 237 c 0,64,65
 1438 237 1438 237 1474 253 c 0,66,67
 1510 270 1510 270 1546 303 c 0,68,69
 1582 336 1582 336 1615 383 c 0,70,71
 1648 430 1648 430 1674 490 c 0,72,73
 1700 550 1700 550 1715 624 c 0,74,75
 1730 697 1730 697 1731 780 c 0,76,77
 1731 878 1731 878 1708 960 c 0,78,79
 1685 1041 1685 1041 1644 1105 c 0,80,81
 1603 1169 1603 1169 1547 1217 c 0,82,83
 1491 1264 1491 1264 1425 1295 c 0,84,85
 1359 1326 1359 1326 1287 1341 c 0,86,87
 1214 1356 1214 1356 1141 1357 c 0,88,89
 1021 1357 1021 1357 914 1329 c 0,90,91
 807 1301 807 1301 716 1249 c 0,92,93
 625 1197 625 1197 552 1123 c 0,94,95
 479 1049 479 1049 429 958 c 0,96,97
 378 867 378 867 350 761 c 0,98,99
 322 655 322 655 323 539 c 0,100,101
 323 379 323 379 372 241 c 0,102,103
 422 103 422 103 516 1 c 0,104,105
 610 -100 610 -100 746 -158 c 0,106,107
 882 -216 882 -216 1057 -216 c 0,108,109
 1149 -216 1149 -216 1229 -202 c 0,110,111
 1309 -188 1309 -188 1379 -165 c 0,112,113
 1448 -142 1448 -142 1506 -115 c 0,114,115
 1564 -87 1564 -87 1613 -60 c 0,116,-1
 1642 -136 l 0,117,118
 1571 -174 1571 -174 1498 -207 c 0,119,120
 1424 -240 1424 -240 1345 -266 c 0,121,122
 1267 -291 1267 -291 1182 -306 c 0,123,124
 1098 -321 1098 -321 1007 -321 c 0,125,126
 894 -321 894 -321 789 -295 c 0,127,128
 684 -269 684 -269 591 -221 c 0,129,130
 498 -172 498 -172 422 -101 c 0,131,132
 345 -30 345 -30 290 61 c 0,133,134
 235 152 235 152 205 263 c 0,135,136
 174 374 174 374 174 501 c 0,137,138
 174 657 174 657 211 787 c 0,139,140
 248 918 248 918 314 1023 c 0,141,142
 380 1128 380 1128 470 1208 c 0,143,144
 560 1288 560 1288 664 1341 c 0,145,146
 769 1394 769 1394 884 1422 c 0,147,148
 999 1449 999 1449 1116 1449 c 0,149,150
 1272 1449 1272 1449 1403 1405 c 0,151,152
 1535 1361 1535 1361 1630 1277 c 0,153,154
 1725 1193 1725 1193 1779 1069 c 0,155,156
 1833 944 1833 944 1833 782 c 0,0,1
1246 824 m 0,157,158
 1249 837 1249 837 1241 858 c 0,159,160
 1232 878 1232 878 1215 898 c 0,161,162
 1198 917 1198 917 1174 930 c 0,163,164
 1150 944 1150 944 1122 944 c 0,165,166
 1044 944 1044 944 982 908 c 0,167,168
 920 872 920 872 876 808 c 0,169,170
 832 745 832 745 808 661 c 0,171,172
 784 577 784 577 784 480 c 0,173,174
 784 366 784 366 826 310 c 0,175,176
 868 254 868 254 948 254 c 0,177,178
 983 254 983 254 1015 268 c 0,179,180
 1047 282 1047 282 1074 302 c 0,181,182
 1101 322 1101 322 1123 346 c 0,183,184
 1146 370 1146 370 1162 390 c 0,185,-1
 1246 824 l 0,157,158
EndSplineSet
EndChar

StartChar: A
Encoding: 36 65 36
Width: 1411
VWidth: 1024
Flags: W
LayerCount: 2
Fore
SplineSet
820 0 m 0,0,-1
 820 88 l 0,1,-1
 916 98 l 0,2,3
 962 104 962 104 956 138 c 0,4,-1
 893 539 l 0,5,-1
 418 539 l 0,6,-1
 204 138 l 0,7,8
 193 118 193 118 203 110 c 0,9,10
 214 102 214 102 244 98 c 0,11,-1
 340 88 l 0,12,-1
 340 0 l 0,13,-1
 -112 0 l 0,14,-1
 -112 88 l 0,15,-1
 6 100 l 0,16,-1
 780 1441 l 0,17,-1
 948 1441 l 0,18,-1
 1175 138 l 0,19,20
 1178 118 1178 118 1186 109 c 0,21,22
 1194 100 1194 100 1217 98 c 0,23,-1
 1313 88 l 0,24,-1
 1313 0 l 0,25,-1
 820 0 l 0,0,-1
784 1183 m 0,26,-1
 474 638 l 0,27,-1
 874 638 l 0,28,-1
 784 1183 l 0,26,-1
EndSplineSet
EndChar

StartChar: B
Encoding: 37 66 37
Width: 1271
VWidth: 1024
Flags: W
LayerCount: 2
Fore
SplineSet
971 1124 m 0,0,1
 971 1223 971 1223 895 1270 c 0,2,3
 820 1317 820 1317 686 1317 c 0,4,5
 653 1317 653 1317 625 1315 c 0,6,7
 596 1313 596 1313 579 1311 c 0,8,-1
 476 778 l 0,9,10
 488 777 488 777 502 776 c 0,11,-1
 529 775 l 0,12,13
 543 775 543 775 556 775 c 0,14,15
 568 774 568 774 574 774 c 0,16,17
 672 774 672 774 747 802 c 0,18,19
 821 830 821 830 871 878 c 0,20,21
 921 926 921 926 946 990 c 0,22,23
 971 1053 971 1053 971 1124 c 0,0,1
933 449 m 0,24,25
 933 514 933 514 910 558 c 0,26,27
 887 603 887 603 846 630 c 0,28,29
 805 658 805 658 745 670 c 0,30,31
 686 682 686 682 612 682 c 0,32,33
 573 682 573 682 531 679 c 0,34,35
 489 676 489 676 455 671 c 0,36,-1
 344 100 l 0,37,38
 356 99 356 99 373 98 c 0,39,40
 390 97 390 97 408 96 c 0,41,42
 426 95 426 95 443 95 c 0,43,44
 460 94 460 94 474 94 c 0,45,46
 699 94 699 94 816 188 c 0,47,48
 933 282 933 282 933 449 c 0,24,25
1204 1139 m 0,49,50
 1204 1058 1204 1058 1177 995 c 0,51,52
 1149 933 1149 933 1101 886 c 0,53,54
 1053 839 1053 839 990 806 c 0,55,56
 926 772 926 772 854 749 c 0,57,58
 923 740 923 740 979 720 c 0,59,60
 1035 701 1035 701 1076 669 c 0,61,62
 1117 636 1117 636 1140 587 c 0,63,64
 1163 538 1163 538 1162 470 c 0,65,66
 1162 341 1162 341 1115 251 c 0,67,68
 1068 161 1068 161 985 106 c 0,69,70
 902 50 902 50 788 25 c 0,71,72
 675 0 675 0 543 0 c 0,73,-1
 -32 0 l 0,74,-1
 -32 88 l 0,75,-1
 100 98 l 0,76,77
 119 100 119 100 129 110 c 0,78,79
 138 120 138 120 140 138 c 0,80,-1
 358 1267 l 0,81,82
 361 1284 361 1284 353 1295 c 0,83,84
 345 1306 345 1306 316 1309 c 0,85,-1
 200 1319 l 0,86,-1
 200 1407 l 0,87,-1
 788 1407 l 0,88,89
 902 1407 902 1407 982 1388 c 0,90,91
 1061 1369 1061 1369 1111 1334 c 0,92,93
 1161 1299 1161 1299 1182 1249 c 0,94,95
 1204 1199 1204 1199 1204 1139 c 0,49,50
EndSplineSet
EndChar

StartChar: C
Encoding: 38 67 38
Width: 1320
VWidth: 1024
Flags: W
LayerCount: 2
Fore
SplineSet
1294 1030 m 0,0,-1
 1170 1030 l 0,1,-1
 1170 1225 l 0,2,3
 1170 1241 1170 1241 1159 1258 c 0,4,5
 1147 1275 1147 1275 1133 1281 c 0,6,7
 1129 1283 1129 1283 1114 1292 c 0,8,9
 1100 1301 1100 1301 1077 1310 c 0,10,11
 1054 1319 1054 1319 1023 1327 c 0,12,13
 992 1335 992 1335 954 1334 c 0,14,15
 873 1334 873 1334 796 1309 c 0,16,17
 718 1283 718 1283 648 1235 c 0,18,19
 578 1187 578 1187 518 1117 c 0,20,21
 459 1047 459 1047 415 959 c 0,22,23
 371 870 371 870 347 764 c 0,24,25
 322 658 322 658 323 537 c 0,26,27
 323 418 323 418 357 331 c 0,28,29
 391 244 391 244 450 186 c 0,30,31
 508 129 508 129 586 101 c 0,32,33
 664 73 664 73 753 74 c 0,34,35
 787 74 787 74 814 78 c 0,36,37
 842 83 842 83 862 89 c 0,38,39
 882 95 882 95 894 101 c 0,40,41
 906 107 906 107 910 109 c 0,42,43
 922 111 922 111 937 123 c 0,44,45
 952 136 952 136 958 151 c 0,46,-1
 1049 390 l 0,47,-1
 1172 390 l 0,48,-1
 1116 50 l 0,49,50
 1104 46 1104 46 1063 33 c 0,51,52
 1023 20 1023 20 964 5 c 0,53,54
 905 -10 905 -10 833 -22 c 0,55,56
 760 -34 760 -34 684 -34 c 0,57,58
 580 -34 580 -34 496 -10 c 0,59,60
 412 14 412 14 347 54 c 0,61,62
 282 95 282 95 236 152 c 0,63,64
 189 208 189 208 159 274 c 0,65,66
 129 340 129 340 115 413 c 0,67,68
 101 486 101 486 100 560 c 0,69,70
 100 672 100 672 128 780 c 0,71,72
 156 889 156 889 208 987 c 0,73,74
 260 1085 260 1085 335 1168 c 0,75,76
 410 1251 410 1251 503 1312 c 0,77,78
 597 1372 597 1372 708 1406 c 0,79,80
 819 1440 819 1440 944 1441 c 0,81,82
 995 1441 995 1441 1042 1435 c 0,83,84
 1089 1429 1089 1429 1138 1419 c 0,85,86
 1186 1408 1186 1408 1238 1392 c 0,87,88
 1290 1376 1290 1376 1351 1357 c 0,89,-1
 1294 1030 l 0,0,-1
EndSplineSet
EndChar

StartChar: D
Encoding: 39 68 39
Width: 1406
VWidth: 1024
Flags: W
LayerCount: 2
Fore
SplineSet
1369 870 m 0,0,1
 1369 741 1369 741 1339 627 c 0,2,3
 1309 512 1309 512 1253 415 c 0,4,5
 1197 318 1197 318 1117 242 c 0,6,7
 1037 165 1037 165 935 111 c 0,8,9
 834 57 834 57 715 29 c 0,10,11
 596 0 596 0 462 0 c 0,12,-1
 -32 0 l 0,13,-1
 -32 88 l 0,14,-1
 98 98 l 0,15,16
 118 100 118 100 127 110 c 0,17,18
 135 120 135 120 140 138 c 0,19,-1
 358 1267 l 0,20,21
 361 1284 361 1284 353 1295 c 0,22,23
 345 1306 345 1306 316 1309 c 0,24,-1
 200 1319 l 0,25,-1
 200 1407 l 0,26,-1
 700 1407 l 0,27,28
 843 1407 843 1407 966 1379 c 0,29,30
 1088 1351 1088 1351 1178 1288 c 0,31,32
 1268 1225 1268 1225 1318 1122 c 0,33,34
 1369 1020 1369 1020 1369 870 c 0,0,1
1143 889 m 0,35,36
 1143 1020 1143 1020 1103 1100 c 0,37,38
 1063 1180 1063 1180 995 1224 c 0,39,40
 927 1268 927 1268 839 1284 c 0,41,42
 750 1300 750 1300 652 1303 c 0,43,-1
 577 1303 l 0,44,-1
 346 109 l 0,45,-1
 499 109 l 0,46,47
 658 111 658 111 778 177 c 0,48,49
 899 243 899 243 980 351 c 0,50,51
 1061 460 1061 460 1102 600 c 0,52,53
 1143 739 1143 739 1143 889 c 0,35,36
EndSplineSet
EndChar

StartChar: E
Encoding: 40 69 40
Width: 1169
VWidth: 1024
Flags: W
LayerCount: 2
Fore
SplineSet
1153 1093 m 0,0,-1
 1019 1093 l 0,1,-1
 1019 1263 l 0,2,3
 1019 1286 1019 1286 1011 1294 c 0,4,5
 1003 1303 1003 1303 979 1303 c 0,6,-1
 577 1303 l 0,7,-1
 480 786 l 0,8,-1
 761 786 l 0,9,10
 784 786 784 786 795 795 c 0,11,12
 807 804 807 804 814 826 c 0,13,-1
 854 967 l 0,14,-1
 971 967 l 0,15,-1
 879 486 l 0,16,-1
 759 486 l 0,17,-1
 780 636 l 0,18,19
 786 678 786 678 740 678 c 0,20,-1
 457 678 l 0,21,-1
 348 104 l 0,22,-1
 841 104 l 0,23,24
 864 104 864 104 875 116 c 0,25,26
 887 128 887 128 893 146 c 0,27,-1
 958 348 l 0,28,-1
 1086 348 l 0,29,-1
 1017 0 l 0,30,-1
 -32 0 l 0,31,-1
 -32 88 l 0,32,-1
 90 98 l 0,33,34
 134 101 134 101 140 138 c 0,35,-1
 358 1267 l 0,36,37
 361 1284 361 1284 353 1295 c 0,38,39
 345 1306 345 1306 318 1309 c 0,40,-1
 202 1319 l 0,41,-1
 202 1407 l 0,42,-1
 1217 1407 l 0,43,-1
 1153 1093 l 0,0,-1
EndSplineSet
EndChar

StartChar: F
Encoding: 41 70 41
Width: 1077
VWidth: 1024
Flags: W
LayerCount: 2
Fore
SplineSet
1128 1069 m 0,0,-1
 994 1069 l 0,1,-1
 994 1263 l 0,2,3
 994 1286 994 1286 985 1294 c 0,4,5
 976 1303 976 1303 952 1303 c 0,6,-1
 577 1303 l 0,7,-1
 474 763 l 0,8,-1
 742 763 l 0,9,10
 765 763 765 763 776 772 c 0,11,12
 787 781 787 781 793 803 c 0,13,-1
 833 946 l 0,14,-1
 952 946 l 0,15,-1
 860 468 l 0,16,-1
 740 468 l 0,17,-1
 761 614 l 0,18,19
 765 634 765 634 753 646 c 0,20,21
 741 657 741 657 719 656 c 0,22,-1
 453 656 l 0,23,-1
 352 138 l 0,24,25
 349 123 349 123 357 112 c 0,26,27
 365 101 365 101 392 98 c 0,28,-1
 528 88 l 0,29,-1
 528 0 l 0,30,-1
 -32 0 l 0,31,-1
 -32 88 l 0,32,-1
 88 98 l 0,33,34
 131 101 131 101 140 138 c 0,35,-1
 358 1267 l 0,36,37
 361 1284 361 1284 353 1295 c 0,38,39
 345 1306 345 1306 316 1309 c 0,40,-1
 200 1319 l 0,41,-1
 200 1407 l 0,42,-1
 1193 1407 l 0,43,-1
 1128 1069 l 0,0,-1
EndSplineSet
EndChar

StartChar: G
Encoding: 42 71 42
Width: 1441
VWidth: 1024
Flags: W
LayerCount: 2
Fore
SplineSet
1296 581 m 0,0,1
 1276 579 1276 579 1262 570 c 0,2,3
 1248 561 1248 561 1243 541 c 0,4,-1
 1149 48 l 0,5,6
 1139 45 1139 45 1113 38 c 0,7,8
 1087 31 1087 31 1052 23 c 0,9,10
 1016 14 1016 14 972 4 c 0,11,12
 928 -6 928 -6 882 -15 c 0,13,14
 835 -24 835 -24 787 -29 c 0,15,16
 739 -34 739 -34 696 -34 c 0,17,18
 576 -34 576 -34 486 -6 c 0,19,20
 395 22 395 22 329 68 c 0,21,22
 263 115 263 115 219 176 c 0,23,24
 175 237 175 237 148 303 c 0,25,26
 121 370 121 370 111 436 c 0,27,28
 100 503 100 503 100 562 c 0,29,30
 100 696 100 696 136 814 c 0,31,32
 172 931 172 931 235 1029 c 0,33,34
 298 1127 298 1127 383 1203 c 0,35,36
 469 1279 469 1279 570 1332 c 0,37,38
 671 1385 671 1385 781 1413 c 0,39,40
 892 1441 892 1441 1005 1441 c 0,41,42
 1056 1441 1056 1441 1100 1437 c 0,43,44
 1145 1433 1145 1433 1190 1424 c 0,45,46
 1235 1415 1235 1415 1285 1401 c 0,47,48
 1335 1387 1335 1387 1395 1369 c 0,49,-1
 1329 1032 l 0,50,-1
 1187 1032 l 0,51,-1
 1193 1225 l 0,52,53
 1195 1249 1195 1249 1184 1263 c 0,54,55
 1173 1278 1173 1278 1153 1283 c 0,56,57
 1149 1284 1149 1284 1136 1291 c 0,58,59
 1123 1298 1123 1298 1100 1307 c 0,60,61
 1078 1315 1078 1315 1048 1321 c 0,62,63
 1017 1327 1017 1327 979 1327 c 0,64,65
 900 1327 900 1327 822 1302 c 0,66,67
 744 1276 744 1276 671 1228 c 0,68,69
 599 1180 599 1180 537 1110 c 0,70,71
 475 1040 475 1040 430 951 c 0,72,73
 384 862 384 862 358 756 c 0,74,75
 332 650 332 650 332 528 c 0,76,77
 332 443 332 443 351 377 c 0,78,79
 370 311 370 311 403 261 c 0,80,81
 436 211 436 211 478 176 c 0,82,83
 520 141 520 141 565 119 c 0,84,85
 610 97 610 97 655 88 c 0,86,87
 700 78 700 78 738 78 c 0,88,89
 770 78 770 78 802 82 c 0,90,91
 834 86 834 86 863 92 c 0,92,93
 892 98 892 98 915 104 c 0,94,95
 938 110 938 110 950 114 c 0,96,-1
 1032 541 l 0,97,98
 1035 558 1035 558 1027 568 c 0,99,100
 1019 578 1019 578 990 581 c 0,101,-1
 874 592 l 0,102,-1
 874 680 l 0,103,-1
 1415 680 l 0,104,-1
 1415 592 l 0,105,-1
 1296 581 l 0,0,1
EndSplineSet
EndChar

StartChar: H
Encoding: 43 72 43
Width: 1519
VWidth: 1024
Flags: W
LayerCount: 2
Fore
SplineSet
1487 1309 m 0,0,1
 1468 1307 1468 1307 1455 1297 c 0,2,3
 1442 1287 1442 1287 1437 1267 c 0,4,-1
 1219 138 l 0,5,6
 1216 123 1216 123 1224 112 c 0,7,8
 1232 101 1232 101 1261 98 c 0,9,-1
 1378 88 l 0,10,-1
 1378 0 l 0,11,-1
 830 0 l 0,12,-1
 830 88 l 0,13,-1
 956 98 l 0,14,15
 974 100 974 100 989 110 c 0,16,17
 1003 120 1003 120 1007 138 c 0,18,-1
 1111 684 l 0,19,-1
 457 684 l 0,20,-1
 352 138 l 0,21,22
 349 123 349 123 357 112 c 0,23,24
 365 101 365 101 392 98 c 0,25,-1
 514 88 l 0,26,-1
 514 0 l 0,27,-1
 -32 0 l 0,28,-1
 -32 88 l 0,29,-1
 88 98 l 0,30,31
 131 101 131 101 140 138 c 0,32,-1
 358 1267 l 0,33,34
 361 1284 361 1284 353 1295 c 0,35,36
 345 1306 345 1306 316 1309 c 0,37,-1
 200 1319 l 0,38,-1
 200 1407 l 0,39,-1
 744 1407 l 0,40,-1
 744 1319 l 0,41,-1
 621 1309 l 0,42,43
 603 1307 603 1307 588 1297 c 0,44,45
 574 1287 574 1287 570 1267 c 0,46,-1
 478 788 l 0,47,-1
 1133 788 l 0,48,-1
 1225 1267 l 0,49,50
 1228 1284 1228 1284 1220 1295 c 0,51,52
 1212 1306 1212 1306 1183 1309 c 0,53,-1
 1063 1319 l 0,54,-1
 1063 1407 l 0,55,-1
 1609 1407 l 0,56,-1
 1609 1319 l 0,57,-1
 1487 1309 l 0,0,1
EndSplineSet
EndChar

StartChar: I
Encoding: 44 73 44
Width: 657
VWidth: 1024
Flags: W
LayerCount: 2
Fore
SplineSet
612 1309 m 0,0,1
 592 1307 592 1307 584 1297 c 0,2,3
 576 1287 576 1287 570 1267 c 0,4,-1
 352 138 l 0,5,6
 349 123 349 123 357 112 c 0,7,8
 365 101 365 101 394 98 c 0,9,-1
 516 88 l 0,10,-1
 516 0 l 0,11,-1
 -32 0 l 0,12,-1
 -32 88 l 0,13,-1
 100 98 l 0,14,15
 119 100 119 100 129 110 c 0,16,17
 138 120 138 120 140 138 c 0,18,-1
 358 1267 l 0,19,20
 361 1284 361 1284 353 1295 c 0,21,22
 345 1306 345 1306 318 1309 c 0,23,-1
 202 1319 l 0,24,-1
 202 1407 l 0,25,-1
 746 1407 l 0,26,-1
 746 1319 l 0,27,-1
 612 1309 l 0,0,1
EndSplineSet
EndChar

StartChar: J
Encoding: 45 74 45
Width: 980
VWidth: 1024
Flags: W
LayerCount: 2
Fore
SplineSet
944 1309 m 0,0,1
 901 1306 901 1306 891 1267 c 0,2,-1
 757 537 l 0,3,4
 733 407 733 407 699 301 c 0,5,6
 665 196 665 196 607 121 c 0,7,8
 549 47 549 47 459 7 c 0,9,10
 369 -33 369 -33 234 -34 c 0,11,12
 173 -34 173 -34 125 -26 c 0,13,14
 77 -18 77 -18 42 -7 c 0,15,16
 8 4 8 4 -13 15 c 0,17,18
 -34 26 -34 26 -42 30 c 0,19,-1
 28 388 l 0,20,-1
 166 388 l 0,21,-1
 166 132 l 0,22,23
 166 105 166 105 191 91 c 0,24,25
 217 76 217 76 250 76 c 0,26,27
 317 76 317 76 364 105 c 0,28,29
 411 135 411 135 443 191 c 0,30,31
 476 247 476 247 499 330 c 0,32,33
 522 412 522 412 541 518 c 0,34,-1
 680 1267 l 0,35,36
 683 1284 683 1284 675 1295 c 0,37,38
 667 1306 667 1306 640 1309 c 0,39,-1
 518 1319 l 0,40,-1
 518 1407 l 0,41,-1
 1063 1407 l 0,42,-1
 1063 1319 l 0,43,-1
 944 1309 l 0,0,1
EndSplineSet
EndChar

StartChar: K
Encoding: 46 75 46
Width: 1374
VWidth: 1024
Flags: W
LayerCount: 2
Fore
SplineSet
1275 1303 m 0,0,-1
 726 772 l 0,1,-1
 1017 208 l 0,2,3
 1036 169 1036 169 1054 145 c 0,4,5
 1072 121 1072 121 1092 107 c 0,6,7
 1111 93 1111 93 1133 89 c 0,8,9
 1155 84 1155 84 1183 84 c 0,10,11
 1202 84 1202 84 1224 85 c 0,12,13
 1246 86 1246 86 1271 88 c 0,14,-1
 1271 0 l 0,15,16
 1222 -14 1222 -14 1168 -24 c 0,17,18
 1115 -34 1115 -34 1074 -34 c 0,19,20
 1028 -34 1028 -34 994 -27 c 0,21,22
 960 -20 960 -20 931 -2 c 0,23,24
 902 16 902 16 879 46 c 0,25,26
 855 76 855 76 830 122 c 0,27,-1
 572 618 l 0,28,-1
 444 618 l 0,29,-1
 350 138 l 0,30,31
 347 123 347 123 356 112 c 0,32,33
 365 101 365 101 392 98 c 0,34,-1
 514 88 l 0,35,-1
 514 0 l 0,36,-1
 -34 0 l 0,37,-1
 -34 88 l 0,38,-1
 88 98 l 0,39,40
 132 101 132 101 138 138 c 0,41,-1
 358 1267 l 0,42,43
 361 1284 361 1284 353 1295 c 0,44,45
 345 1306 345 1306 318 1309 c 0,46,-1
 202 1319 l 0,47,-1
 202 1407 l 0,48,-1
 746 1407 l 0,49,-1
 746 1319 l 0,50,-1
 623 1309 l 0,51,52
 603 1307 603 1307 589 1297 c 0,53,54
 576 1287 576 1287 570 1267 c 0,55,-1
 464 717 l 0,56,-1
 499 717 l 0,57,-1
 1057 1267 l 0,58,59
 1070 1279 1070 1279 1068 1293 c 0,60,61
 1065 1307 1065 1307 1042 1309 c 0,62,-1
 908 1319 l 0,63,-1
 908 1407 l 0,64,-1
 1451 1407 l 0,65,-1
 1451 1319 l 0,66,-1
 1275 1303 l 0,0,-1
EndSplineSet
EndChar

StartChar: L
Encoding: 47 76 47
Width: 1085
VWidth: 1024
Flags: W
LayerCount: 2
Fore
SplineSet
937 0 m 0,0,-1
 -32 0 l 0,1,-1
 -32 88 l 0,2,-1
 90 98 l 0,3,4
 134 101 134 101 140 138 c 0,5,-1
 358 1267 l 0,6,7
 361 1284 361 1284 353 1295 c 0,8,9
 345 1306 345 1306 318 1309 c 0,10,-1
 202 1319 l 0,11,-1
 202 1407 l 0,12,-1
 746 1407 l 0,13,-1
 746 1319 l 0,14,-1
 623 1309 l 0,15,16
 599 1307 599 1307 586 1294 c 0,17,18
 573 1282 573 1282 570 1267 c 0,19,-1
 348 104 l 0,20,-1
 761 104 l 0,21,22
 781 104 781 104 794 116 c 0,23,24
 807 128 807 128 814 146 c 0,25,-1
 889 388 l 0,26,-1
 1013 388 l 0,27,-1
 937 0 l 0,0,-1
EndSplineSet
EndChar

StartChar: M
Encoding: 48 77 48
Width: 1806
VWidth: 1024
Flags: W
LayerCount: 2
Fore
SplineSet
1775 1309 m 0,0,1
 1732 1306 1732 1306 1721 1267 c 0,2,-1
 1505 138 l 0,3,4
 1502 123 1502 123 1511 112 c 0,5,6
 1520 101 1520 101 1547 98 c 0,7,-1
 1665 88 l 0,8,-1
 1665 0 l 0,9,-1
 1120 0 l 0,10,-1
 1120 88 l 0,11,-1
 1243 98 l 0,12,13
 1262 100 1262 100 1277 110 c 0,14,15
 1291 120 1291 120 1294 138 c 0,16,-1
 1497 1202 l 0,17,-1
 824 0 l 0,18,-1
 698 0 l 0,19,-1
 488 1191 l 0,20,-1
 294 138 l 0,21,22
 291 123 291 123 299 112 c 0,23,24
 307 101 307 101 334 98 c 0,25,-1
 451 88 l 0,26,-1
 451 0 l 0,27,-1
 -30 0 l 0,28,-1
 -30 88 l 0,29,-1
 90 98 l 0,30,31
 133 101 133 101 142 138 c 0,32,-1
 358 1267 l 0,33,34
 361 1284 361 1284 353 1295 c 0,35,36
 345 1306 345 1306 316 1309 c 0,37,-1
 200 1319 l 0,38,-1
 200 1407 l 0,39,-1
 669 1407 l 0,40,-1
 669 1349 l 0,41,-1
 849 334 l 0,42,-1
 1409 1338 l 0,43,-1
 1409 1407 l 0,44,-1
 1893 1407 l 0,45,-1
 1893 1319 l 0,46,-1
 1775 1309 l 0,0,1
EndSplineSet
EndChar

StartChar: N
Encoding: 49 78 49
Width: 1490
VWidth: 1024
Flags: W
LayerCount: 2
Fore
SplineSet
1464 1309 m 0,0,1
 1444 1307 1444 1307 1430 1297 c 0,2,3
 1416 1287 1416 1287 1411 1267 c 0,4,-1
 1164 0 l 0,5,-1
 1013 0 l 0,6,-1
 484 1113 l 0,7,-1
 298 138 l 0,8,9
 295 123 295 123 303 112 c 0,10,11
 311 101 311 101 340 98 c 0,12,-1
 457 88 l 0,13,-1
 457 0 l 0,14,-1
 -30 0 l 0,15,-1
 -30 88 l 0,16,-1
 90 98 l 0,17,18
 133 101 133 101 142 138 c 0,19,-1
 358 1267 l 0,20,21
 361 1284 361 1284 353 1295 c 0,22,23
 345 1306 345 1306 318 1309 c 0,24,-1
 202 1319 l 0,25,-1
 202 1407 l 0,26,-1
 606 1407 l 0,27,-1
 606 1353 l 0,28,-1
 1078 352 l 0,29,-1
 1256 1267 l 0,30,31
 1259 1284 1259 1284 1251 1295 c 0,32,33
 1243 1306 1243 1306 1217 1309 c 0,34,-1
 1097 1319 l 0,35,-1
 1097 1407 l 0,36,-1
 1583 1407 l 0,37,-1
 1583 1319 l 0,38,-1
 1464 1309 l 0,0,1
EndSplineSet
EndChar

StartChar: O
Encoding: 50 79 50
Width: 1488
VWidth: 1024
Flags: W
LayerCount: 2
Fore
SplineSet
1449 874 m 0,0,1
 1449 763 1449 763 1425 654 c 0,2,3
 1401 544 1401 544 1357 442 c 0,4,5
 1312 341 1312 341 1245 254 c 0,6,7
 1178 167 1178 167 1092 103 c 0,8,9
 1005 38 1005 38 900 3 c 0,10,11
 794 -33 794 -33 671 -34 c 0,12,13
 545 -34 545 -34 440 8 c 0,14,15
 336 49 336 49 260 126 c 0,16,17
 184 203 184 203 142 310 c 0,18,19
 100 418 100 418 100 550 c 0,20,21
 100 663 100 663 126 772 c 0,22,23
 152 882 152 882 200 981 c 0,24,25
 249 1080 249 1080 318 1164 c 0,26,27
 387 1248 387 1248 474 1310 c 0,28,29
 561 1371 561 1371 663 1406 c 0,30,31
 766 1441 766 1441 881 1441 c 0,32,33
 1011 1441 1011 1441 1116 1396 c 0,34,35
 1221 1351 1221 1351 1295 1275 c 0,36,37
 1369 1198 1369 1198 1409 1095 c 0,38,39
 1449 991 1449 991 1449 874 c 0,0,1
1210 874 m 0,40,41
 1210 978 1210 978 1184 1064 c 0,42,43
 1158 1149 1158 1149 1112 1210 c 0,44,45
 1065 1271 1065 1271 1001 1304 c 0,46,47
 937 1337 937 1337 862 1336 c 0,48,49
 785 1336 785 1336 717 1303 c 0,50,51
 648 1269 648 1269 590 1210 c 0,52,53
 532 1152 532 1152 485 1074 c 0,54,55
 438 996 438 996 406 906 c 0,56,57
 373 817 373 817 355 721 c 0,58,59
 338 625 338 625 338 532 c 0,60,61
 338 426 338 426 365 342 c 0,62,63
 392 258 392 258 439 198 c 0,64,65
 486 139 486 139 549 108 c 0,66,67
 612 76 612 76 686 76 c 0,68,69
 763 76 763 76 831 110 c 0,70,71
 900 144 900 144 958 204 c 0,72,73
 1016 263 1016 263 1063 342 c 0,74,75
 1110 420 1110 420 1143 509 c 0,76,77
 1176 598 1176 598 1193 692 c 0,78,79
 1210 785 1210 785 1210 874 c 0,40,41
EndSplineSet
EndChar

StartChar: P
Encoding: 51 80 51
Width: 1185
VWidth: 1024
Flags: W
LayerCount: 2
Fore
SplineSet
1197 1072 m 0,0,1
 1197 945 1197 945 1149 844 c 0,2,3
 1101 743 1101 743 1015 671 c 0,4,5
 929 600 929 600 813 562 c 0,6,7
 696 524 696 524 558 524 c 0,8,9
 542 524 542 524 519 525 c 0,10,11
 496 526 496 526 476 526 c 0,12,13
 451 527 451 527 426 528 c 0,14,-1
 348 138 l 0,15,16
 345 123 345 123 353 112 c 0,17,18
 361 101 361 101 390 98 c 0,19,-1
 510 88 l 0,20,-1
 510 0 l 0,21,-1
 -36 0 l 0,22,-1
 -36 88 l 0,23,-1
 86 98 l 0,24,25
 127 101 127 101 136 138 c 0,26,-1
 356 1267 l 0,27,28
 359 1284 359 1284 351 1295 c 0,29,30
 343 1306 343 1306 314 1309 c 0,31,-1
 198 1319 l 0,32,-1
 198 1407 l 0,33,-1
 719 1407 l 0,34,35
 848 1407 848 1407 938 1382 c 0,36,37
 1029 1357 1029 1357 1087 1312 c 0,38,39
 1145 1267 1145 1267 1171 1206 c 0,40,41
 1197 1145 1197 1145 1197 1072 c 0,0,1
979 1036 m 0,42,43
 979 1096 979 1096 962 1147 c 0,44,45
 945 1197 945 1197 907 1233 c 0,46,47
 869 1269 869 1269 806 1289 c 0,48,49
 744 1309 744 1309 654 1309 c 0,50,51
 635 1309 635 1309 613 1308 c 0,52,53
 591 1307 591 1307 574 1305 c 0,54,-1
 444 638 l 0,55,56
 490 634 490 634 537 635 c 0,57,58
 584 637 584 637 629 645 c 0,59,60
 674 653 674 653 716 667 c 0,61,62
 758 682 758 682 795 705 c 0,63,64
 835 729 835 729 868 760 c 0,65,66
 902 792 902 792 927 833 c 0,67,68
 952 874 952 874 965 924 c 0,69,70
 979 975 979 975 979 1036 c 0,42,43
EndSplineSet
EndChar

StartChar: Q
Encoding: 52 81 52
Width: 1488
VWidth: 1024
Flags: W
LayerCount: 2
Fore
SplineSet
1514 -232 m 0,0,1
 1502 -238 1502 -238 1466 -256 c 0,2,3
 1430 -273 1430 -273 1380 -291 c 0,4,5
 1330 -308 1330 -308 1273 -322 c 0,6,7
 1216 -336 1216 -336 1160 -336 c 0,8,9
 1079 -336 1079 -336 1019 -312 c 0,10,11
 959 -288 959 -288 913 -247 c 0,12,13
 867 -205 867 -205 833 -148 c 0,14,15
 799 -92 799 -92 770 -26 c 0,16,17
 746 -28 746 -28 718 -31 c 0,18,19
 690 -34 690 -34 665 -34 c 0,20,21
 549 -34 549 -34 445 5 c 0,22,23
 342 43 342 43 265 117 c 0,24,25
 188 191 188 191 142 298 c 0,26,27
 96 406 96 406 96 543 c 0,28,29
 96 652 96 652 122 760 c 0,30,31
 148 869 148 869 197 968 c 0,32,33
 246 1068 246 1068 315 1155 c 0,34,35
 385 1242 385 1242 472 1305 c 0,36,37
 559 1368 559 1368 663 1404 c 0,38,39
 767 1440 767 1440 883 1441 c 0,40,41
 1011 1441 1011 1441 1115 1398 c 0,42,43
 1219 1355 1219 1355 1293 1279 c 0,44,45
 1367 1203 1367 1203 1407 1100 c 0,46,47
 1447 997 1447 997 1447 877 c 0,48,49
 1447 821 1447 821 1440 752 c 0,50,51
 1433 683 1433 683 1414 609 c 0,52,53
 1396 535 1396 535 1363 458 c 0,54,55
 1330 381 1330 381 1279 307 c 0,56,57
 1228 233 1228 233 1156 165 c 0,58,59
 1084 97 1084 97 988 42 c 0,60,61
 1020 -16 1020 -16 1049 -63 c 0,62,63
 1078 -110 1078 -110 1110 -144 c 0,64,65
 1143 -178 1143 -178 1182 -196 c 0,66,67
 1221 -214 1221 -214 1273 -214 c 0,68,69
 1304 -214 1304 -214 1336 -207 c 0,70,71
 1368 -200 1368 -200 1400 -190 c 0,72,73
 1432 -180 1432 -180 1461 -168 c 0,74,75
 1490 -156 1490 -156 1514 -144 c 0,76,-1
 1514 -232 l 0,0,1
1210 877 m 0,77,78
 1210 976 1210 976 1186 1060 c 0,79,80
 1161 1144 1161 1144 1117 1205 c 0,81,82
 1072 1266 1072 1266 1010 1300 c 0,83,84
 948 1334 948 1334 872 1334 c 0,85,86
 794 1334 794 1334 724 1302 c 0,87,88
 653 1270 653 1270 593 1213 c 0,89,90
 533 1157 533 1157 485 1080 c 0,91,92
 436 1003 436 1003 402 914 c 0,93,94
 368 825 368 825 350 728 c 0,95,96
 332 631 332 631 332 532 c 0,97,98
 332 434 332 434 356 351 c 0,99,100
 381 268 381 268 426 207 c 0,101,102
 472 147 472 147 537 112 c 0,103,104
 602 78 602 78 684 78 c 0,105,106
 759 78 759 78 827 112 c 0,107,108
 895 146 895 146 954 204 c 0,109,110
 1013 262 1013 262 1060 340 c 0,111,112
 1107 418 1107 418 1141 507 c 0,113,114
 1175 596 1175 596 1192 691 c 0,115,116
 1210 786 1210 786 1210 877 c 0,77,78
EndSplineSet
EndChar

StartChar: R
Encoding: 53 82 53
Width: 1343
VWidth: 1024
Flags: W
LayerCount: 2
Fore
SplineSet
1290 0 m 0,0,1
 1247 -19 1247 -19 1210 -27 c 0,2,3
 1173 -34 1173 -34 1137 -34 c 0,4,5
 1042 -34 1042 -34 984 -3 c 0,6,7
 926 28 926 28 892 77 c 0,8,9
 859 126 859 126 843 186 c 0,10,11
 827 246 827 246 816 304 c 0,12,13
 804 362 804 362 789 419 c 0,14,15
 774 476 774 476 747 521 c 0,16,17
 720 566 720 566 675 593 c 0,18,19
 630 621 630 621 556 621 c 0,20,21
 542 621 542 621 523 620 c 0,22,23
 505 619 505 619 487 620 c 0,24,25
 468 619 468 619 446 618 c 0,26,-1
 356 138 l 0,27,28
 353 123 353 123 361 112 c 0,29,30
 369 101 369 101 396 98 c 0,31,-1
 518 88 l 0,32,-1
 518 0 l 0,33,-1
 -28 0 l 0,34,-1
 -28 88 l 0,35,-1
 92 98 l 0,36,37
 135 101 135 101 144 138 c 0,38,-1
 358 1267 l 0,39,40
 361 1284 361 1284 353 1295 c 0,41,42
 345 1306 345 1306 318 1309 c 0,43,-1
 202 1319 l 0,44,-1
 202 1407 l 0,45,-1
 763 1407 l 0,46,47
 850 1407 850 1407 932 1393 c 0,48,49
 1014 1379 1014 1379 1078 1342 c 0,50,51
 1141 1306 1141 1306 1180 1247 c 0,52,53
 1218 1187 1218 1187 1219 1097 c 0,54,55
 1219 1012 1219 1012 1185 943 c 0,56,57
 1151 874 1151 874 1093 821 c 0,58,59
 1035 767 1035 767 956 728 c 0,60,61
 878 689 878 689 791 665 c 0,62,63
 856 637 856 637 893 603 c 0,64,65
 931 569 931 569 955 526 c 0,66,67
 979 484 979 484 992 433 c 0,68,69
 1005 382 1005 382 1021 323 c 0,70,71
 1036 265 1036 265 1055 220 c 0,72,73
 1073 175 1073 175 1103 145 c 0,74,75
 1133 115 1133 115 1178 101 c 0,76,77
 1223 86 1223 86 1290 86 c 0,78,-1
 1290 0 l 0,0,1
981 1067 m 0,79,80
 981 1144 981 1144 948 1191 c 0,81,82
 915 1238 915 1238 862 1264 c 0,83,84
 810 1290 810 1290 746 1297 c 0,85,86
 683 1305 683 1305 623 1303 c 0,87,88
 615 1303 615 1303 600 1302 c 0,89,90
 586 1301 586 1301 577 1300 c 0,91,-1
 470 728 l 0,92,-1
 516 728 l 0,93,94
 601 728 601 728 684 743 c 0,95,96
 767 758 767 758 833 798 c 0,97,98
 899 837 899 837 940 902 c 0,99,100
 981 967 981 967 981 1067 c 0,79,80
EndSplineSet
EndChar

StartChar: S
Encoding: 54 83 54
Width: 1091
VWidth: 1024
Flags: W
LayerCount: 2
Fore
SplineSet
1009 1044 m 0,0,-1
 885 1044 l 0,1,-1
 893 1256 l 0,2,3
 893 1266 893 1266 878 1281 c 0,4,5
 863 1295 863 1295 836 1307 c 0,6,7
 810 1320 810 1320 776 1329 c 0,8,9
 742 1338 742 1338 705 1338 c 0,10,11
 645 1338 645 1338 587 1317 c 0,12,13
 530 1295 530 1295 486 1257 c 0,14,15
 442 1219 442 1219 416 1166 c 0,16,17
 390 1113 390 1113 390 1051 c 0,18,19
 390 995 390 995 421 952 c 0,20,21
 452 910 452 910 497 877 c 0,22,23
 542 844 542 844 593 819 c 0,24,25
 644 794 644 794 686 774 c 0,26,27
 741 745 741 745 794 714 c 0,28,29
 847 682 847 682 888 642 c 0,30,31
 929 602 929 602 954 550 c 0,32,33
 979 498 979 498 979 430 c 0,34,35
 979 354 979 354 948 272 c 0,36,37
 917 190 917 190 847 122 c 0,38,39
 777 54 777 54 666 10 c 0,40,41
 555 -34 555 -34 394 -34 c 0,42,43
 313 -34 313 -34 244 -19 c 0,44,45
 175 -4 175 -4 122 15 c 0,46,47
 69 34 69 34 35 52 c 0,48,49
 1 70 1 70 -10 76 c 0,50,-1
 60 413 l 0,51,-1
 204 413 l 0,52,-1
 180 172 l 0,53,54
 179 160 179 160 195 147 c 0,55,56
 210 135 210 135 234 124 c 0,57,58
 259 113 259 113 289 105 c 0,59,60
 319 96 319 96 346 90 c 0,61,62
 373 83 373 83 394 79 c 0,63,64
 415 75 415 75 422 76 c 0,65,66
 490 76 490 76 551 97 c 0,67,68
 612 118 612 118 659 157 c 0,69,70
 706 196 706 196 733 253 c 0,71,72
 761 310 761 310 761 382 c 0,73,74
 761 435 761 435 730 477 c 0,75,76
 699 518 699 518 653 551 c 0,77,78
 607 584 607 584 556 609 c 0,79,80
 505 634 505 634 466 654 c 0,81,82
 411 683 411 683 358 714 c 0,83,84
 306 745 306 745 266 784 c 0,85,86
 226 822 226 822 201 870 c 0,87,88
 176 918 176 918 176 981 c 0,89,90
 176 1085 176 1085 217 1170 c 0,91,92
 258 1255 258 1255 331 1315 c 0,93,94
 404 1375 404 1375 504 1408 c 0,95,96
 604 1441 604 1441 722 1441 c 0,97,98
 793 1441 793 1441 853 1431 c 0,99,100
 913 1421 913 1421 959 1408 c 0,101,102
 1005 1395 1005 1395 1036 1382 c 0,103,104
 1066 1370 1066 1370 1076 1365 c 0,105,-1
 1009 1044 l 0,0,-1
EndSplineSet
EndChar

StartChar: T
Encoding: 55 84 55
Width: 1228
VWidth: 1024
Flags: W
LayerCount: 2
Fore
SplineSet
1296 1086 m 0,0,-1
 1164 1086 l 0,1,-1
 1172 1271 l 0,2,3
 1175 1313 1175 1313 1133 1313 c 0,4,-1
 862 1313 l 0,5,-1
 644 138 l 0,6,7
 641 123 641 123 649 112 c 0,8,9
 657 101 657 101 686 98 c 0,10,-1
 805 88 l 0,11,-1
 805 0 l 0,12,-1
 260 0 l 0,13,-1
 260 88 l 0,14,-1
 382 98 l 0,15,16
 400 100 400 100 415 110 c 0,17,18
 429 120 429 120 432 138 c 0,19,-1
 650 1313 l 0,20,-1
 388 1313 l 0,21,22
 348 1313 348 1313 336 1271 c 0,23,-1
 270 1086 l 0,24,-1
 138 1086 l 0,25,-1
 200 1407 l 0,26,-1
 1361 1407 l 0,27,-1
 1296 1086 l 0,0,-1
EndSplineSet
EndChar

StartChar: U
Encoding: 56 85 56
Width: 1482
VWidth: 1024
Flags: W
LayerCount: 2
Fore
SplineSet
1449 1309 m 0,0,1
 1431 1307 1431 1307 1416 1297 c 0,2,3
 1402 1287 1402 1287 1399 1267 c 0,4,-1
 1237 449 l 0,5,6
 1215 335 1215 335 1168 245 c 0,7,8
 1121 155 1121 155 1048 94 c 0,9,10
 975 32 975 32 876 -1 c 0,11,12
 777 -34 777 -34 652 -34 c 0,13,14
 555 -34 555 -34 472 -14 c 0,15,16
 389 6 389 6 326 50 c 0,17,18
 264 94 264 94 228 164 c 0,19,20
 193 234 193 234 193 334 c 0,21,22
 193 366 193 366 199 423 c 0,23,24
 206 480 206 480 220 554 c 0,25,-1
 367 1267 l 0,26,27
 370 1284 370 1284 361 1295 c 0,28,29
 353 1306 353 1306 325 1309 c 0,30,-1
 208 1319 l 0,31,-1
 208 1407 l 0,32,-1
 753 1407 l 0,33,-1
 753 1319 l 0,34,-1
 629 1309 l 0,35,36
 611 1307 611 1307 596 1297 c 0,37,38
 582 1287 582 1287 579 1267 c 0,39,-1
 434 554 l 0,40,41
 422 493 422 493 416 444 c 0,42,43
 410 395 410 395 411 367 c 0,44,45
 411 300 411 300 432 251 c 0,46,47
 453 202 453 202 491 168 c 0,48,49
 529 135 529 135 584 119 c 0,50,51
 639 103 639 103 707 102 c 0,52,53
 809 102 809 102 878 137 c 0,54,55
 947 171 947 171 993 228 c 0,56,57
 1039 285 1039 285 1066 362 c 0,58,59
 1093 438 1093 438 1109 522 c 0,60,-1
 1256 1267 l 0,61,62
 1259 1284 1259 1284 1251 1295 c 0,63,64
 1243 1306 1243 1306 1214 1309 c 0,65,-1
 1097 1319 l 0,66,-1
 1097 1407 l 0,67,-1
 1571 1407 l 0,68,-1
 1571 1319 l 0,69,-1
 1449 1309 l 0,0,1
EndSplineSet
EndChar

StartChar: V
Encoding: 57 86 57
Width: 1347
VWidth: 1024
Flags: W
LayerCount: 2
Fore
SplineSet
1391 1307 m 0,0,-1
 667 -34 l 0,1,-1
 508 -34 l 0,2,-1
 304 1273 l 0,3,4
 301 1293 301 1293 288 1303 c 0,5,6
 275 1313 275 1313 254 1315 c 0,7,-1
 174 1319 l 0,8,-1
 174 1407 l 0,9,-1
 650 1407 l 0,10,-1
 650 1319 l 0,11,-1
 560 1315 l 0,12,13
 536 1313 536 1313 526 1304 c 0,14,15
 515 1295 515 1295 518 1273 c 0,16,-1
 675 258 l 0,17,-1
 1208 1273 l 0,18,19
 1216 1289 1216 1289 1211 1301 c 0,20,21
 1206 1313 1206 1313 1177 1315 c 0,22,-1
 1074 1319 l 0,23,-1
 1074 1407 l 0,24,-1
 1501 1407 l 0,25,-1
 1501 1319 l 0,26,-1
 1391 1307 l 0,0,-1
EndSplineSet
EndChar

StartChar: W
Encoding: 58 87 58
Width: 1943
VWidth: 1024
Flags: W
LayerCount: 2
Fore
SplineSet
1973 1307 m 0,0,-1
 1345 -34 l 0,1,-1
 1210 -34 l 0,2,-1
 1089 1086 l 0,3,-1
 564 -34 l 0,4,-1
 418 -34 l 0,5,-1
 312 1273 l 0,6,7
 310 1293 310 1293 300 1303 c 0,8,9
 289 1313 289 1313 262 1315 c 0,10,-1
 174 1319 l 0,11,-1
 174 1407 l 0,12,-1
 658 1407 l 0,13,-1
 658 1319 l 0,14,-1
 566 1315 l 0,15,16
 542 1313 542 1313 534 1303 c 0,17,18
 525 1293 525 1293 524 1273 c 0,19,-1
 598 362 l 0,20,-1
 1091 1407 l 0,21,-1
 1261 1407 l 0,22,-1
 1367 348 l 0,23,-1
 1793 1273 l 0,24,25
 1811 1312 1811 1312 1753 1315 c 0,26,-1
 1659 1319 l 0,27,-1
 1659 1407 l 0,28,-1
 2097 1407 l 0,29,-1
 2097 1319 l 0,30,-1
 1973 1307 l 0,0,-1
EndSplineSet
EndChar

StartChar: X
Encoding: 59 88 59
Width: 1327
VWidth: 1024
Flags: W
LayerCount: 2
Fore
SplineSet
1296 1311 m 0,0,1
 1280 1309 1280 1309 1266 1298 c 0,2,3
 1252 1287 1252 1287 1246 1279 c 0,4,-1
 784 755 l 0,5,-1
 1059 128 l 0,6,7
 1069 109 1069 109 1079 103 c 0,8,9
 1089 98 1089 98 1101 96 c 0,10,-1
 1214 88 l 0,11,-1
 1214 0 l 0,12,-1
 673 0 l 0,13,-1
 673 88 l 0,14,-1
 807 96 l 0,15,16
 824 98 824 98 835 111 c 0,17,18
 845 123 845 123 837 138 c 0,19,-1
 648 579 l 0,20,-1
 252 138 l 0,21,22
 239 126 239 126 241 112 c 0,23,24
 244 98 244 98 270 96 c 0,25,-1
 396 88 l 0,26,-1
 396 0 l 0,27,-1
 -92 0 l 0,28,-1
 -92 88 l 0,29,-1
 8 96 l 0,30,31
 25 98 25 98 39 109 c 0,32,33
 52 120 52 120 58 128 c 0,34,-1
 581 713 l 0,35,-1
 330 1279 l 0,36,37
 322 1298 322 1298 311 1304 c 0,38,39
 301 1309 301 1309 290 1311 c 0,40,-1
 174 1319 l 0,41,-1
 174 1407 l 0,42,-1
 719 1407 l 0,43,-1
 719 1319 l 0,44,-1
 583 1311 l 0,45,46
 566 1309 566 1309 555 1297 c 0,47,48
 545 1285 545 1285 552 1269 c 0,49,-1
 724 877 l 0,50,-1
 1067 1269 l 0,51,52
 1078 1281 1078 1281 1077 1295 c 0,53,54
 1075 1309 1075 1309 1049 1311 c 0,55,-1
 948 1319 l 0,56,-1
 948 1407 l 0,57,-1
 1422 1407 l 0,58,-1
 1422 1319 l 0,59,-1
 1296 1311 l 0,0,1
EndSplineSet
EndChar

StartChar: Y
Encoding: 60 89 60
Width: 1339
VWidth: 1024
Flags: W
LayerCount: 2
Fore
SplineSet
1373 1311 m 0,0,1
 1358 1309 1358 1309 1342 1298 c 0,2,3
 1327 1287 1327 1287 1319 1279 c 0,4,-1
 786 589 l 0,5,-1
 698 138 l 0,6,7
 693 123 693 123 702 112 c 0,8,9
 711 101 711 101 738 98 c 0,10,-1
 856 88 l 0,11,-1
 856 0 l 0,12,-1
 310 0 l 0,13,-1
 310 88 l 0,14,-1
 432 98 l 0,15,16
 450 100 450 100 464 110 c 0,17,18
 477 120 477 120 482 138 c 0,19,-1
 568 570 l 0,20,-1
 334 1279 l 0,21,22
 327 1299 327 1299 316 1304 c 0,23,24
 305 1309 305 1309 294 1311 c 0,25,-1
 176 1319 l 0,26,-1
 176 1407 l 0,27,-1
 719 1407 l 0,28,-1
 719 1319 l 0,29,-1
 585 1311 l 0,30,31
 568 1309 568 1309 559 1297 c 0,32,33
 550 1286 550 1286 556 1269 c 0,34,-1
 728 724 l 0,35,-1
 1133 1269 l 0,36,37
 1137 1276 1137 1276 1140 1283 c 0,38,39
 1143 1290 1143 1290 1142 1296 c 0,40,41
 1141 1302 1141 1302 1135 1306 c 0,42,43
 1129 1310 1129 1310 1116 1311 c 0,44,-1
 986 1319 l 0,45,-1
 986 1407 l 0,46,-1
 1491 1407 l 0,47,-1
 1491 1319 l 0,48,-1
 1373 1311 l 0,0,1
EndSplineSet
EndChar

StartChar: Z
Encoding: 61 90 61
Width: 1179
VWidth: 1024
Flags: W
LayerCount: 2
Fore
SplineSet
1229 1313 m 0,0,-1
 242 112 l 0,1,-1
 812 112 l 0,2,3
 853 112 853 112 864 154 c 0,4,-1
 927 388 l 0,5,-1
 1069 388 l 0,6,-1
 996 0 l 0,7,-1
 -42 0 l 0,8,-1
 -24 92 l 0,9,-1
 961 1298 l 0,10,-1
 470 1298 l 0,11,12
 447 1298 447 1298 437 1289 c 0,13,14
 426 1279 426 1279 420 1258 c 0,15,-1
 362 1074 l 0,16,-1
 218 1074 l 0,17,-1
 286 1407 l 0,18,-1
 1248 1407 l 0,19,-1
 1229 1313 l 0,0,-1
EndSplineSet
EndChar

StartChar: bracketleft
Encoding: 62 91 62
Width: 882
VWidth: 1024
Flags: W
LayerCount: 2
Fore
SplineSet
646 1386 m 0,0,-1
 334 -178 l 0,1,-1
 654 -178 l 0,2,-1
 654 -276 l 0,3,-1
 114 -276 l 0,4,-1
 466 1485 l 0,5,-1
 988 1485 l 0,6,-1
 988 1386 l 0,7,-1
 646 1386 l 0,0,-1
EndSplineSet
EndChar

StartChar: backslash
Encoding: 63 92 63
Width: 1024
VWidth: 1024
Flags: W
LayerCount: 2
Fore
SplineSet
891 -195 m 0,0,-1
 0 1407 l 0,1,-1
 134 1407 l 0,2,-1
 1025 -195 l 0,3,-1
 891 -195 l 0,0,-1
EndSplineSet
EndChar

StartChar: bracketright
Encoding: 64 93 64
Width: 882
VWidth: 1024
Flags: W
LayerCount: 2
Fore
SplineSet
436 -276 m 0,0,-1
 -86 -276 l 0,1,-1
 -86 -176 l 0,2,-1
 258 -176 l 0,3,-1
 568 1389 l 0,4,-1
 248 1389 l 0,5,-1
 248 1485 l 0,6,-1
 788 1485 l 0,7,-1
 436 -276 l 0,0,-1
EndSplineSet
EndChar

StartChar: asciicircum
Encoding: 65 94 65
Width: 718
VWidth: 1024
Flags: W
LayerCount: 2
Fore
SplineSet
780 578 m 0,0,-1
 694 674 l 0,1,-1
 568 578 l 0,2,-1
 495 578 l 0,3,-1
 668 755 l 0,4,-1
 750 755 l 0,5,-1
 853 578 l 0,6,-1
 780 578 l 0,0,-1
EndSplineSet
EndChar

StartChar: underscore
Encoding: 66 95 66
Width: 636
VWidth: 1024
Flags: W
LayerCount: 2
Fore
SplineSet
473 -323 m 0,0,-1
 -164 -323 l 0,1,-1
 -134 -184 l 0,2,-1
 500 -184 l 0,3,-1
 473 -323 l 0,0,-1
EndSplineSet
EndChar

StartChar: grave
Encoding: 67 96 67
Width: 823
VWidth: 1024
Flags: W
LayerCount: 2
Fore
SplineSet
693 578 m 0,0,-1
 541 677 l 0,1,2
 530 684 530 684 524 695 c 0,3,4
 517 705 517 705 517 721 c 0,5,6
 517 729 517 729 519 737 c 0,7,8
 521 745 521 745 527 752 c 0,9,10
 532 759 532 759 541 763 c 0,11,12
 550 767 550 767 564 767 c 0,13,14
 575 767 575 767 583 765 c 0,15,16
 591 763 591 763 598 760 c 0,17,18
 604 757 604 757 609 752 c 0,19,20
 614 747 614 747 618 741 c 0,21,-1
 758 578 l 0,22,-1
 693 578 l 0,0,-1
EndSplineSet
EndChar

StartChar: a
Encoding: 68 97 68
Width: 1091
VWidth: 1024
Flags: W
LayerCount: 2
Fore
SplineSet
1086 56 m 0,0,1
 1074 51 1074 51 1041 37 c 0,2,3
 1008 23 1008 23 968 10 c 0,4,5
 928 -4 928 -4 886 -15 c 0,6,7
 845 -26 845 -26 814 -26 c 0,8,9
 776 -26 776 -26 750 -16 c 0,10,11
 724 -7 724 -7 707 11 c 0,12,13
 690 29 690 29 681 56 c 0,14,15
 672 83 672 83 669 118 c 0,16,17
 645 95 645 95 613 70 c 0,18,19
 581 45 581 45 543 24 c 0,20,21
 505 2 505 2 461 -12 c 0,22,23
 417 -26 417 -26 371 -26 c 0,24,25
 310 -26 310 -26 263 -8 c 0,26,27
 216 9 216 9 182 38 c 0,28,29
 148 67 148 67 126 106 c 0,30,31
 104 144 104 144 91 186 c 0,32,33
 78 227 78 227 73 270 c 0,34,35
 68 312 68 312 68 350 c 0,36,37
 68 431 68 431 85 514 c 0,38,39
 102 596 102 596 137 672 c 0,40,41
 171 748 171 748 222 815 c 0,42,43
 273 882 273 882 340 931 c 0,44,45
 407 980 407 980 490 1008 c 0,46,47
 572 1036 572 1036 671 1036 c 0,48,49
 700 1036 700 1036 728 1030 c 0,50,51
 756 1023 756 1023 780 1012 c 0,52,53
 805 1001 805 1001 825 988 c 0,54,55
 845 975 845 975 860 961 c 0,56,-1
 891 1011 l 0,57,-1
 1034 1011 l 0,58,59
 1029 999 1029 999 1023 982 c 0,60,61
 1017 965 1017 965 1011 947 c 0,62,63
 1005 930 1005 930 1000 914 c 0,64,65
 995 899 995 899 994 891 c 0,66,67
 987 863 987 863 974 807 c 0,68,69
 961 751 961 751 946 682 c 0,70,71
 931 612 931 612 915 536 c 0,72,73
 899 460 899 460 887 392 c 0,74,75
 875 324 875 324 866 271 c 0,76,77
 858 218 858 218 858 195 c 0,78,79
 858 140 858 140 882 119 c 0,80,81
 906 99 906 99 948 98 c 0,82,83
 958 98 958 98 978 103 c 0,84,85
 998 108 998 108 1020 114 c 0,86,87
 1042 120 1042 120 1060 125 c 0,88,89
 1078 130 1078 130 1086 132 c 0,90,-1
 1086 56 l 0,0,1
778 822 m 0,91,92
 779 827 779 827 771 846 c 0,93,94
 762 864 762 864 750 884 c 0,95,96
 738 904 738 904 723 920 c 0,97,98
 709 935 709 935 700 935 c 0,99,100
 620 935 620 935 558 909 c 0,101,102
 495 883 495 883 447 838 c 0,103,104
 400 793 400 793 367 735 c 0,105,106
 334 677 334 677 313 613 c 0,107,108
 293 550 293 550 284 485 c 0,109,110
 275 420 275 420 274 362 c 0,111,112
 274 318 274 318 282 274 c 0,113,114
 289 230 289 230 307 195 c 0,115,116
 325 159 325 159 356 136 c 0,117,118
 387 113 387 113 436 114 c 0,119,120
 473 114 473 114 510 130 c 0,121,122
 547 146 547 146 579 168 c 0,123,124
 611 190 611 190 634 211 c 0,125,126
 658 233 658 233 669 244 c 0,127,-1
 778 822 l 0,91,92
EndSplineSet
EndChar

StartChar: b
Encoding: 69 98 69
Width: 1032
VWidth: 1024
Flags: W
LayerCount: 2
Fore
SplineSet
965 650 m 0,0,1
 965 584 965 584 950 509 c 0,2,3
 936 434 936 434 906 359 c 0,4,5
 876 284 876 284 828 215 c 0,6,7
 781 145 781 145 716 92 c 0,8,9
 650 39 650 39 565 7 c 0,10,11
 480 -25 480 -25 374 -26 c 0,12,13
 285 -26 285 -26 198 -1 c 0,14,15
 111 24 111 24 38 72 c 0,16,-1
 286 1401 l 0,17,-1
 98 1419 l 0,18,-1
 98 1483 l 0,19,-1
 426 1545 l 0,20,-1
 508 1545 l 0,21,-1
 388 910 l 0,22,23
 417 936 417 936 451 959 c 0,24,25
 485 982 485 982 522 999 c 0,26,27
 559 1016 559 1016 598 1026 c 0,28,29
 637 1036 637 1036 675 1036 c 0,30,31
 756 1036 756 1036 811 1000 c 0,32,33
 866 964 866 964 901 908 c 0,34,35
 935 852 935 852 950 784 c 0,36,37
 965 716 965 716 965 650 c 0,0,1
757 642 m 0,38,39
 757 713 757 713 740 761 c 0,40,41
 724 810 724 810 700 841 c 0,42,43
 676 872 676 872 651 885 c 0,44,45
 625 898 625 898 606 898 c 0,46,47
 580 898 580 898 550 890 c 0,48,49
 519 882 519 882 487 867 c 0,50,51
 455 852 455 852 423 833 c 0,52,53
 391 814 391 814 365 791 c 0,54,-1
 248 156 l 0,55,56
 258 141 258 141 275 126 c 0,57,58
 292 112 292 112 315 100 c 0,59,60
 338 88 338 88 365 81 c 0,61,62
 392 74 392 74 420 74 c 0,63,64
 468 74 468 74 511 98 c 0,65,66
 555 123 555 123 592 165 c 0,67,68
 629 207 629 207 660 263 c 0,69,70
 691 319 691 319 712 382 c 0,71,72
 733 445 733 445 745 513 c 0,73,74
 757 580 757 580 757 642 c 0,38,39
EndSplineSet
EndChar

StartChar: c
Encoding: 70 99 70
Width: 911
VWidth: 1024
Flags: W
LayerCount: 2
Fore
SplineSet
845 889 m 0,0,1
 845 869 845 869 839 847 c 0,2,3
 833 825 833 825 815 807 c 0,4,5
 797 789 797 789 765 774 c 0,6,7
 734 759 734 759 684 753 c 0,8,-1
 564 914 l 0,9,10
 508 911 508 911 464 883 c 0,11,12
 420 855 420 855 387 811 c 0,13,14
 354 767 354 767 330 711 c 0,15,16
 307 655 307 655 293 598 c 0,17,18
 279 541 279 541 272 486 c 0,19,20
 266 432 266 432 266 390 c 0,21,22
 266 339 266 339 276 289 c 0,23,24
 286 239 286 239 308 200 c 0,25,26
 330 161 330 161 365 136 c 0,27,28
 400 111 400 111 453 112 c 0,29,30
 495 112 495 112 538 126 c 0,31,32
 581 141 581 141 624 168 c 0,33,34
 668 195 668 195 712 231 c 0,35,36
 756 268 756 268 801 312 c 0,37,-1
 801 180 l 0,38,39
 768 148 768 148 726 113 c 0,40,41
 684 77 684 77 633 46 c 0,42,43
 582 15 582 15 521 -5 c 0,44,45
 460 -25 460 -25 390 -26 c 0,46,47
 315 -26 315 -26 255 1 c 0,48,49
 195 27 195 27 154 76 c 0,50,51
 113 126 113 126 90 199 c 0,52,53
 67 272 67 272 68 365 c 0,54,55
 68 459 68 459 90 545 c 0,56,57
 112 631 112 631 151 706 c 0,58,59
 190 781 190 781 243 841 c 0,60,61
 296 902 296 902 358 946 c 0,62,63
 420 990 420 990 490 1013 c 0,64,65
 559 1037 559 1037 631 1036 c 0,66,67
 687 1036 687 1036 728 1022 c 0,68,69
 769 1008 769 1008 795 986 c 0,70,71
 821 964 821 964 833 938 c 0,72,73
 845 913 845 913 845 889 c 0,0,1
EndSplineSet
EndChar

StartChar: d
Encoding: 71 100 71
Width: 1101
VWidth: 1024
Flags: W
LayerCount: 2
Fore
SplineSet
788 826 m 0,0,1
 789 830 789 830 777 849 c 0,2,3
 764 868 764 868 744 889 c 0,4,5
 724 909 724 909 700 926 c 0,6,7
 676 942 676 942 656 942 c 0,8,9
 579 942 579 942 510 898 c 0,10,11
 440 853 440 853 387 775 c 0,12,13
 334 697 334 697 302 591 c 0,14,15
 270 485 270 485 270 362 c 0,16,17
 270 294 270 294 284 246 c 0,18,19
 298 197 298 197 321 165 c 0,20,21
 344 133 344 133 374 118 c 0,22,23
 404 103 404 103 434 102 c 0,24,25
 463 102 463 102 496 117 c 0,26,27
 529 131 529 131 563 155 c 0,28,29
 597 179 597 179 630 210 c 0,30,31
 663 241 663 241 692 274 c 0,32,-1
 788 826 l 0,0,1
870 180 m 0,33,34
 865 150 865 150 873 132 c 0,35,36
 881 114 881 114 895 103 c 0,37,38
 909 92 909 92 924 88 c 0,39,40
 939 84 939 84 946 84 c 0,41,42
 953 84 953 84 975 90 c 0,43,44
 997 96 997 96 1022 102 c 0,45,46
 1047 109 1047 109 1068 116 c 0,47,-1
 1097 124 l 0,48,-1
 1097 46 l 0,49,50
 1085 41 1085 41 1052 29 c 0,51,52
 1019 17 1019 17 979 5 c 0,53,54
 939 -7 939 -7 897 -16 c 0,55,56
 855 -25 855 -25 822 -26 c 0,57,58
 774 -26 774 -26 743 -14 c 0,59,60
 712 -2 712 -2 695 19 c 0,61,62
 678 40 678 40 671 69 c 0,63,64
 664 98 664 98 665 132 c 0,65,66
 637 102 637 102 604 74 c 0,67,68
 571 46 571 46 532 24 c 0,69,70
 494 2 494 2 453 -12 c 0,71,72
 411 -26 411 -26 367 -26 c 0,73,74
 279 -26 279 -26 221 8 c 0,75,76
 163 42 163 42 129 96 c 0,77,78
 95 150 95 150 81 217 c 0,79,80
 67 284 67 284 68 350 c 0,81,82
 68 433 68 433 86 517 c 0,83,84
 104 600 104 600 139 676 c 0,85,86
 174 752 174 752 225 818 c 0,87,88
 276 884 276 884 342 932 c 0,89,90
 408 981 408 981 488 1009 c 0,91,92
 568 1037 568 1037 660 1036 c 0,93,94
 684 1036 684 1036 707 1032 c 0,95,96
 730 1027 730 1027 750 1021 c 0,97,98
 770 1015 770 1015 787 1008 c 0,99,100
 804 1001 804 1001 818 996 c 0,101,-1
 889 1401 l 0,102,-1
 698 1419 l 0,103,-1
 698 1483 l 0,104,-1
 1023 1545 l 0,105,-1
 1109 1545 l 0,106,-1
 870 180 l 0,33,34
EndSplineSet
EndChar

StartChar: e
Encoding: 72 101 72
Width: 909
VWidth: 1024
Flags: W
LayerCount: 2
Fore
SplineSet
874 824 m 0,0,1
 874 767 874 767 848 719 c 0,2,3
 821 671 821 671 776 632 c 0,4,5
 730 593 730 593 670 563 c 0,6,7
 610 533 610 533 544 511 c 0,8,9
 478 490 478 490 410 478 c 0,10,11
 341 465 341 465 279 462 c 0,12,13
 276 442 276 442 273 413 c 0,14,15
 270 384 270 384 270 365 c 0,16,17
 270 308 270 308 284 259 c 0,18,19
 298 211 298 211 324 176 c 0,20,21
 350 141 350 141 387 120 c 0,22,23
 424 100 424 100 470 100 c 0,24,25
 541 100 541 100 626 152 c 0,26,27
 711 203 711 203 826 304 c 0,28,-1
 826 172 l 0,29,30
 796 143 796 143 754 109 c 0,31,32
 711 75 711 75 656 45 c 0,33,34
 601 15 601 15 537 -6 c 0,35,36
 472 -26 472 -26 400 -26 c 0,37,38
 368 -26 368 -26 331 -19 c 0,39,40
 294 -13 294 -13 257 3 c 0,41,42
 220 19 220 19 186 46 c 0,43,44
 152 74 152 74 125 116 c 0,45,46
 99 158 99 158 83 218 c 0,47,48
 67 277 67 277 68 356 c 0,49,50
 68 439 68 439 88 522 c 0,51,52
 108 604 108 604 144 679 c 0,53,54
 180 754 180 754 231 820 c 0,55,56
 282 885 282 885 344 932 c 0,57,58
 405 980 405 980 476 1007 c 0,59,60
 546 1034 546 1034 621 1034 c 0,61,62
 694 1034 694 1034 742 1010 c 0,63,64
 791 986 791 986 820 952 c 0,65,66
 850 918 850 918 862 883 c 0,67,68
 874 847 874 847 874 824 c 0,0,1
688 826 m 0,69,70
 688 846 688 846 680 867 c 0,71,72
 672 887 672 887 657 902 c 0,73,74
 643 917 643 917 622 927 c 0,75,76
 600 937 600 937 574 937 c 0,77,78
 539 937 539 937 508 919 c 0,79,80
 476 901 476 901 447 869 c 0,81,82
 418 838 418 838 393 799 c 0,83,84
 368 759 368 759 348 715 c 0,85,86
 328 671 328 671 312 626 c 0,87,88
 297 581 297 581 288 541 c 0,89,90
 355 547 355 547 425 571 c 0,91,92
 496 596 496 596 555 634 c 0,93,94
 613 672 613 672 651 722 c 0,95,96
 688 771 688 771 688 826 c 0,69,70
EndSplineSet
EndChar

StartChar: f
Encoding: 73 102 73
Width: 673
VWidth: 1024
Flags: W
LayerCount: 2
Fore
SplineSet
925 1415 m 0,0,1
 925 1365 925 1365 888 1338 c 0,2,3
 851 1311 851 1311 793 1303 c 0,4,-1
 629 1435 l 0,5,6
 606 1417 606 1417 587 1381 c 0,7,8
 568 1346 568 1346 551 1303 c 0,9,10
 535 1259 535 1259 521 1209 c 0,11,12
 507 1159 507 1159 497 1113 c 0,13,14
 487 1066 487 1066 479 1026 c 0,15,16
 472 986 472 986 468 958 c 0,17,-1
 724 958 l 0,18,-1
 724 854 l 0,19,-1
 449 854 l 0,20,21
 446 830 446 830 438 772 c 0,22,23
 430 714 430 714 419 637 c 0,24,25
 408 560 408 560 395 473 c 0,26,27
 382 385 382 385 369 304 c 0,28,29
 356 223 356 223 344 154 c 0,30,31
 332 85 332 85 323 46 c 0,32,33
 309 -12 309 -12 283 -74 c 0,34,35
 258 -136 258 -136 224 -195 c 0,36,37
 190 -253 190 -253 148 -305 c 0,38,39
 107 -357 107 -357 60 -396 c 0,40,41
 13 -435 13 -435 -37 -458 c 0,42,43
 -88 -481 -88 -481 -140 -480 c 0,44,45
 -180 -480 -180 -480 -206 -467 c 0,46,47
 -232 -454 -232 -454 -247 -436 c 0,48,49
 -261 -418 -261 -418 -267 -401 c 0,50,51
 -273 -384 -273 -384 -272 -376 c 0,52,53
 -272 -336 -272 -336 -257 -314 c 0,54,55
 -242 -292 -242 -292 -218 -274 c 0,56,-1
 -4 -330 l 0,57,58
 24 -296 24 -296 47 -247 c 0,59,60
 70 -198 70 -198 89 -138 c 0,61,62
 108 -79 108 -79 123 -11 c 0,63,64
 138 57 138 57 151 130 c 0,65,66
 178 278 178 278 200 461 c 0,67,68
 223 644 223 644 254 851 c 0,69,-1
 92 835 l 0,70,-1
 94 916 l 0,71,-1
 276 977 l 0,72,73
 286 1032 286 1032 305 1096 c 0,74,75
 323 1160 323 1160 349 1223 c 0,76,77
 376 1286 376 1286 412 1345 c 0,78,79
 448 1403 448 1403 496 1447 c 0,80,81
 543 1492 543 1492 602 1519 c 0,82,83
 661 1546 661 1546 732 1545 c 0,84,85
 785 1545 785 1545 822 1532 c 0,86,87
 859 1519 859 1519 882 1499 c 0,88,89
 905 1479 905 1479 914 1456 c 0,90,91
 925 1433 925 1433 925 1415 c 0,0,1
EndSplineSet
EndChar

StartChar: g
Encoding: 74 103 74
Width: 921
VWidth: 1024
Flags: W
LayerCount: 2
Fore
SplineSet
824 883 m 0,0,1
 833 859 833 859 842 822 c 0,2,3
 851 785 851 785 851 742 c 0,4,5
 851 642 851 642 814 567 c 0,6,7
 777 492 777 492 715 442 c 0,8,9
 653 392 653 392 570 367 c 0,10,11
 488 342 488 342 396 342 c 0,12,13
 389 327 389 327 384 308 c 0,14,15
 379 290 379 290 376 272 c 0,16,17
 373 254 373 254 372 239 c 0,18,19
 371 224 371 224 374 216 c 0,20,-1
 654 88 l 0,21,22
 702 66 702 66 742 45 c 0,23,24
 781 23 781 23 809 -4 c 0,25,26
 837 -30 837 -30 853 -63 c 0,27,28
 868 -96 868 -96 868 -142 c 0,29,30
 868 -187 868 -187 847 -230 c 0,31,32
 826 -272 826 -272 790 -310 c 0,33,34
 754 -347 754 -347 703 -379 c 0,35,36
 652 -411 652 -411 593 -433 c 0,37,38
 534 -456 534 -456 470 -468 c 0,39,40
 405 -480 405 -480 338 -480 c 0,41,42
 235 -480 235 -480 159 -455 c 0,43,44
 83 -429 83 -429 33 -387 c 0,45,46
 -17 -345 -17 -345 -40 -290 c 0,47,48
 -64 -235 -64 -235 -65 -174 c 0,49,50
 -65 -121 -65 -121 -42 -76 c 0,51,52
 -20 -31 -20 -31 17 5 c 0,53,54
 55 41 55 41 106 69 c 0,55,56
 157 97 157 97 214 116 c 0,57,58
 209 141 209 141 214 174 c 0,59,60
 219 207 219 207 229 241 c 0,61,62
 240 275 240 275 257 307 c 0,63,64
 274 339 274 339 296 360 c 0,65,66
 254 378 254 378 218 403 c 0,67,68
 182 427 182 427 156 458 c 0,69,70
 130 489 130 489 115 530 c 0,71,72
 100 570 100 570 100 621 c 0,73,74
 100 698 100 698 129 772 c 0,75,76
 158 846 158 846 212 905 c 0,77,78
 267 964 267 964 346 1000 c 0,79,80
 424 1036 424 1036 524 1036 c 0,81,82
 562 1036 562 1036 595 1030 c 0,83,84
 628 1023 628 1023 656 1014 c 0,85,86
 683 1005 683 1005 703 996 c 0,87,88
 723 987 723 987 732 981 c 0,89,-1
 1017 981 l 0,90,-1
 1017 883 l 0,91,-1
 824 883 l 0,0,1
650 753 m 0,92,93
 650 792 650 792 643 827 c 0,94,95
 636 862 636 862 621 889 c 0,96,97
 606 916 606 916 583 932 c 0,98,99
 560 948 560 948 528 948 c 0,100,101
 490 948 490 948 451 921 c 0,102,103
 411 893 411 893 377 845 c 0,104,105
 344 797 344 797 323 732 c 0,106,107
 302 667 302 667 302 594 c 0,108,109
 302 556 302 556 310 524 c 0,110,111
 318 492 318 492 334 468 c 0,112,113
 350 445 350 445 372 433 c 0,114,115
 394 420 394 420 422 420 c 0,116,117
 474 420 474 420 517 453 c 0,118,119
 559 486 559 486 589 537 c 0,120,121
 619 587 619 587 634 645 c 0,122,123
 650 704 650 704 650 753 c 0,92,93
673 -184 m 0,124,125
 673 -146 673 -146 650 -115 c 0,126,127
 627 -83 627 -83 566 -54 c 0,128,-1
 304 65 l 0,129,130
 254 53 254 53 221 31 c 0,131,132
 188 9 188 9 168 -18 c 0,133,134
 149 -45 149 -45 140 -76 c 0,135,136
 132 -107 132 -107 132 -138 c 0,137,138
 132 -174 132 -174 147 -217 c 0,139,140
 162 -260 162 -260 195 -297 c 0,141,142
 227 -334 227 -334 276 -359 c 0,143,144
 325 -384 325 -384 392 -384 c 0,145,146
 468 -384 468 -384 521 -362 c 0,147,148
 574 -340 574 -340 608 -310 c 0,149,150
 642 -279 642 -279 657 -245 c 0,151,152
 673 -211 673 -211 673 -184 c 0,124,125
EndSplineSet
EndChar

StartChar: h
Encoding: 75 104 75
Width: 1097
VWidth: 1024
Flags: W
LayerCount: 2
Fore
SplineSet
1095 52 m 0,0,1
 1082 47 1082 47 1048 35 c 0,2,3
 1015 23 1015 23 974 9 c 0,4,5
 933 -5 933 -5 890 -15 c 0,6,7
 847 -25 847 -25 814 -26 c 0,8,9
 795 -26 795 -26 765 -20 c 0,10,11
 735 -14 735 -14 709 1 c 0,12,13
 683 16 683 16 668 42 c 0,14,15
 653 69 653 69 660 112 c 0,16,-1
 788 730 l 0,17,18
 797 771 797 771 787 803 c 0,19,20
 776 835 776 835 757 856 c 0,21,22
 738 877 738 877 714 887 c 0,23,24
 690 898 690 898 673 898 c 0,25,26
 648 898 648 898 613 886 c 0,27,28
 578 874 578 874 538 852 c 0,29,30
 499 830 499 830 459 800 c 0,31,32
 419 770 419 770 384 734 c 0,33,-1
 230 0 l 0,34,-1
 38 0 l 0,35,-1
 327 1401 l 0,36,-1
 140 1419 l 0,37,-1
 140 1483 l 0,38,-1
 468 1545 l 0,39,-1
 552 1545 l 0,40,-1
 411 868 l 0,41,42
 443 903 443 903 486 934 c 0,43,44
 530 965 530 965 579 988 c 0,45,46
 629 1011 629 1011 682 1023 c 0,47,48
 736 1036 736 1036 788 1036 c 0,49,50
 845 1036 845 1036 890 1018 c 0,51,52
 934 1000 934 1000 961 965 c 0,53,54
 988 930 988 930 996 877 c 0,55,56
 1004 824 1004 824 988 753 c 0,57,-1
 872 188 l 0,58,59
 866 158 866 158 876 139 c 0,60,61
 885 119 885 119 901 107 c 0,62,63
 917 95 917 95 934 91 c 0,64,65
 951 86 951 86 961 86 c 0,66,67
 990 86 990 86 1023 100 c 0,68,69
 1057 114 1057 114 1093 126 c 0,70,-1
 1095 52 l 0,0,1
EndSplineSet
EndChar

StartChar: i
Encoding: 76 105 76
Width: 557
VWidth: 1024
Flags: W
LayerCount: 2
Fore
SplineSet
543 1345 m 0,0,1
 543 1321 543 1321 534 1300 c 0,2,3
 525 1279 525 1279 509 1263 c 0,4,5
 493 1247 493 1247 470 1236 c 0,6,7
 446 1226 446 1226 416 1227 c 0,8,9
 351 1227 351 1227 318 1261 c 0,10,11
 285 1295 285 1295 286 1345 c 0,12,13
 286 1365 286 1365 294 1385 c 0,14,15
 303 1405 303 1405 320 1423 c 0,16,17
 337 1440 337 1440 361 1450 c 0,18,19
 386 1461 386 1461 418 1461 c 0,20,21
 448 1461 448 1461 471 1451 c 0,22,23
 494 1441 494 1441 510 1424 c 0,24,25
 526 1408 526 1408 535 1387 c 0,26,27
 543 1367 543 1367 543 1345 c 0,0,1
552 60 m 0,28,29
 540 55 540 55 507 41 c 0,30,31
 474 27 474 27 430 12 c 0,32,33
 386 -3 386 -3 337 -14 c 0,34,35
 288 -25 288 -25 246 -26 c 0,36,37
 192 -26 192 -26 160 -7 c 0,38,39
 128 11 128 11 113 41 c 0,40,41
 98 71 98 71 95 108 c 0,42,43
 93 145 93 145 100 180 c 0,44,-1
 234 891 l 0,45,-1
 54 910 l 0,46,-1
 54 971 l 0,47,-1
 371 1036 l 0,48,-1
 457 1036 l 0,49,-1
 298 198 l 0,50,51
 294 176 294 176 298 157 c 0,52,53
 303 138 303 138 314 122 c 0,54,55
 325 107 325 107 342 99 c 0,56,57
 359 90 359 90 380 90 c 0,58,59
 398 90 398 90 423 97 c 0,60,61
 448 104 448 104 474 112 c 0,62,63
 499 121 499 121 520 129 c 0,64,65
 542 137 542 137 552 140 c 0,66,-1
 552 60 l 0,28,29
EndSplineSet
EndChar

StartChar: j
Encoding: 77 106 77
Width: 571
VWidth: 1024
Flags: W
LayerCount: 2
Fore
SplineSet
558 1345 m 0,0,1
 558 1327 558 1327 549 1305 c 0,2,3
 540 1284 540 1284 522 1267 c 0,4,5
 505 1250 505 1250 481 1238 c 0,6,7
 457 1227 457 1227 428 1227 c 0,8,9
 371 1227 371 1227 334 1260 c 0,10,11
 298 1293 298 1293 298 1345 c 0,12,13
 298 1369 298 1369 306 1390 c 0,14,15
 314 1412 314 1412 330 1428 c 0,16,17
 346 1445 346 1445 371 1455 c 0,18,19
 396 1465 396 1465 428 1464 c 0,20,21
 460 1464 460 1464 484 1455 c 0,22,23
 508 1445 508 1445 524 1428 c 0,24,25
 540 1411 540 1411 549 1390 c 0,26,27
 558 1369 558 1369 558 1345 c 0,0,1
336 168 m 0,28,29
 327 116 327 116 308 47 c 0,30,31
 290 -22 290 -22 262 -94 c 0,32,33
 234 -166 234 -166 195 -235 c 0,34,35
 157 -304 157 -304 108 -359 c 0,36,37
 59 -414 59 -414 -1 -447 c 0,38,39
 -60 -480 -60 -480 -130 -480 c 0,40,41
 -197 -480 -197 -480 -233 -449 c 0,42,43
 -270 -417 -270 -417 -270 -369 c 0,44,45
 -270 -350 -270 -350 -264 -334 c 0,46,47
 -258 -319 -258 -319 -249 -307 c 0,48,49
 -240 -296 -240 -296 -230 -288 c 0,50,51
 -220 -280 -220 -280 -212 -274 c 0,52,-1
 -2 -332 l 0,53,54
 13 -316 13 -316 29 -282 c 0,55,56
 45 -248 45 -248 60 -205 c 0,57,58
 75 -163 75 -163 88 -116 c 0,59,60
 100 -69 100 -69 109 -26 c 0,61,-1
 266 891 l 0,62,-1
 90 910 l 0,63,-1
 90 971 l 0,64,-1
 407 1036 l 0,65,-1
 484 1036 l 0,66,-1
 336 168 l 0,28,29
EndSplineSet
EndChar

StartChar: k
Encoding: 78 107 78
Width: 1067
VWidth: 1024
Flags: W
LayerCount: 2
Fore
SplineSet
1042 48 m 0,0,1
 1015 35 1015 35 982 22 c 0,2,3
 948 9 948 9 911 -2 c 0,4,5
 875 -12 875 -12 841 -19 c 0,6,7
 807 -26 807 -26 782 -26 c 0,8,9
 756 -26 756 -26 732 -17 c 0,10,11
 707 -8 707 -8 686 6 c 0,12,13
 664 20 664 20 645 37 c 0,14,15
 627 55 627 55 614 74 c 0,16,17
 600 96 600 96 582 130 c 0,18,19
 564 164 564 164 544 205 c 0,20,21
 524 246 524 246 504 290 c 0,22,23
 484 335 484 335 464 376 c 0,24,25
 445 417 445 417 430 454 c 0,26,27
 414 490 414 490 402 512 c 0,28,-1
 306 426 l 0,29,-1
 220 0 l 0,30,-1
 28 0 l 0,31,-1
 306 1401 l 0,32,-1
 122 1419 l 0,33,-1
 122 1483 l 0,34,-1
 446 1545 l 0,35,-1
 530 1545 l 0,36,-1
 336 570 l 0,37,-1
 675 921 l 0,38,39
 705 952 705 952 729 973 c 0,40,41
 754 995 754 995 777 1009 c 0,42,43
 800 1023 800 1023 823 1030 c 0,44,45
 847 1037 847 1037 874 1036 c 0,46,47
 909 1036 909 1036 935 1026 c 0,48,49
 961 1016 961 1016 978 999 c 0,50,51
 995 983 995 983 1004 963 c 0,52,53
 1012 943 1012 943 1011 923 c 0,54,55
 1011 887 1011 887 977 848 c 0,56,57
 944 810 944 810 870 784 c 0,58,-1
 799 860 l 0,59,60
 770 837 770 837 737 810 c 0,61,62
 704 782 704 782 670 754 c 0,63,64
 636 725 636 725 605 697 c 0,65,66
 574 669 574 669 550 648 c 0,67,68
 563 621 563 621 579 582 c 0,69,70
 595 542 595 542 613 496 c 0,71,72
 631 450 631 450 652 403 c 0,73,74
 673 355 673 355 696 312 c 0,75,76
 720 268 720 268 746 228 c 0,77,78
 772 188 772 188 800 156 c 0,79,80
 828 125 828 125 856 106 c 0,81,82
 885 88 885 88 912 88 c 0,83,84
 923 88 923 88 940 91 c 0,85,86
 956 94 956 94 975 97 c 0,87,88
 993 101 993 101 1011 108 c 0,89,90
 1029 114 1029 114 1042 120 c 0,91,-1
 1042 48 l 0,0,1
EndSplineSet
EndChar

StartChar: l
Encoding: 79 108 79
Width: 555
VWidth: 1024
Flags: W
LayerCount: 2
Fore
SplineSet
552 54 m 0,0,1
 540 49 540 49 506 36 c 0,2,3
 472 23 472 23 430 10 c 0,4,5
 388 -4 388 -4 343 -15 c 0,6,7
 297 -26 297 -26 260 -26 c 0,8,9
 212 -26 212 -26 178 -14 c 0,10,11
 144 -3 144 -3 123 17 c 0,12,13
 101 37 101 37 92 66 c 0,14,15
 82 94 82 94 82 128 c 0,16,17
 82 160 82 160 88 202 c 0,18,-1
 318 1401 l 0,19,-1
 132 1419 l 0,20,-1
 132 1483 l 0,21,-1
 460 1545 l 0,22,-1
 541 1545 l 0,23,-1
 286 208 l 0,24,25
 282 186 282 186 288 165 c 0,26,27
 294 144 294 144 307 129 c 0,28,29
 320 113 320 113 340 102 c 0,30,31
 359 92 359 92 382 92 c 0,32,33
 397 92 397 92 422 98 c 0,34,35
 447 104 447 104 473 111 c 0,36,37
 499 118 499 118 521 125 c 0,38,39
 543 132 543 132 552 134 c 0,40,-1
 552 54 l 0,0,1
EndSplineSet
EndChar

StartChar: m
Encoding: 80 109 80
Width: 1626
VWidth: 1024
Flags: W
LayerCount: 2
Fore
SplineSet
1621 54 m 0,0,1
 1594 43 1594 43 1561 29 c 0,2,3
 1528 15 1528 15 1492 3 c 0,4,5
 1457 -9 1457 -9 1422 -17 c 0,6,7
 1387 -25 1387 -25 1357 -26 c 0,8,9
 1314 -26 1314 -26 1279 -16 c 0,10,11
 1245 -6 1245 -6 1222 12 c 0,12,13
 1199 30 1199 30 1189 58 c 0,14,15
 1179 86 1179 86 1187 122 c 0,16,-1
 1303 682 l 0,17,18
 1313 734 1313 734 1310 773 c 0,19,20
 1307 812 1307 812 1294 838 c 0,21,22
 1281 864 1281 864 1262 876 c 0,23,24
 1243 889 1243 889 1223 889 c 0,25,26
 1175 889 1175 889 1129 867 c 0,27,28
 1083 845 1083 845 1046 817 c 0,29,30
 1008 788 1008 788 980 757 c 0,31,32
 952 727 952 727 942 709 c 0,33,-1
 795 0 l 0,34,-1
 600 0 l 0,35,-1
 740 684 l 0,36,37
 747 718 747 718 747 754 c 0,38,39
 746 790 746 790 737 820 c 0,40,41
 727 850 727 850 707 869 c 0,42,43
 687 888 687 888 652 889 c 0,44,45
 615 889 615 889 574 867 c 0,46,47
 533 845 533 845 494 816 c 0,48,49
 456 786 456 786 424 755 c 0,50,51
 393 724 393 724 378 705 c 0,52,-1
 230 0 l 0,53,-1
 38 0 l 0,54,-1
 218 891 l 0,55,-1
 44 910 l 0,56,-1
 44 971 l 0,57,-1
 358 1036 l 0,58,-1
 444 1036 l 0,59,-1
 404 843 l 0,60,61
 443 880 443 880 487 915 c 0,62,63
 531 950 531 950 579 977 c 0,64,65
 626 1004 626 1004 674 1020 c 0,66,67
 722 1036 722 1036 768 1036 c 0,68,69
 820 1036 820 1036 855 1017 c 0,70,71
 889 998 889 998 910 968 c 0,72,73
 931 939 931 939 941 905 c 0,74,75
 951 871 951 871 954 843 c 0,76,77
 992 881 992 881 1038 915 c 0,78,79
 1084 950 1084 950 1135 977 c 0,80,81
 1185 1004 1185 1004 1236 1020 c 0,82,83
 1288 1036 1288 1036 1336 1036 c 0,84,85
 1388 1036 1388 1036 1428 1017 c 0,86,87
 1467 998 1467 998 1491 964 c 0,88,89
 1515 929 1515 929 1522 880 c 0,90,91
 1529 831 1529 831 1517 770 c 0,92,-1
 1399 204 l 0,93,94
 1394 178 1394 178 1400 157 c 0,95,96
 1406 136 1406 136 1419 121 c 0,97,98
 1432 106 1432 106 1450 97 c 0,99,100
 1468 88 1468 88 1489 88 c 0,101,102
 1515 88 1515 88 1548 100 c 0,103,104
 1582 112 1582 112 1621 126 c 0,105,-1
 1621 54 l 0,0,1
EndSplineSet
EndChar

StartChar: n
Encoding: 81 110 81
Width: 1110
VWidth: 1024
Flags: W
LayerCount: 2
Fore
SplineSet
1105 42 m 0,0,1
 1092 37 1092 37 1058 26 c 0,2,3
 1025 15 1025 15 984 4 c 0,4,5
 943 -8 943 -8 900 -17 c 0,6,7
 857 -26 857 -26 824 -26 c 0,8,9
 806 -26 806 -26 774 -22 c 0,10,11
 742 -18 742 -18 712 -6 c 0,12,13
 682 7 682 7 664 32 c 0,14,15
 646 57 646 57 654 98 c 0,16,-1
 782 742 l 0,17,18
 789 784 789 784 783 812 c 0,19,20
 776 840 776 840 761 857 c 0,21,22
 746 874 746 874 727 880 c 0,23,24
 708 887 708 887 690 887 c 0,25,26
 664 887 664 887 627 872 c 0,27,28
 590 857 590 857 548 833 c 0,29,30
 507 808 507 808 465 775 c 0,31,32
 423 742 423 742 388 705 c 0,33,-1
 244 0 l 0,34,-1
 48 0 l 0,35,-1
 230 891 l 0,36,-1
 54 910 l 0,37,-1
 54 971 l 0,38,-1
 371 1036 l 0,39,-1
 455 1036 l 0,40,-1
 416 841 l 0,41,42
 451 876 451 876 496 911 c 0,43,44
 541 946 541 946 592 974 c 0,45,46
 643 1002 643 1002 698 1019 c 0,47,48
 753 1036 753 1036 805 1036 c 0,49,50
 920 1036 920 1036 968 973 c 0,51,52
 1017 910 1017 910 992 768 c 0,53,-1
 881 176 l 0,54,55
 876 146 876 146 885 129 c 0,56,57
 895 112 895 112 911 102 c 0,58,59
 927 93 927 93 944 91 c 0,60,61
 961 88 961 88 971 88 c 0,62,63
 1000 88 1000 88 1033 96 c 0,64,65
 1067 104 1067 104 1103 116 c 0,66,-1
 1105 42 l 0,0,1
EndSplineSet
EndChar

StartChar: o
Encoding: 82 111 82
Width: 1060
VWidth: 1024
Flags: W
LayerCount: 2
Fore
SplineSet
996 629 m 0,0,1
 996 544 996 544 977 462 c 0,2,3
 958 381 958 381 923 308 c 0,4,5
 888 235 888 235 838 175 c 0,6,7
 788 114 788 114 727 69 c 0,8,9
 665 24 665 24 592 -1 c 0,10,11
 519 -26 519 -26 438 -26 c 0,12,13
 352 -26 352 -26 283 2 c 0,14,15
 213 30 213 30 165 81 c 0,16,17
 117 133 117 133 91 206 c 0,18,19
 65 279 65 279 65 371 c 0,20,21
 65 456 65 456 83 538 c 0,22,23
 101 620 101 620 136 694 c 0,24,25
 170 768 170 768 219 831 c 0,26,27
 268 894 268 894 330 940 c 0,28,29
 392 986 392 986 465 1011 c 0,30,31
 538 1037 538 1037 621 1036 c 0,32,33
 697 1036 697 1036 764 1013 c 0,34,35
 832 989 832 989 884 939 c 0,36,37
 936 889 936 889 966 812 c 0,38,39
 996 735 996 735 996 629 c 0,0,1
784 638 m 0,40,41
 784 713 784 713 770 770 c 0,42,43
 756 827 756 827 731 866 c 0,44,45
 706 905 706 905 672 926 c 0,46,47
 638 946 638 946 598 946 c 0,48,49
 529 946 529 946 471 897 c 0,50,51
 412 847 412 847 369 766 c 0,52,53
 326 686 326 686 301 585 c 0,54,55
 276 484 276 484 276 382 c 0,56,57
 276 304 276 304 291 246 c 0,58,59
 305 188 305 188 331 148 c 0,60,61
 357 109 357 109 390 89 c 0,62,63
 424 70 424 70 464 70 c 0,64,65
 513 70 513 70 557 95 c 0,66,67
 601 120 601 120 635 162 c 0,68,69
 670 204 670 204 698 261 c 0,70,71
 726 317 726 317 745 380 c 0,72,73
 764 443 764 443 775 510 c 0,74,75
 784 577 784 577 784 638 c 0,40,41
EndSplineSet
EndChar

StartChar: p
Encoding: 83 112 83
Width: 1036
VWidth: 1024
Flags: W
LayerCount: 2
Fore
SplineSet
969 648 m 0,0,1
 969 562 969 562 948 479 c 0,2,3
 928 396 928 396 889 321 c 0,4,5
 851 246 851 246 797 182 c 0,6,7
 743 119 743 119 676 73 c 0,8,9
 609 27 609 27 531 1 c 0,10,11
 453 -25 453 -25 369 -26 c 0,12,13
 322 -26 322 -26 284 -12 c 0,14,15
 246 1 246 1 220 12 c 0,16,-1
 154 -325 l 0,17,18
 150 -342 150 -342 158 -353 c 0,19,20
 167 -364 167 -364 195 -367 c 0,21,-1
 327 -378 l 0,22,-1
 327 -457 l 0,23,-1
 -202 -457 l 0,24,-1
 -202 -378 l 0,25,-1
 -92 -367 l 0,26,27
 -48 -364 -48 -364 -42 -325 c 0,28,-1
 195 891 l 0,29,-1
 18 910 l 0,30,-1
 18 971 l 0,31,-1
 336 1036 l 0,32,-1
 418 1036 l 0,33,-1
 392 906 l 0,34,35
 419 923 419 923 453 946 c 0,36,37
 487 969 487 969 526 989 c 0,38,39
 565 1009 565 1009 608 1022 c 0,40,41
 650 1036 650 1036 694 1036 c 0,42,43
 774 1036 774 1036 827 1002 c 0,44,45
 880 968 880 968 911 912 c 0,46,47
 942 857 942 857 955 787 c 0,48,49
 969 718 969 718 969 648 c 0,0,1
761 640 m 0,50,51
 761 686 761 686 751 734 c 0,52,53
 741 782 741 782 721 820 c 0,54,55
 701 859 701 859 671 884 c 0,56,57
 640 909 640 909 598 908 c 0,58,59
 560 908 560 908 522 891 c 0,60,61
 484 874 484 874 453 854 c 0,62,63
 422 833 422 833 399 813 c 0,64,65
 376 793 376 793 369 786 c 0,66,-1
 244 136 l 0,67,68
 253 131 253 131 270 120 c 0,69,70
 287 109 287 109 309 99 c 0,71,72
 332 89 332 89 357 81 c 0,73,74
 383 73 383 73 411 74 c 0,75,76
 468 74 468 74 516 99 c 0,77,78
 564 125 564 125 603 168 c 0,79,80
 642 212 642 212 672 269 c 0,81,82
 702 326 702 326 721 390 c 0,83,84
 740 453 740 453 751 517 c 0,85,86
 761 582 761 582 761 640 c 0,50,51
EndSplineSet
EndChar

StartChar: q
Encoding: 84 113 84
Width: 1093
VWidth: 1024
Flags: W
LayerCount: 2
Fore
SplineSet
761 -325 m 0,0,1
 758 -342 758 -342 766 -353 c 0,2,3
 775 -364 775 -364 803 -367 c 0,4,-1
 933 -378 l 0,5,-1
 933 -457 l 0,6,-1
 404 -457 l 0,7,-1
 404 -378 l 0,8,-1
 516 -367 l 0,9,10
 536 -365 536 -365 550 -355 c 0,11,12
 563 -345 563 -345 568 -325 c 0,13,-1
 654 112 l 0,14,15
 581 52 581 52 506 13 c 0,16,17
 430 -25 430 -25 356 -26 c 0,18,19
 293 -26 293 -26 240 -2 c 0,20,21
 187 22 187 22 149 71 c 0,22,23
 111 119 111 119 89 189 c 0,24,25
 67 260 67 260 68 354 c 0,26,27
 68 435 68 435 87 517 c 0,28,29
 106 599 106 599 142 675 c 0,30,31
 178 751 178 751 230 817 c 0,32,33
 282 883 282 883 348 931 c 0,34,35
 414 980 414 980 492 1008 c 0,36,37
 570 1036 570 1036 656 1036 c 0,38,39
 723 1036 723 1036 774 1017 c 0,40,41
 825 998 825 998 854 975 c 0,42,-1
 904 1036 l 0,43,-1
 1030 1036 l 0,44,-1
 761 -325 l 0,0,1
791 814 m 0,45,46
 793 825 793 825 781 846 c 0,47,48
 769 867 769 867 751 888 c 0,49,50
 733 909 733 909 714 925 c 0,51,52
 695 940 695 940 684 940 c 0,53,54
 598 940 598 940 523 896 c 0,55,56
 448 852 448 852 391 774 c 0,57,58
 335 696 335 696 303 591 c 0,59,60
 271 486 271 486 270 362 c 0,61,62
 270 303 270 303 282 255 c 0,63,64
 294 207 294 207 316 173 c 0,65,66
 338 139 338 139 370 121 c 0,67,68
 402 103 402 103 440 102 c 0,69,70
 472 102 472 102 503 114 c 0,71,72
 534 126 534 126 564 145 c 0,73,74
 593 164 593 164 622 188 c 0,75,76
 651 212 651 212 678 237 c 0,77,-1
 791 814 l 0,45,46
EndSplineSet
EndChar

StartChar: r
Encoding: 85 114 85
Width: 784
VWidth: 1024
Flags: W
LayerCount: 2
Fore
SplineSet
858 895 m 0,0,1
 858 858 858 858 845 836 c 0,2,3
 832 814 832 814 807 803 c 0,4,5
 782 792 782 792 748 788 c 0,6,7
 714 784 714 784 671 784 c 0,8,-1
 621 885 l 0,9,10
 582 869 582 869 537 828 c 0,11,12
 492 788 492 788 453 736 c 0,13,14
 413 684 413 684 383 629 c 0,15,16
 353 574 353 574 344 528 c 0,17,-1
 234 0 l 0,18,-1
 40 0 l 0,19,-1
 220 891 l 0,20,-1
 44 910 l 0,21,-1
 44 971 l 0,22,-1
 360 1036 l 0,23,-1
 444 1036 l 0,24,-1
 400 824 l 0,25,26
 465 923 465 923 547 980 c 0,27,28
 629 1036 629 1036 724 1036 c 0,29,30
 762 1036 762 1036 787 1022 c 0,31,32
 813 1008 813 1008 829 987 c 0,33,34
 845 965 845 965 851 941 c 0,35,36
 858 917 858 917 858 895 c 0,0,1
EndSplineSet
EndChar

StartChar: s
Encoding: 86 115 86
Width: 776
VWidth: 1024
Flags: W
LayerCount: 2
Fore
SplineSet
732 904 m 0,0,1
 732 867 732 867 716 845 c 0,2,3
 700 823 700 823 676 811 c 0,4,5
 652 799 652 799 626 794 c 0,6,7
 600 789 600 789 581 788 c 0,8,-1
 486 916 l 0,9,10
 480 921 480 921 467 927 c 0,11,12
 454 933 454 933 434 933 c 0,13,14
 399 933 399 933 376 918 c 0,15,16
 352 903 352 903 337 881 c 0,17,18
 322 859 322 859 316 834 c 0,19,20
 310 809 310 809 310 788 c 0,21,22
 310 759 310 759 327 731 c 0,23,24
 343 702 343 702 370 672 c 0,25,26
 397 643 397 643 430 615 c 0,27,28
 463 587 463 587 497 560 c 0,29,30
 532 532 532 532 564 503 c 0,31,32
 596 474 596 474 622 443 c 0,33,34
 648 412 648 412 663 377 c 0,35,36
 678 342 678 342 678 304 c 0,37,38
 678 239 678 239 652 180 c 0,39,40
 626 121 626 121 575 75 c 0,41,42
 524 29 524 29 449 2 c 0,43,44
 374 -25 374 -25 276 -26 c 0,45,46
 200 -26 200 -26 145 -9 c 0,47,48
 90 8 90 8 54 35 c 0,49,50
 18 62 18 62 1 97 c 0,51,52
 -16 132 -16 132 -16 168 c 0,53,54
 -16 218 -16 218 14 249 c 0,55,56
 44 280 44 280 109 281 c 0,57,58
 128 281 128 281 145 275 c 0,59,60
 162 270 162 270 177 264 c 0,61,62
 191 257 191 257 202 249 c 0,63,64
 213 241 213 241 218 237 c 0,65,-1
 178 134 l 0,66,67
 201 102 201 102 234 80 c 0,68,69
 267 58 267 58 321 58 c 0,70,71
 353 58 353 58 382 71 c 0,72,73
 412 83 412 83 435 105 c 0,74,75
 458 128 458 128 471 160 c 0,76,77
 484 192 484 192 484 232 c 0,78,79
 484 264 484 264 472 292 c 0,80,81
 459 320 459 320 436 347 c 0,82,83
 413 374 413 374 381 400 c 0,84,85
 350 426 350 426 312 455 c 0,86,87
 279 481 279 481 249 510 c 0,88,89
 219 540 219 540 195 573 c 0,90,91
 171 606 171 606 157 643 c 0,92,93
 143 680 143 680 142 719 c 0,94,95
 142 796 142 796 177 855 c 0,96,97
 212 914 212 914 267 955 c 0,98,99
 322 995 322 995 389 1016 c 0,100,101
 456 1036 456 1036 520 1036 c 0,102,103
 579 1036 579 1036 620 1022 c 0,104,105
 660 1008 660 1008 686 989 c 0,106,107
 711 969 711 969 721 946 c 0,108,109
 732 922 732 922 732 904 c 0,0,1
EndSplineSet
EndChar

StartChar: t
Encoding: 87 116 87
Width: 628
VWidth: 1024
Flags: W
LayerCount: 2
Fore
SplineSet
424 879 m 0,0,-1
 292 220 l 0,1,2
 286 192 286 192 294 170 c 0,3,4
 302 148 302 148 320 134 c 0,5,6
 338 119 338 119 362 111 c 0,7,8
 386 103 386 103 413 102 c 0,9,10
 443 102 443 102 474 108 c 0,11,12
 506 114 506 114 535 122 c 0,13,14
 564 130 564 130 589 139 c 0,15,16
 614 148 614 148 631 154 c 0,17,-1
 631 70 l 0,18,19
 618 64 618 64 580 48 c 0,20,21
 542 33 542 33 493 16 c 0,22,23
 444 0 444 0 389 -13 c 0,24,25
 335 -26 335 -26 290 -26 c 0,26,27
 233 -26 233 -26 195 -12 c 0,28,29
 157 2 157 2 134 26 c 0,30,31
 111 50 111 50 102 83 c 0,32,33
 92 116 92 116 92 156 c 0,34,35
 92 176 92 176 94 198 c 0,36,37
 96 220 96 220 100 242 c 0,38,-1
 228 879 l 0,39,-1
 96 866 l 0,40,-1
 96 935 l 0,41,-1
 254 1005 l 0,42,-1
 356 1214 l 0,43,-1
 484 1214 l 0,44,-1
 442 975 l 0,45,-1
 732 975 l 0,46,-1
 732 879 l 0,47,-1
 424 879 l 0,0,-1
EndSplineSet
EndChar

StartChar: u
Encoding: 88 117 88
Width: 1103
VWidth: 1024
Flags: W
LayerCount: 2
Fore
SplineSet
1099 50 m 0,0,1
 1080 39 1080 39 1045 26 c 0,2,3
 1011 13 1011 13 971 1 c 0,4,5
 931 -10 931 -10 889 -18 c 0,6,7
 848 -26 848 -26 814 -26 c 0,8,9
 755 -26 755 -26 726 -6 c 0,10,11
 697 14 697 14 687 40 c 0,12,13
 676 66 676 66 677 93 c 0,14,15
 678 120 678 120 678 132 c 0,16,17
 595 53 595 53 504 14 c 0,18,19
 413 -25 413 -25 308 -26 c 0,20,21
 235 -26 235 -26 189 0 c 0,22,23
 143 26 143 26 120 65 c 0,24,25
 96 104 96 104 91 150 c 0,26,27
 86 196 86 196 94 237 c 0,28,-1
 230 891 l 0,29,-1
 54 910 l 0,30,-1
 54 971 l 0,31,-1
 371 1036 l 0,32,-1
 457 1036 l 0,33,-1
 290 237 l 0,34,35
 284 210 284 210 292 186 c 0,36,37
 301 162 301 162 318 144 c 0,38,39
 335 126 335 126 356 115 c 0,40,41
 378 104 378 104 398 104 c 0,42,43
 436 104 436 104 475 115 c 0,44,45
 513 126 513 126 551 144 c 0,46,47
 589 162 589 162 624 187 c 0,48,49
 659 211 659 211 688 239 c 0,50,-1
 847 1011 l 0,51,-1
 1042 1011 l 0,52,-1
 874 204 l 0,53,54
 867 171 867 171 874 149 c 0,55,56
 881 127 881 127 897 113 c 0,57,58
 912 99 912 99 930 92 c 0,59,60
 949 86 949 86 967 86 c 0,61,62
 987 86 987 86 1021 92 c 0,63,64
 1055 98 1055 98 1099 124 c 0,65,-1
 1099 50 l 0,0,1
EndSplineSet
EndChar

StartChar: v
Encoding: 89 118 89
Width: 968
VWidth: 1024
Flags: W
LayerCount: 2
Fore
SplineSet
979 910 m 0,0,1
 979 883 979 883 974 860 c 0,2,3
 969 836 969 836 962 816 c 0,4,5
 955 796 955 796 948 779 c 0,6,7
 940 763 940 763 935 753 c 0,8,9
 865 624 865 624 785 506 c 0,10,11
 705 388 705 388 629 288 c 0,12,13
 552 188 552 188 483 108 c 0,14,15
 414 28 414 28 367 -26 c 0,16,-1
 246 -26 l 0,17,18
 268 20 268 20 279 60 c 0,19,20
 290 99 290 99 288 134 c 0,21,22
 288 137 288 137 286 165 c 0,23,24
 284 193 284 193 280 238 c 0,25,26
 276 283 276 283 271 340 c 0,27,28
 266 397 266 397 260 459 c 0,29,30
 254 520 254 520 247 582 c 0,31,32
 240 644 240 644 233 698 c 0,33,34
 225 752 225 752 218 793 c 0,35,36
 210 834 210 834 202 856 c 0,37,38
 192 878 192 878 181 888 c 0,39,40
 171 898 171 898 154 898 c 0,41,-1
 4 906 l 0,42,-1
 4 967 l 0,43,-1
 228 1036 l 0,44,45
 314 1034 314 1034 353 998 c 0,46,47
 392 962 392 962 400 887 c 0,48,-1
 466 242 l 0,49,50
 519 312 519 312 564 374 c 0,51,52
 609 437 609 437 647 497 c 0,53,54
 684 556 684 556 715 615 c 0,55,56
 746 674 746 674 770 736 c 0,57,-1
 730 990 l 0,58,59
 750 1010 750 1010 781 1023 c 0,60,61
 812 1036 812 1036 851 1036 c 0,62,63
 919 1036 919 1036 949 1002 c 0,64,65
 979 967 979 967 979 910 c 0,0,1
EndSplineSet
EndChar

StartChar: w
Encoding: 90 119 90
Width: 1472
VWidth: 1024
Flags: W
LayerCount: 2
Fore
SplineSet
1481 912 m 0,0,1
 1481 868 1481 868 1458 807 c 0,2,3
 1435 746 1435 746 1399 674 c 0,4,5
 1362 603 1362 603 1314 526 c 0,6,7
 1266 449 1266 449 1215 375 c 0,8,9
 1164 300 1164 300 1115 232 c 0,10,11
 1065 164 1065 164 1024 110 c 0,12,13
 983 56 983 56 955 19 c 0,14,15
 927 -17 927 -17 919 -26 c 0,16,-1
 788 -26 l 0,17,-1
 742 690 l 0,18,19
 696 591 696 591 646 492 c 0,20,21
 596 393 596 393 546 301 c 0,22,23
 496 209 496 209 447 125 c 0,24,25
 398 42 398 42 354 -26 c 0,26,-1
 200 -26 l 0,27,-1
 220 24 l 0,28,-1
 162 889 l 0,29,-1
 4 906 l 0,30,-1
 4 965 l 0,31,-1
 258 1036 l 0,32,-1
 352 1030 l 0,33,-1
 398 246 l 0,34,35
 439 321 439 321 484 411 c 0,36,37
 529 501 529 501 575 596 c 0,38,39
 621 692 621 692 667 791 c 0,40,41
 712 890 712 890 753 984 c 0,42,-1
 910 1002 l 0,43,-1
 963 204 l 0,44,45
 1060 329 1060 329 1134 461 c 0,46,47
 1208 593 1208 593 1271 738 c 0,48,-1
 1229 984 l 0,49,50
 1233 988 1233 988 1243 997 c 0,51,52
 1253 1006 1253 1006 1269 1014 c 0,53,54
 1285 1023 1285 1023 1307 1030 c 0,55,56
 1329 1037 1329 1037 1355 1036 c 0,57,58
 1393 1036 1393 1036 1417 1021 c 0,59,60
 1441 1006 1441 1006 1455 987 c 0,61,62
 1469 967 1469 967 1475 946 c 0,63,64
 1481 924 1481 924 1481 912 c 0,0,1
EndSplineSet
EndChar

StartChar: x
Encoding: 91 120 91
Width: 1105
VWidth: 1024
Flags: W
LayerCount: 2
Fore
SplineSet
1130 912 m 0,0,1
 1130 871 1130 871 1103 834 c 0,2,3
 1076 797 1076 797 1015 776 c 0,4,-1
 923 858 l 0,5,6
 895 847 895 847 861 818 c 0,7,8
 827 789 827 789 792 743 c 0,9,10
 757 697 757 697 722 637 c 0,11,12
 687 577 687 577 656 504 c 0,13,14
 662 485 662 485 671 455 c 0,15,16
 680 426 680 426 691 392 c 0,17,18
 702 358 702 358 715 321 c 0,19,20
 728 285 728 285 742 252 c 0,21,22
 757 218 757 218 775 188 c 0,23,24
 792 158 792 158 810 136 c 0,25,26
 828 113 828 113 847 101 c 0,27,28
 866 88 866 88 885 88 c 0,29,30
 909 88 909 88 935 93 c 0,31,32
 962 98 962 98 1005 118 c 0,33,-1
 1005 42 l 0,34,35
 945 10 945 10 885 -8 c 0,36,37
 826 -26 826 -26 759 -26 c 0,38,39
 724 -26 724 -26 694 -7 c 0,40,41
 664 12 664 12 639 43 c 0,42,43
 614 74 614 74 593 114 c 0,44,45
 572 154 572 154 556 198 c 0,46,47
 540 241 540 241 527 284 c 0,48,49
 514 327 514 327 506 362 c 0,50,51
 476 307 476 307 438 240 c 0,52,53
 400 173 400 173 350 114 c 0,54,55
 301 55 301 55 241 14 c 0,56,57
 181 -26 181 -26 109 -26 c 0,58,59
 44 -26 44 -26 3 5 c 0,60,61
 -38 35 -38 35 -38 90 c 0,62,63
 -38 141 -38 141 -5 172 c 0,64,65
 28 203 28 203 92 214 c 0,66,-1
 180 130 l 0,67,68
 212 149 212 149 247 183 c 0,69,70
 282 217 282 217 319 265 c 0,71,72
 355 313 355 313 390 374 c 0,73,74
 424 435 424 435 453 510 c 0,75,76
 448 530 448 530 436 566 c 0,77,78
 425 602 425 602 409 643 c 0,79,80
 393 683 393 683 376 725 c 0,81,82
 359 767 359 767 342 801 c 0,83,84
 326 835 326 835 312 858 c 0,85,86
 299 880 299 880 292 881 c 0,87,-1
 109 904 l 0,88,-1
 109 961 l 0,89,90
 118 964 118 964 138 970 c 0,91,92
 158 977 158 977 185 986 c 0,93,94
 211 995 211 995 239 1003 c 0,95,96
 267 1012 267 1012 292 1019 c 0,97,98
 317 1027 317 1027 335 1032 c 0,99,100
 353 1037 353 1037 360 1036 c 0,101,102
 397 1036 397 1036 430 1010 c 0,103,104
 463 983 463 983 492 932 c 0,105,106
 521 881 521 881 547 807 c 0,107,108
 573 733 573 733 598 638 c 0,109,110
 629 697 629 697 671 767 c 0,111,112
 713 837 713 837 765 897 c 0,113,114
 816 957 816 957 876 996 c 0,115,116
 936 1036 936 1036 1002 1036 c 0,117,118
 1059 1036 1059 1036 1095 1002 c 0,119,120
 1130 967 1130 967 1130 912 c 0,0,1
EndSplineSet
EndChar

StartChar: y
Encoding: 92 121 92
Width: 1042
VWidth: 1024
Flags: W
LayerCount: 2
Fore
SplineSet
994 866 m 0,0,1
 982 854 982 854 958 821 c 0,2,3
 934 788 934 788 910 748 c 0,4,5
 885 707 885 707 861 663 c 0,6,7
 837 619 837 619 822 587 c 0,8,9
 799 537 799 537 770 465 c 0,10,11
 740 393 740 393 702 311 c 0,12,13
 665 229 665 229 621 140 c 0,14,15
 577 51 577 51 526 -34 c 0,16,17
 477 -117 477 -117 421 -197 c 0,18,19
 365 -277 365 -277 303 -340 c 0,20,21
 241 -403 241 -403 172 -442 c 0,22,23
 103 -480 103 -480 28 -480 c 0,24,25
 -29 -480 -29 -480 -68 -466 c 0,26,27
 -106 -452 -106 -452 -128 -431 c 0,28,29
 -151 -410 -151 -410 -159 -386 c 0,30,31
 -168 -362 -168 -362 -168 -342 c 0,32,33
 -168 -318 -168 -318 -157 -296 c 0,34,35
 -146 -274 -146 -274 -127 -258 c 0,36,37
 -108 -241 -108 -241 -81 -230 c 0,38,39
 -54 -220 -54 -220 -24 -218 c 0,40,-1
 98 -340 l 0,41,42
 131 -337 131 -337 163 -314 c 0,43,44
 195 -291 195 -291 230 -245 c 0,45,46
 265 -199 265 -199 307 -129 c 0,47,48
 349 -59 349 -59 402 38 c 0,49,50
 400 50 400 50 392 93 c 0,51,52
 384 135 384 135 372 196 c 0,53,54
 360 257 360 257 346 331 c 0,55,56
 331 405 331 405 314 480 c 0,57,58
 298 554 298 554 280 628 c 0,59,60
 262 702 262 702 245 762 c 0,61,62
 228 821 228 821 215 859 c 0,63,64
 202 897 202 897 195 898 c 0,65,-1
 4 912 l 0,66,-1
 4 965 l 0,67,-1
 33 974 l 0,68,69
 53 981 53 981 78 989 c 0,70,71
 103 997 103 997 130 1005 c 0,72,73
 158 1014 158 1014 182 1020 c 0,74,75
 207 1027 207 1027 227 1032 c 0,76,77
 247 1037 247 1037 256 1036 c 0,78,79
 290 1036 290 1036 315 1020 c 0,80,81
 341 1004 341 1004 361 975 c 0,82,83
 381 945 381 945 398 904 c 0,84,85
 415 863 415 863 430 810 c 0,86,87
 457 717 457 717 485 579 c 0,88,89
 514 441 514 441 545 272 c 0,90,-1
 864 1036 l 0,91,-1
 925 1036 l 0,92,-1
 1099 979 l 0,93,-1
 1099 931 l 0,94,-1
 994 866 l 0,0,1
EndSplineSet
EndChar

StartChar: z
Encoding: 93 122 93
Width: 931
VWidth: 1024
Flags: W
LayerCount: 2
Fore
SplineSet
232 148 m 0,0,-1
 409 195 l 0,1,2
 431 187 431 187 458 175 c 0,3,4
 486 163 486 163 515 152 c 0,5,6
 544 141 544 141 571 132 c 0,7,8
 599 124 599 124 621 124 c 0,9,10
 644 124 644 124 660 131 c 0,11,12
 677 138 677 138 690 147 c 0,13,14
 703 157 703 157 713 169 c 0,15,16
 723 181 723 181 732 193 c 0,17,-1
 616 321 l 0,18,19
 626 339 626 339 641 354 c 0,20,21
 655 369 655 369 671 379 c 0,22,23
 687 389 687 389 703 395 c 0,24,25
 719 401 719 401 734 400 c 0,26,27
 763 400 763 400 785 389 c 0,28,29
 807 377 807 377 822 358 c 0,30,31
 837 340 837 340 846 316 c 0,32,33
 854 292 854 292 854 270 c 0,34,35
 854 207 854 207 826 153 c 0,36,37
 798 99 798 99 753 59 c 0,38,39
 708 20 708 20 655 -3 c 0,40,41
 601 -26 601 -26 550 -26 c 0,42,43
 502 -26 502 -26 458 -12 c 0,44,45
 414 2 414 2 374 19 c 0,46,47
 334 36 334 36 295 50 c 0,48,49
 256 64 256 64 218 65 c 0,50,51
 210 65 210 65 194 61 c 0,52,53
 178 58 178 58 164 44 c 0,54,-1
 112 -54 l 0,55,-1
 -34 24 l 0,56,-1
 678 856 l 0,57,-1
 493 816 l 0,58,59
 450 840 450 840 403 858 c 0,60,61
 357 876 357 876 314 877 c 0,62,63
 301 877 301 877 285 872 c 0,64,65
 269 868 269 868 253 861 c 0,66,67
 238 853 238 853 224 842 c 0,68,69
 210 831 210 831 202 816 c 0,70,-1
 312 682 l 0,71,72
 308 676 308 676 298 664 c 0,73,74
 288 652 288 652 273 641 c 0,75,76
 258 629 258 629 239 621 c 0,77,78
 220 613 220 613 198 612 c 0,79,80
 168 612 168 612 146 624 c 0,81,82
 124 636 124 636 110 654 c 0,83,84
 96 672 96 672 89 695 c 0,85,86
 82 717 82 717 82 736 c 0,87,88
 82 784 82 784 102 837 c 0,89,90
 122 890 122 890 160 934 c 0,91,92
 198 979 198 979 253 1008 c 0,93,94
 308 1037 308 1037 378 1036 c 0,95,96
 425 1036 425 1036 468 1020 c 0,97,98
 512 1004 512 1004 551 984 c 0,99,100
 590 964 590 964 625 947 c 0,101,102
 660 931 660 931 692 931 c 0,103,104
 698 931 698 931 710 933 c 0,105,106
 721 936 721 936 740 946 c 0,107,-1
 786 1063 l 0,108,-1
 944 981 l 0,109,-1
 232 148 l 0,0,-1
EndSplineSet
EndChar

StartChar: braceleft
Encoding: 94 123 94
Width: 1017
VWidth: 1024
Flags: W
LayerCount: 2
Fore
SplineSet
1057 1386 m 0,0,1
 972 1386 972 1386 916 1366 c 0,2,3
 861 1346 861 1346 826 1313 c 0,4,5
 790 1279 790 1279 771 1233 c 0,6,7
 751 1187 751 1187 738 1135 c 0,8,9
 726 1083 726 1083 717 1026 c 0,10,11
 708 970 708 970 695 915 c 0,12,13
 682 861 682 861 660 812 c 0,14,15
 638 762 638 762 598 722 c 0,16,17
 563 689 563 689 510 660 c 0,18,19
 457 631 457 631 378 610 c 0,20,21
 425 594 425 594 460 576 c 0,22,23
 495 558 495 558 520 535 c 0,24,25
 553 504 553 504 567 464 c 0,26,27
 581 424 581 424 582 379 c 0,28,29
 583 334 583 334 575 285 c 0,30,31
 567 236 567 236 557 187 c 0,32,33
 547 138 547 138 538 91 c 0,34,35
 529 44 529 44 526 3 c 0,36,37
 524 -38 524 -38 533 -72 c 0,38,39
 542 -106 542 -106 568 -128 c 0,40,41
 584 -142 584 -142 606 -151 c 0,42,43
 628 -159 628 -159 652 -163 c 0,44,45
 676 -168 676 -168 702 -169 c 0,46,47
 728 -170 728 -170 753 -170 c 0,48,-1
 736 -258 l 0,49,50
 679 -258 679 -258 626 -255 c 0,51,52
 573 -252 573 -252 527 -244 c 0,53,54
 481 -235 481 -235 444 -218 c 0,55,56
 407 -201 407 -201 380 -172 c 0,57,58
 350 -140 350 -140 339 -98 c 0,59,60
 328 -56 328 -56 328 -9 c 0,61,62
 329 38 329 38 337 89 c 0,63,64
 346 140 346 140 357 190 c 0,65,66
 368 241 368 241 377 290 c 0,67,68
 387 339 387 339 389 382 c 0,69,70
 391 425 391 425 380 461 c 0,71,72
 370 497 370 497 344 520 c 0,73,74
 326 537 326 537 300 546 c 0,75,76
 274 554 274 554 245 557 c 0,77,78
 216 560 216 560 184 560 c 0,79,-1
 122 560 l 0,80,-1
 140 656 l 0,81,82
 183 656 183 656 222 657 c 0,83,84
 260 658 260 658 293 665 c 0,85,86
 326 671 326 671 354 684 c 0,87,88
 382 697 382 697 404 719 c 0,89,90
 443 756 443 756 464 810 c 0,91,92
 485 865 485 865 498 928 c 0,93,94
 511 990 511 990 522 1057 c 0,95,96
 533 1124 533 1124 552 1188 c 0,97,98
 571 1251 571 1251 604 1306 c 0,99,100
 637 1361 637 1361 694 1399 c 0,101,102
 759 1443 759 1443 851 1459 c 0,103,104
 944 1475 944 1475 1072 1475 c 0,105,-1
 1057 1386 l 0,0,1
EndSplineSet
EndChar

StartChar: bar
Encoding: 95 124 95
Width: 741
VWidth: 1024
Flags: W
LayerCount: 2
Fore
SplineSet
307 -541 m 0,0,-1
 307 1669 l 0,1,-1
 434 1669 l 0,2,-1
 434 -541 l 0,3,-1
 307 -541 l 0,0,-1
EndSplineSet
EndChar

StartChar: braceright
Encoding: 96 125 96
Width: 1017
VWidth: 1024
Flags: W
LayerCount: 2
Fore
SplineSet
900 560 m 0,0,1
 857 560 857 560 819 559 c 0,2,3
 781 557 781 557 747 551 c 0,4,5
 714 545 714 545 686 532 c 0,6,7
 658 519 658 519 636 497 c 0,8,9
 597 460 597 460 577 406 c 0,10,11
 557 352 557 352 543 289 c 0,12,13
 530 227 530 227 519 159 c 0,14,15
 508 91 508 91 489 28 c 0,16,17
 470 -35 470 -35 437 -90 c 0,18,19
 404 -145 404 -145 348 -182 c 0,20,21
 281 -227 281 -227 189 -243 c 0,22,23
 96 -258 96 -258 -32 -258 c 0,24,-1
 -16 -170 l 0,25,26
 69 -170 69 -170 124 -150 c 0,27,28
 180 -130 180 -130 216 -96 c 0,29,30
 252 -62 252 -62 271 -16 c 0,31,32
 290 30 290 30 303 82 c 0,33,34
 315 135 315 135 323 191 c 0,35,36
 331 247 331 247 344 302 c 0,37,38
 357 356 357 356 380 406 c 0,39,40
 403 456 403 456 442 495 c 0,41,42
 477 530 477 530 530 558 c 0,43,44
 583 586 583 586 663 608 c 0,45,46
 569 636 569 636 522 682 c 0,47,48
 478 723 478 723 467 780 c 0,49,50
 456 837 456 837 462 900 c 0,51,52
 468 963 468 963 484 1030 c 0,53,54
 500 1097 500 1097 509 1157 c 0,55,56
 518 1217 518 1217 514 1266 c 0,57,58
 509 1315 509 1315 474 1345 c 0,59,60
 457 1359 457 1359 435 1367 c 0,61,62
 413 1375 413 1375 389 1380 c 0,63,64
 365 1385 365 1385 338 1385 c 0,65,66
 312 1386 312 1386 288 1386 c 0,67,-1
 306 1475 l 0,68,69
 362 1475 362 1475 415 1472 c 0,70,71
 467 1469 467 1469 513 1460 c 0,72,73
 559 1451 559 1451 596 1434 c 0,74,75
 634 1417 634 1417 660 1389 c 0,76,77
 699 1346 699 1346 708 1287 c 0,78,79
 716 1228 716 1228 708 1161 c 0,80,81
 700 1094 700 1094 683 1026 c 0,82,83
 667 957 667 957 658 894 c 0,84,85
 649 831 649 831 655 780 c 0,86,87
 661 728 661 728 696 696 c 0,88,89
 714 679 714 679 740 671 c 0,90,91
 766 663 766 663 795 659 c 0,92,93
 824 656 824 656 856 656 c 0,94,-1
 919 656 l 0,95,-1
 900 560 l 0,0,1
EndSplineSet
EndChar

StartChar: asciitilde
Encoding: 97 126 97
Width: 1746
VWidth: 1024
Flags: W
LayerCount: 2
Fore
SplineSet
791 321 m 0,0,1
 761 300 761 300 734 286 c 0,2,3
 708 272 708 272 684 263 c 0,4,5
 660 254 660 254 638 251 c 0,6,7
 616 247 616 247 593 247 c 0,8,9
 556 247 556 247 519 258 c 0,10,11
 482 269 482 269 445 283 c 0,12,13
 408 296 408 296 369 307 c 0,14,15
 331 318 331 318 290 318 c 0,16,17
 250 318 250 318 201 296 c 0,18,19
 152 274 152 274 99 236 c 0,20,-1
 99 304 l 0,21,22
 155 344 155 344 205 361 c 0,23,24
 255 378 255 378 298 378 c 0,25,26
 336 378 336 378 374 367 c 0,27,28
 412 356 412 356 450 343 c 0,29,30
 487 330 487 330 524 319 c 0,31,32
 560 308 560 308 594 308 c 0,33,34
 613 308 613 308 635 312 c 0,35,36
 656 316 656 316 680 326 c 0,37,38
 704 335 704 335 731 351 c 0,39,40
 758 366 758 366 791 389 c 0,41,-1
 791 321 l 0,0,1
EndSplineSet
EndChar

StartChar: inherent
Encoding: 103 -1 98
Width: 333
Flags: W
LayerCount: 2
Fore
SplineSet
655 1509 m 1,0,1
 630 1380 630 1380 512 1294 c 1,2,3
 397 1204 397 1204 258 1204 c 1,4,-1
 301 1399 l 1,5,6
 348 1399 348 1399 381 1432 c 1,7,8
 424 1465 424 1465 432 1507 c 2,9,-1
 461 1647 l 1,10,-1
 684 1647 l 1,11,-1
 655 1509 l 1,0,1
EndSplineSet
EndChar

StartChar: makewide
Encoding: 104 -1 99
Width: 675
Flags: W
LayerCount: 2
Fore
SplineSet
930 268 m 2,0,1
 905 159 905 159 825 79.5 c 128,-1,2
 745 0 745 0 651 0 c 2,3,-1
 360 0 l 2,4,5
 266 0 266 0 186 57.5 c 128,-1,6
 106 115 106 115 55 211 c 1,7,-1
 123 530 l 1,8,9
 162 376 162 376 248 287 c 1,10,11
 338 197 338 197 438 197 c 2,12,-1
 621 197 l 2,13,14
 652 197 652 197 676 229 c 0,15,16
 690 245 690 245 697.5 260.5 c 128,-1,17
 705 276 705 276 713 305 c 1,18,-1
 864 1022 l 2,19,20
 868 1051 868 1051 868 1065 c 0,21,22
 868 1112 868 1112 837.5 1156 c 128,-1,23
 807 1200 807 1200 733 1200 c 2,24,-1
 539 1200 l 1,25,-1
 582 1395 l 1,26,-1
 1028 1395 l 1,27,-1
 1038 1200 l 1,28,29
 1091 1143 1091 1143 1092 1067 c 0,30,31
 1092 1044 1092 1044 1090 1034 c 2,32,-1
 930 268 l 2,0,1
EndSplineSet
EndChar

StartChar: shortrr
Encoding: 105 -1 100
Width: 1601
Flags: W
LayerCount: 2
Fore
SplineSet
1876 1204 m 1,0,-1
 942 1204 l 2,1,2
 905 1204 905 1204 869.5 1180.5 c 128,-1,3
 834 1157 834 1157 825 1124 c 2,4,-1
 793 956 l 2,5,6
 785 909 785 909 815 881 c 1,7,8
 846 848 846 848 893 848 c 2,9,-1
 1239 848 l 1,10,-1
 1200 653 l 1,11,-1
 854 653 l 2,12,13
 801 653 801 653 758 621 c 1,14,15
 713 592 713 592 705 545 c 2,16,-1
 659 336 l 1,17,18
 657 313 657 313 657 303 c 0,19,20
 657 285 657 285 671.5 252 c 128,-1,21
 686 219 686 219 715 211 c 1,22,-1
 883 211 l 1,23,-1
 844 16 l 1,24,-1
 592 16 l 2,25,26
 506 16 506 16 451 82 c 0,27,28
 414 127 414 127 414 188 c 0,29,30
 414 202 414 202 418 236 c 1,31,-1
 485 559 l 1,32,33
 495 631 495 631 559 686 c 128,-1,34
 623 741 623 741 705 756 c 1,35,36
 629 774 629 774 595 819 c 128,-1,37
 561 864 561 864 561 909 c 0,38,39
 561 923 561 923 565 946 c 2,40,-1
 616 1198 l 1,41,42
 639 1292 639 1292 719 1343 c 1,43,44
 799 1402 799 1402 901 1403 c 2,45,-1
 1917 1403 l 1,46,-1
 1876 1204 l 1,0,-1
EndSplineSet
EndChar

StartChar: anusvara
Encoding: 107 3202 101
Width: 1533
Flags: W
LayerCount: 2
Fore
SplineSet
1599 305 m 2,0,1
 1574 186 1574 186 1479 93 c 128,-1,2
 1384 0 1384 0 1284 0 c 2,3,-1
 668 0 l 2,4,5
 549 0 549 0 475 100 c 1,6,7
 428 172 428 172 428 256 c 0,8,9
 428 293 428 293 436 332 c 2,10,-1
 598 1106 l 2,11,12
 623 1225 623 1225 730.5 1309 c 128,-1,13
 838 1393 838 1393 967 1393 c 2,14,-1
 1528 1393 l 2,15,16
 1651 1393 1651 1393 1724 1303 c 1,17,18
 1771 1231 1771 1231 1772 1151 c 0,19,20
 1772 1118 1772 1118 1763 1079 c 2,21,-1
 1599 305 l 2,0,1
1386 352 m 1,22,-1
 1538 1063 l 2,23,24
 1540 1077 1540 1077 1540 1100 c 0,25,26
 1540 1137 1540 1137 1524 1161 c 1,27,28
 1493 1200 1493 1200 1446 1200 c 2,29,-1
 999 1200 l 2,30,31
 940 1200 940 1200 883 1163 c 1,32,33
 826 1120 826 1120 817 1077 c 2,34,-1
 664 350 l 2,35,36
 662 340 662 340 662 322 c 0,37,38
 662 283 662 283 692 244 c 1,39,40
 737 199 737 199 797 199 c 2,41,-1
 1231 199 l 2,42,43
 1282 199 1282 199 1329 246 c 128,-1,44
 1376 293 1376 293 1386 352 c 1,22,-1
EndSplineSet
EndChar

StartChar: u0C83
Encoding: 108 3203 102
Width: 991
Flags: W
LayerCount: 2
Fore
SplineSet
1249 950 m 2,0,1
 1233 870 1233 870 1164.5 813 c 128,-1,2
 1096 756 1096 756 1014 756 c 2,3,-1
 705 756 l 2,4,5
 615 756 615 756 563 817 c 0,6,7
 526 862 526 862 526 924 c 0,8,9
 526 949 526 949 528 963 c 2,10,-1
 573 1186 l 1,11,12
 596 1276 596 1276 672 1333.5 c 128,-1,13
 748 1391 748 1391 842 1391 c 2,14,-1
 1122 1391 l 2,15,16
 1179 1391 1179 1391 1225 1360 c 1,17,18
 1268 1337 1268 1337 1290 1278 c 0,19,20
 1300 1255 1300 1255 1300 1219 c 0,21,22
 1300 1205 1300 1205 1296 1171 c 1,23,-1
 1249 950 l 2,0,1
1096 221 m 2,24,25
 1078 131 1078 131 1012 65.5 c 128,-1,26
 946 0 946 0 872 0 c 2,27,-1
 547 0 l 2,28,29
 457 0 457 0 406 61 c 0,30,31
 367 108 367 108 367 168 c 0,32,33
 367 178 367 178 371 207 c 2,34,-1
 416 430 l 2,35,36
 434 518 434 518 514 577.5 c 128,-1,37
 594 637 594 637 682 637 c 2,38,-1
 963 637 l 2,39,40
 1057 637 1057 637 1104 569 c 1,41,42
 1137 518 1137 518 1137 457 c 0,43,44
 1137 441 1137 441 1133 408 c 1,45,-1
 1096 221 l 2,24,25
1038 1006 m 2,46,-1
 1063 1130 l 1,47,48
 1071 1159 1071 1159 1059 1178.5 c 128,-1,49
 1047 1198 1047 1198 1014 1198 c 2,50,-1
 885 1198 l 2,51,52
 856 1198 856 1198 825.5 1179.5 c 128,-1,53
 795 1161 795 1161 786 1130 c 2,54,-1
 764 1020 l 1,55,56
 760 989 760 989 778.5 969.5 c 128,-1,57
 797 950 797 950 825 950 c 2,58,-1
 965 950 l 2,59,60
 983 950 983 950 1008.5 966.5 c 128,-1,61
 1034 983 1034 983 1038 1006 c 2,46,-1
881 250 m 2,62,-1
 905 379 l 1,63,64
 913 410 913 410 905 426 c 256,65,66
 897 442 897 442 881 442 c 2,67,-1
 715 442 l 2,68,69
 684 442 684 442 660.5 427 c 128,-1,70
 637 412 637 412 633 389 c 2,71,-1
 608 266 l 1,72,73
 606 237 606 237 614 215 c 1,74,75
 628 192 628 192 647 193 c 2,76,-1
 815 193 l 2,77,78
 838 193 838 193 857.5 208 c 128,-1,79
 877 223 877 223 881 250 c 2,62,-1
EndSplineSet
EndChar

StartChar: avowel
Encoding: 109 3205 103
Width: 1990
Flags: W
LayerCount: 2
Fore
SplineSet
2116 281 m 2,0,1
 2091 166 2091 166 1992.5 83 c 128,-1,2
 1894 0 1894 0 1778 0 c 2,3,-1
 698 0 l 2,4,5
 569 0 569 0 494 86 c 1,6,7
 441 143 441 143 440 223 c 0,8,9
 440 260 440 260 444 279 c 2,10,-1
 621 1118 l 2,11,12
 646 1235 646 1235 744 1315 c 128,-1,13
 842 1395 842 1395 956 1395 c 2,14,-1
 1317 1395 l 1,15,-1
 1223 948 l 1,16,-1
 1004 948 l 1,17,-1
 1055 1200 l 1,18,-1
 969 1200 l 2,19,20
 924 1200 924 1200 885 1153 c 1,21,22
 840 1108 840 1108 825 1034 c 2,23,-1
 680 352 l 2,24,25
 678 342 678 342 678 324 c 0,26,27
 678 281 678 281 707 244 c 1,28,29
 758 199 758 199 815 199 c 2,30,-1
 1720 199 l 2,31,32
 1763 199 1763 199 1806 225.5 c 128,-1,33
 1849 252 1849 252 1880 297 c 1,34,35
 1896 326 1896 326 1904.5 344 c 128,-1,36
 1913 362 1913 362 1917 393 c 1,37,-1
 2064 1092 l 2,38,39
 2072 1135 2072 1135 2050 1171 c 1,40,41
 2019 1202 2019 1202 1976 1202 c 2,42,-1
 1890 1202 l 1,43,-1
 1860 1051 l 2,44,45
 1856 1022 1856 1022 1855 1012 c 0,46,47
 1855 926 1855 926 1956 840 c 1,48,-1
 1917 645 l 1,49,-1
 1077 645 l 1,50,-1
 1116 840 l 1,51,-1
 1704 840 l 1,52,53
 1632 930 1632 930 1632 1004 c 0,54,55
 1632 1022 1632 1022 1634 1030 c 2,56,-1
 1710 1393 l 1,57,-1
 2044 1393 l 2,58,59
 2132 1393 2132 1393 2189 1356 c 1,60,61
 2255 1323 2255 1323 2284 1264 c 1,62,63
 2300 1225 2300 1225 2300 1186 c 0,64,65
 2300 1153 2300 1153 2296 1137 c 2,66,-1
 2116 281 l 2,0,1
EndSplineSet
EndChar

StartChar: aavowel
Encoding: 110 3206 104
Width: 2131
Flags: W
LayerCount: 2
Fore
SplineSet
2413 1001 m 1,0,1
 2395 888 2395 888 2300.5 805.5 c 128,-1,2
 2206 723 2206 723 2105 723 c 2,3,-1
 2019 723 l 1,4,5
 2080 633 2080 633 2073 586 c 2,6,-1
 1997 213 l 2,7,8
 1979 125 1979 125 1892.5 62.5 c 128,-1,9
 1806 0 1806 0 1702 0 c 2,10,-1
 651 4 l 2,11,12
 542 4 542 4 483 86 c 0,13,14
 440 143 440 143 440 217 c 0,15,16
 440 248 440 248 449 281 c 2,17,-1
 625 1120 l 2,18,19
 650 1237 650 1237 765.5 1317 c 128,-1,20
 881 1397 881 1397 1018 1397 c 2,21,-1
 1298 1397 l 1,22,-1
 1204 950 l 1,23,-1
 981 950 l 1,24,-1
 1032 1202 l 1,25,-1
 987 1202 l 2,26,27
 940 1202 940 1202 895 1164 c 128,-1,28
 850 1126 850 1126 842 1081 c 2,29,-1
 688 354 l 2,30,31
 686 340 686 340 686 317 c 0,32,33
 686 274 686 274 705 244 c 1,34,35
 742 199 742 199 793 199 c 2,36,-1
 1632 199 l 2,37,38
 1689 199 1689 199 1741.5 246 c 128,-1,39
 1794 293 1794 293 1804 354 c 1,40,-1
 1855 588 l 1,41,42
 1865 645 1865 645 1810 727 c 1,43,-1
 1241 727 l 1,44,-1
 1280 922 l 1,45,-1
 1784 922 l 1,46,47
 1747 998 1747 998 1749 1026 c 1,48,-1
 1786 1194 l 2,49,50
 1802 1276 1802 1276 1886 1331 c 128,-1,51
 1970 1386 1970 1386 2075 1386 c 2,52,-1
 2255 1386 l 2,53,54
 2357 1386 2357 1386 2408 1319 c 1,55,56
 2451 1268 2451 1268 2451 1206 c 0,57,58
 2451 1190 2451 1190 2447 1157 c 1,59,-1
 2413 1001 l 1,0,1
2189 1018 m 1,60,-1
 2212 1114 l 2,61,62
 2214 1128 2214 1128 2214 1151 c 0,63,64
 2214 1196 2214 1196 2175 1196 c 2,65,-1
 2093 1196 l 2,66,67
 2060 1196 2060 1196 2027.5 1170.5 c 128,-1,68
 1995 1145 1995 1145 1993 1114 c 1,69,-1
 1978 1047 l 2,70,71
 1974 1024 1974 1024 1974 1014 c 0,72,73
 1974 989 1974 989 1981.5 972.5 c 128,-1,74
 1989 956 1989 956 2007 926 c 1,75,-1
 2101 926 l 2,76,77
 2132 926 2132 926 2157.5 951.5 c 128,-1,78
 2183 977 2183 977 2189 1018 c 1,60,-1
EndSplineSet
EndChar

StartChar: ivowel
Encoding: 111 3207 105
Width: 1607
Flags: W
LayerCount: 2
Fore
SplineSet
1663 0 m 1,0,-1
 1524 0 l 2,1,2
 1422 0 1422 0 1362 66 c 0,3,4
 1317 117 1317 117 1317 176 c 0,5,6
 1317 186 1317 186 1321 219 c 1,7,-1
 1350 358 l 1,8,-1
 1126 358 l 2,9,10
 1032 358 1032 358 981 412 c 0,11,12
 942 451 942 451 942 506 c 0,13,14
 942 524 942 524 944 535 c 2,15,-1
 975 686 l 2,16,17
 985 739 985 739 1053 784 c 1,18,19
 1127 823 1127 823 1206 823 c 2,20,-1
 1446 823 l 2,21,22
 1499 823 1499 823 1542 791 c 1,23,24
 1579 754 1579 754 1587 702 c 1,25,-1
 1669 1094 l 2,26,27
 1677 1139 1677 1139 1647 1161 c 1,28,29
 1622 1186 1622 1186 1563 1186 c 2,30,-1
 1411 1186 l 2,31,32
 1354 1186 1354 1186 1305.5 1150 c 128,-1,33
 1257 1114 1257 1114 1249 1075 c 2,34,-1
 1221 936 l 1,35,-1
 1001 936 l 1,36,-1
 1026 1065 l 2,37,38
 1036 1110 1036 1110 1002.5 1148 c 128,-1,39
 969 1186 969 1186 911 1186 c 2,40,-1
 725 1186 l 2,41,42
 674 1186 674 1186 631 1152 c 128,-1,43
 588 1118 588 1118 580 1075 c 2,44,-1
 551 936 l 2,45,46
 549 928 549 928 549 918.5 c 128,-1,47
 549 909 549 909 549 907 c 0,48,49
 549 878 549 878 565 862 c 1,50,51
 581 829 581 829 618 829 c 2,52,-1
 664 829 l 1,53,-1
 625 635 l 1,54,-1
 524 635 l 2,55,56
 420 635 420 635 358 715 c 0,57,58
 315 772 315 772 315 846 c 0,59,60
 315 879 315 879 319 897 c 2,61,-1
 362 1106 l 2,62,63
 378 1182 378 1182 432.5 1246.5 c 128,-1,64
 487 1311 487 1311 560 1346.5 c 128,-1,65
 633 1382 633 1382 713 1382 c 2,66,-1
 979 1382 l 2,67,68
 1059 1382 1059 1382 1114 1344.5 c 128,-1,69
 1169 1307 1169 1307 1169 1245 c 1,70,71
 1208 1311 1208 1311 1270 1343 c 1,72,73
 1327 1382 1327 1382 1395 1382 c 2,74,-1
 1647 1382 l 2,75,76
 1780 1382 1780 1382 1845 1300 c 1,77,78
 1896 1243 1896 1243 1896 1163 c 0,79,80
 1896 1130 1896 1130 1888 1098 c 2,81,-1
 1815 745 l 2,82,83
 1776 565 1776 565 1573 399 c 1,84,-1
 1544 260 l 1,85,86
 1536 235 1536 235 1552 211 c 1,87,88
 1575 188 1575 188 1593 188 c 2,89,-1
 1694 188 l 1,90,-1
 1663 0 l 1,0,-1
1378 551 m 1,91,-1
 1386 580 l 1,92,93
 1396 637 1396 637 1343 637 c 2,94,-1
 1214 637 l 2,95,96
 1198 637 1198 637 1186 627.5 c 128,-1,97
 1174 618 1174 618 1169 600 c 0,98,99
 1167 584 1167 584 1175.5 569.5 c 128,-1,100
 1184 555 1184 555 1198 555 c 2,101,-1
 1378 551 l 1,91,-1
EndSplineSet
EndChar

StartChar: iivowel
Encoding: 112 3208 106
Width: 2496
Flags: W
LayerCount: 2
Fore
SplineSet
2734 827 m 2,0,1
 2718 745 2718 745 2642 664 c 1,2,3
 2560 588 2560 588 2456 551 c 1,4,5
 2581 361 2581 361 2570 303 c 2,6,-1
 2542 164 l 1,7,8
 2526 98 2526 98 2480.5 53 c 128,-1,9
 2435 8 2435 8 2382 8 c 2,10,-1
 1925 8 l 1,11,-1
 1964 203 l 1,12,-1
 2255 203 l 2,13,14
 2280 203 2280 203 2310 225 c 1,15,16
 2339 254 2339 254 2341 276 c 1,17,-1
 2343 287 l 1,18,19
 2351 340 2351 340 2306 385 c 1,20,-1
 2204 537 l 1,21,-1
 1755 537 l 1,22,-1
 1698 274 l 2,23,24
 1673 165 1673 165 1582 85.5 c 128,-1,25
 1491 6 1491 6 1376 6 c 2,26,-1
 674 6 l 2,27,28
 584 6 584 6 526 78 c 0,29,30
 487 125 487 125 487 197 c 0,31,32
 487 211 487 211 492 244 c 1,33,-1
 553 535 l 1,34,-1
 334 535 l 1,35,-1
 373 729 l 1,36,-1
 592 729 l 1,37,-1
 631 911 l 1,38,39
 660 1058 660 1058 860 1202 c 1,40,-1
 666 1202 l 1,41,-1
 709 1397 l 1,42,-1
 1714 1397 l 2,43,44
 1753 1397 1753 1397 1778.5 1422.5 c 128,-1,45
 1804 1448 1804 1448 1812 1481 c 2,46,-1
 1835 1591 l 1,47,-1
 2060 1591 l 1,48,-1
 2038 1481 l 1,49,50
 2020 1379 2020 1379 1929 1296 c 1,51,52
 1847 1214 1847 1214 1729 1192 c 1,53,54
 1797 1139 1797 1139 1827 1079 c 0,55,56
 1841 1054 1841 1054 1846 1025.5 c 128,-1,57
 1851 997 1851 997 1847 973 c 2,58,-1
 1796 733 l 1,59,-1
 2087 733 l 1,60,61
 2048 778 2048 778 2048 840 c 0,62,63
 2048 865 2048 865 2056 897 c 2,64,-1
 2087 1051 l 1,65,66
 2110 1147 2110 1147 2185 1214 c 1,67,68
 2271 1282 2271 1282 2359 1282 c 2,69,-1
 2593 1282 l 2,70,71
 2695 1282 2695 1282 2746 1208 c 1,72,73
 2785 1161 2785 1161 2785 1087 c 0,74,75
 2785 1069 2785 1069 2781 1036 c 1,76,-1
 2734 827 l 2,0,1
2519 860 m 2,77,-1
 2550 1012 l 2,78,79
 2558 1045 2558 1045 2543.5 1068.5 c 128,-1,80
 2529 1092 2529 1092 2497 1092 c 2,81,-1
 2386 1092 l 2,82,83
 2357 1092 2357 1092 2333.5 1069.5 c 128,-1,84
 2310 1047 2310 1047 2308 1024 c 1,85,-1
 2275 858 l 2,86,87
 2267 821 2267 821 2284 791 c 1,88,-1
 2357 737 l 1,89,90
 2414 729 2414 729 2462.5 770 c 128,-1,91
 2511 811 2511 811 2519 860 c 2,77,-1
1571 737 m 1,92,-1
 1624 989 l 1,93,94
 1628 1022 1628 1022 1628 1038 c 0,95,96
 1628 1149 1628 1149 1532 1210 c 1,97,-1
 1098 1210 l 1,98,99
 895 1085 895 1085 862 928 c 2,100,-1
 819 733 l 1,101,-1
 1571 737 l 1,92,-1
1495 358 m 1,102,-1
 1532 539 l 1,103,-1
 778 539 l 1,104,-1
 733 330 l 2,105,106
 725 283 725 283 750.5 243 c 128,-1,107
 776 203 776 203 819 203 c 2,108,-1
 1319 203 l 2,109,110
 1372 203 1372 203 1423.5 246.5 c 128,-1,111
 1475 290 1475 290 1495 358 c 1,102,-1
EndSplineSet
EndChar

StartChar: uvowel
Encoding: 113 3209 107
Width: 2996
Flags: W
LayerCount: 2
Fore
SplineSet
3125 297 m 2,0,1
 3109 217 3109 217 3058 150 c 1,2,3
 3013 82 3013 82 2937 42 c 128,-1,4
 2861 2 2861 2 2787 2 c 2,5,-1
 2406 2 l 2,6,7
 2320 2 2320 2 2257.5 40 c 128,-1,8
 2195 78 2195 78 2165 150 c 1,9,10
 2149 197 2149 197 2148 248 c 0,11,12
 2148 260 2148 260 2152 293 c 1,13,-1
 2324 1104 l 2,14,15
 2332 1147 2332 1147 2309 1172.5 c 128,-1,16
 2286 1198 2286 1198 2243 1198 c 2,17,-1
 1880 1198 l 2,18,19
 1849 1198 1849 1198 1810 1174 c 1,20,21
 1777 1143 1777 1143 1769 1106 c 2,22,-1
 1595 279 l 2,23,24
 1577 199 1577 199 1527 137.5 c 128,-1,25
 1477 76 1477 76 1397 38 c 128,-1,26
 1317 0 1317 0 1231 0 c 2,27,-1
 727 0 l 2,28,29
 590 0 590 0 514 94 c 1,30,31
 457 160 457 160 457 248 c 0,32,33
 457 281 457 281 465 319 c 2,34,-1
 627 1087 l 2,35,36
 643 1169 643 1169 690 1241 c 1,37,38
 715 1274 715 1274 748.5 1302.5 c 128,-1,39
 782 1331 782 1331 815 1350 c 1,40,41
 895 1389 895 1389 963 1389 c 2,42,-1
 1380 1389 l 1,43,-1
 1294 989 l 2,44,45
 1269 874 1269 874 1183.5 797.5 c 128,-1,46
 1098 721 1098 721 997 721 c 2,47,-1
 846 721 l 1,48,-1
 885 915 l 1,49,-1
 979 915 l 2,50,51
 989 915 989 915 1004.5 920.5 c 128,-1,52
 1020 926 1020 926 1034 934 c 1,53,54
 1059 952 1059 952 1067 985 c 2,55,-1
 1110 1190 l 1,56,-1
 971 1190 l 2,57,58
 924 1190 924 1190 891 1157 c 1,59,60
 848 1124 848 1124 840 1081 c 2,61,-1
 678 313 l 2,62,63
 676 305 676 305 676 287 c 0,64,65
 676 250 676 250 694 227 c 0,66,67
 727 188 727 188 770 188 c 2,68,-1
 1245 188 l 2,69,70
 1290 188 1290 188 1323 219 c 128,-1,71
 1356 250 1356 250 1370 297 c 1,72,-1
 1538 1100 l 2,73,74
 1563 1223 1563 1223 1657 1303 c 1,75,76
 1751 1389 1751 1389 1862 1389 c 2,77,-1
 2308 1389 l 2,78,79
 2394 1389 2394 1389 2453.5 1351 c 128,-1,80
 2513 1313 2513 1313 2535 1253 c 1,81,82
 2543 1224 2543 1224 2545.5 1210 c 128,-1,83
 2548 1196 2548 1196 2548 1165 c 0,84,85
 2548 1149 2548 1149 2544 1116 c 1,86,-1
 2376 319 l 2,87,88
 2374 309 2374 309 2374 291 c 0,89,90
 2374 262 2374 262 2388 236 c 1,91,92
 2421 197 2421 197 2458 197 c 2,93,-1
 2775 197 l 2,94,95
 2820 197 2820 197 2853 227.5 c 128,-1,96
 2886 258 2886 258 2900 305 c 1,97,-1
 3066 1090 l 2,98,99
 3074 1127 3074 1127 3049 1149 c 1,100,101
 3033 1172 3033 1172 2986 1171 c 2,102,-1
 2947 1171 l 1,103,-1
 2994 1395 l 1,104,-1
 3117 1395 l 2,105,106
 3221 1395 3221 1395 3269 1321 c 1,107,108
 3306 1274 3306 1274 3305 1206 c 0,109,110
 3305 1167 3305 1167 3301 1149 c 2,111,-1
 3125 297 l 2,0,1
EndSplineSet
EndChar

StartChar: uuvowel
Encoding: 114 3210 108
Width: 3588
Flags: W
LayerCount: 2
Fore
SplineSet
3709 281 m 2,0,1
 3684 162 3684 162 3596 88 c 1,2,3
 3502 2 3502 2 3402 2 c 2,4,-1
 3287 2 l 2,5,6
 3187 2 3187 2 3127 76 c 0,7,8
 3088 123 3088 123 3088 190 c 0,9,10
 3088 229 3088 229 3092 248 c 2,11,-1
 3131 442 l 1,12,-1
 3355 442 l 1,13,-1
 3316 248 l 2,14,15
 3312 232 3312 232 3322 209 c 1,16,17
 3338 193 3338 193 3355 193 c 2,18,-1
 3422 193 l 2,19,20
 3440 193 3440 193 3454.5 212 c 128,-1,21
 3469 231 3469 231 3480 264 c 1,22,-1
 3647 1057 l 2,23,24
 3651 1086 3651 1086 3652 1100 c 0,25,26
 3652 1131 3652 1131 3635 1155 c 0,27,28
 3610 1194 3610 1194 3566 1194 c 2,29,-1
 3289 1194 l 2,30,31
 3230 1194 3230 1194 3182.5 1153 c 128,-1,32
 3135 1112 3135 1112 3121 1055 c 1,33,-1
 2963 315 l 2,34,35
 2947 229 2947 229 2894 154 c 0,36,37
 2871 123 2871 123 2837.5 92 c 128,-1,38
 2804 61 2804 61 2771 43 c 0,39,40
 2697 -2 2697 -2 2621 -2 c 2,41,-1
 2216 -2 l 2,42,43
 2101 -2 2101 -2 2050 88 c 1,44,45
 2011 149 2011 149 2011 223 c 0,46,47
 2011 260 2011 260 2019 299 c 2,48,-1
 2185 1083 l 2,49,50
 2193 1128 2193 1128 2167.5 1161 c 128,-1,51
 2142 1194 2142 1194 2097 1194 c 2,52,-1
 1817 1194 l 2,53,54
 1772 1194 1772 1194 1731 1154 c 128,-1,55
 1690 1114 1690 1114 1681 1071 c 2,56,-1
 1524 326 l 2,57,58
 1493 187 1493 187 1378.5 89.5 c 128,-1,59
 1264 -8 1264 -8 1130 -8 c 2,60,-1
 756 -8 l 2,61,62
 604 -8 604 -8 518 86 c 0,63,64
 457 152 457 152 457 246 c 0,65,66
 457 279 457 279 465 311 c 2,67,-1
 631 1096 l 2,68,69
 656 1219 656 1219 765 1301.5 c 128,-1,70
 874 1384 874 1384 1006 1384 c 2,71,-1
 1386 1384 l 1,72,-1
 1311 1022 l 2,73,74
 1286 907 1286 907 1190 827 c 1,75,76
 1100 745 1100 745 985 745 c 2,77,-1
 891 745 l 1,78,-1
 934 940 l 1,79,-1
 999 940 l 2,80,81
 1022 940 1022 940 1053 958 c 1,82,83
 1084 983 1084 983 1085 1008 c 1,84,-1
 1122 1188 l 1,85,-1
 993 1188 l 2,86,87
 942 1188 942 1188 899 1154 c 128,-1,88
 856 1120 856 1120 848 1077 c 2,89,-1
 688 322 l 2,90,91
 678 269 678 269 711 223 c 1,92,93
 750 184 750 184 807 184 c 2,94,-1
 1159 184 l 2,95,96
 1206 184 1206 184 1245 223 c 0,97,98
 1263 239 1263 239 1277.5 266 c 128,-1,99
 1292 293 1292 293 1296 322 c 2,100,-1
 1456 1077 l 2,101,102
 1472 1163 1472 1163 1531.5 1235 c 128,-1,103
 1591 1307 1591 1307 1674 1344.5 c 128,-1,104
 1757 1382 1757 1382 1837 1382 c 2,105,-1
 2146 1382 l 2,106,107
 2234 1382 2234 1382 2298.5 1344.5 c 128,-1,108
 2363 1307 2363 1307 2392 1233 c 0,109,110
 2410 1190 2410 1190 2410 1133 c 0,111,112
 2410 1119 2410 1119 2406 1079 c 1,113,-1
 2241 295 l 2,114,115
 2237 272 2237 272 2236 262 c 0,116,117
 2236 237 2236 237 2253 221 c 1,118,119
 2278 188 2278 188 2322 188 c 2,120,-1
 2585 188 l 2,121,122
 2638 188 2638 188 2683 229 c 128,-1,123
 2728 270 2728 270 2742 328 c 1,124,-1
 2896 1055 l 2,125,126
 2904 1100 2904 1100 2922.5 1140 c 128,-1,127
 2941 1180 2941 1180 2972 1223 c 1,128,129
 3031 1299 3031 1299 3114 1342.5 c 128,-1,130
 3197 1386 3197 1386 3283 1386 c 2,131,-1
 3607 1386 l 2,132,133
 3697 1386 3697 1386 3764 1343 c 1,134,135
 3830 1296 3830 1296 3854 1223 c 1,136,137
 3872 1180 3872 1180 3873 1126 c 0,138,139
 3873 1095 3873 1095 3865 1057 c 2,140,-1
 3709 281 l 2,0,1
EndSplineSet
EndChar

StartChar: rvocalicvowel.part
Encoding: 116 -1 110
Width: 2048
Flags: W
LayerCount: 2
Fore
SplineSet
2167 297 m 2,0,1
 2142 178 2142 178 2068 90 c 1,2,3
 1982 2 1982 2 1901 2 c 2,4,-1
 1483 2 l 2,5,6
 1397 2 1397 2 1330.5 43 c 128,-1,7
 1264 84 1264 84 1239 158 c 1,8,9
 1186 82 1186 82 1128.5 42 c 128,-1,10
 1071 2 1071 2 1024 2 c 2,11,-1
 549 2 l 2,12,13
 455 2 455 2 403 61 c 0,14,15
 364 108 364 108 365 168 c 0,16,17
 365 182 365 182 369 211 c 2,18,-1
 449 586 l 1,19,-1
 786 586 l 2,20,21
 888 586 888 586 946 526 c 0,22,23
 993 479 993 479 993 422 c 0,24,25
 993 412 993 412 989 383 c 2,26,-1
 971 283 l 1,27,-1
 748 283 l 1,28,-1
 762 354 l 2,29,30
 770 393 770 393 719 393 c 2,31,-1
 633 393 l 1,32,-1
 610 283 l 1,33,34
 608 250 608 250 618 225 c 1,35,36
 641 200 641 200 674 201 c 2,37,-1
 977 201 l 2,38,39
 1036 201 1036 201 1081 231.5 c 128,-1,40
 1126 262 1126 262 1141 309 c 1,41,-1
 1313 1122 l 2,42,43
 1321 1161 1321 1161 1291.5 1182.5 c 128,-1,44
 1262 1204 1262 1204 1208 1204 c 2,45,-1
 913 1204 l 2,46,47
 897 1204 897 1204 878.5 1200 c 128,-1,48
 860 1196 860 1196 829.5 1181.5 c 128,-1,49
 799 1167 799 1167 791 1137 c 2,50,-1
 760 983 l 1,51,-1
 846 983 l 2,52,53
 877 983 877 983 905.5 1005.5 c 128,-1,54
 934 1028 934 1028 942 1065 c 2,55,-1
 952 1122 l 1,56,-1
 1176 1122 l 1,57,-1
 1161 1055 l 2,58,59
 1136 946 1136 946 1053.5 866 c 128,-1,60
 971 786 971 786 872 786 c 2,61,-1
 492 786 l 1,62,-1
 573 1178 l 1,63,64
 596 1268 596 1268 680 1333.5 c 128,-1,65
 764 1399 764 1399 872 1399 c 2,66,-1
 1321 1399 l 2,67,68
 1436 1399 1436 1399 1501 1323 c 0,69,70
 1546 1270 1546 1270 1546 1196 c 0,71,72
 1546 1159 1546 1159 1542 1141 c 2,73,-1
 1380 371 l 1,74,75
 1398 299 1398 299 1448.5 251 c 128,-1,76
 1499 203 1499 203 1552 203 c 2,77,-1
 1815 203 l 2,78,79
 1862 203 1862 203 1901 242 c 0,80,81
 1919 258 1919 258 1933.5 284.5 c 128,-1,82
 1948 311 1948 311 1952 340 c 2,83,-1
 2099 1038 l 1,84,85
 2103 1071 2103 1071 2103 1085 c 0,86,87
 2103 1124 2103 1124 2081 1155 c 0,88,89
 2048 1202 2048 1202 1987 1202 c 2,90,-1
 1690 1202 l 1,91,-1
 1733 1397 l 1,92,-1
 2056 1397 l 2,93,94
 2103 1397 2103 1397 2150 1436 c 1,95,96
 2189 1475 2189 1475 2204 1534 c 1,97,-1
 2226 1645 l 1,98,-1
 2449 1645 l 1,99,-1
 2421 1505 l 2,100,101
 2405 1431 2405 1431 2357 1374 c 1,102,103
 2314 1315 2314 1315 2238 1284 c 1,104,105
 2299 1247 2299 1247 2316 1199 c 128,-1,106
 2333 1151 2333 1151 2333 1139.5 c 128,-1,107
 2333 1128 2333 1128 2333 1114 c 0,108,109
 2333 1098 2333 1098 2329 1065 c 1,110,-1
 2167 297 l 2,0,1
EndSplineSet
EndChar

StartChar: lvocalicvowel.part
Encoding: 118 -1 112
Width: 1607
Flags: W
LayerCount: 2
Fore
SplineSet
1491 297 m 1,0,1
 1483 252 1483 252 1513 233 c 0,2,3
 1527 225 1527 225 1544 225 c 0,4,5
 1591 225 1591 225 1622 262 c 1,6,-1
 1882 545 l 1,7,-1
 2028 430 l 1,8,-1
 1718 111 l 1,9,10
 1659 35 1659 35 1583 18 c 0,11,12
 1536 8 1536 8 1460 31.5 c 128,-1,13
 1384 55 1384 55 1337 109 c 1,14,15
 1306 148 1306 148 1296 162 c 0,16,17
 1265 207 1265 207 1266 258 c 0,18,19
 1266 268 1266 268 1270 293.5 c 128,-1,20
 1274 319 1274 319 1425 506 c 0,21,22
 1472 565 1472 565 1575 688 c 1,23,24
 1628 788 1628 788 1657 956 c 0,25,26
 1665 1009 1665 1009 1673 1104 c 1,27,28
 1681 1149 1681 1149 1651 1171 c 1,29,30
 1626 1196 1626 1196 1567 1196 c 2,31,-1
 1415 1196 l 2,32,33
 1358 1196 1358 1196 1310 1160 c 128,-1,34
 1262 1124 1262 1124 1253 1085 c 2,35,-1
 1225 946 l 1,36,-1
 1006 946 l 1,37,-1
 1030 1075 l 2,38,39
 1040 1120 1040 1120 1006.5 1158 c 128,-1,40
 973 1196 973 1196 915 1196 c 2,41,-1
 729 1196 l 2,42,43
 678 1196 678 1196 635 1162 c 128,-1,44
 592 1128 592 1128 584 1085 c 2,45,-1
 555 946 l 2,46,47
 553 938 553 938 553 929 c 128,-1,48
 553 920 553 920 553 918 c 0,49,50
 553 889 553 889 569 872 c 1,51,52
 585 839 585 839 623 840 c 2,53,-1
 668 840 l 1,54,-1
 629 645 l 1,55,-1
 528 645 l 2,56,57
 424 645 424 645 362 725 c 0,58,59
 319 782 319 782 319 856 c 0,60,61
 319 889 319 889 324 907 c 2,62,-1
 367 1116 l 2,63,64
 383 1192 383 1192 437.5 1256.5 c 128,-1,65
 492 1321 492 1321 564.5 1357 c 128,-1,66
 637 1393 637 1393 717 1393 c 2,67,-1
 983 1393 l 2,68,69
 1063 1393 1063 1393 1118.5 1355 c 128,-1,70
 1174 1317 1174 1317 1174 1255 c 1,71,72
 1213 1321 1213 1321 1274 1354 c 1,73,74
 1331 1393 1331 1393 1399 1393 c 2,75,-1
 1651 1393 l 2,76,77
 1784 1393 1784 1393 1849 1311 c 1,78,79
 1900 1254 1900 1254 1901 1174 c 0,80,81
 1901 1141 1901 1141 1892 1108 c 2,82,-1
 1819 756 l 2,83,84
 1805 690 1805 690 1761 629 c 1,85,86
 1757 619 1757 619 1577 414 c 0,87,88
 1548 383 1548 383 1534 369 c 0,89,90
 1491 322 1491 322 1491 297 c 1,0,1
EndSplineSet
EndChar

StartChar: evowel
Encoding: 119 3214 113
Width: 1943
Flags: W
LayerCount: 2
Fore
SplineSet
2066 297 m 2,0,1
 2041 178 2041 178 1950.5 90 c 128,-1,2
 1860 2 1860 2 1755 2 c 2,3,-1
 1331 2 l 2,4,5
 1257 2 1257 2 1210 41 c 0,6,7
 1187 59 1187 59 1179 82.5 c 128,-1,8
 1171 106 1171 106 1171 137 c 1,9,10
 1140 76 1140 76 1083 38 c 128,-1,11
 1026 0 1026 0 967 0 c 2,12,-1
 643 0 l 2,13,14
 518 0 518 0 444 82 c 0,15,16
 391 139 391 139 391 221 c 0,17,18
 391 237 391 237 395 276 c 1,19,-1
 512 836 l 1,20,-1
 846 836 l 2,21,22
 903 836 903 836 947 792 c 128,-1,23
 991 748 991 748 1008 674 c 1,24,25
 1026 617 1026 617 1026 549 c 0,26,27
 1026 518 1026 518 1024 504 c 1,28,-1
 807 446 l 1,29,30
 807 505 807 505 803 528 c 128,-1,31
 799 551 799 551 782 588 c 1,32,33
 753 641 753 641 694 641 c 1,34,-1
 629 332 l 1,35,36
 621 275 621 275 649 233 c 1,37,38
 682 194 682 194 735 195 c 2,39,-1
 946 195 l 2,40,41
 999 195 999 195 1038 233 c 0,42,43
 1063 256 1063 256 1075 278.5 c 128,-1,44
 1087 301 1087 301 1096 332 c 2,45,-1
 1124 471 l 1,46,-1
 1350 471 l 1,47,-1
 1325 348 l 2,48,49
 1323 338 1323 338 1323 313 c 0,50,51
 1323 276 1323 276 1348 244 c 0,52,53
 1387 197 1387 197 1444 197 c 2,54,-1
 1677 197 l 2,55,56
 1736 197 1736 197 1786.5 242 c 128,-1,57
 1837 287 1837 287 1851 352 c 2,58,-1
 1995 1022 l 2,59,60
 1999 1051 1999 1051 1999 1065 c 0,61,62
 1999 1112 1999 1112 1968 1149 c 1,63,64
 1929 1200 1929 1200 1855 1200 c 2,65,-1
 1669 1200 l 1,66,-1
 1712 1395 l 1,67,-1
 1927 1395 l 2,68,69
 2029 1395 2029 1395 2103 1350 c 128,-1,70
 2177 1305 2177 1305 2210 1225 c 0,71,72
 2228 1178 2228 1178 2228 1116 c 0,73,74
 2228 1089 2228 1089 2220 1057 c 2,75,-1
 2066 297 l 2,0,1
EndSplineSet
EndChar

StartChar: eevowel
Encoding: 120 3215 114
Width: 1937
Flags: W
LayerCount: 2
Fore
SplineSet
2066 330 m 2,0,1
 2050 248 2050 248 1985 162 c 1,2,3
 1956 129 1956 129 1918 96 c 128,-1,4
 1880 63 1880 63 1835 41 c 1,5,6
 1735 -2 1735 -2 1649 -2 c 2,7,-1
 1331 2 l 2,8,9
 1263 2 1263 2 1221 45 c 1,10,11
 1203 68 1203 68 1188.5 97.5 c 128,-1,12
 1174 127 1174 127 1174 158 c 1,13,14
 1065 0 1065 0 913 0 c 2,15,-1
 666 0 l 2,16,17
 525 0 525 0 451 90 c 1,18,19
 392 158 392 158 391 244 c 0,20,21
 391 262 391 262 395 301 c 1,22,-1
 506 834 l 1,23,-1
 844 834 l 2,24,25
 897 834 897 834 938 793 c 128,-1,26
 979 752 979 752 1001 672 c 0,27,28
 1011 641 1011 641 1013.5 600 c 128,-1,29
 1016 559 1016 559 1016 502 c 1,30,-1
 793 444 l 1,31,32
 793 501 793 501 788.5 528 c 128,-1,33
 784 555 784 555 768 584 c 0,34,35
 739 641 739 641 686 641 c 1,36,-1
 621 332 l 1,37,38
 613 275 613 275 641 233 c 1,39,40
 674 194 674 194 727 195 c 2,41,-1
 936 195 l 2,42,43
 993 195 993 195 1032 233 c 0,44,45
 1057 256 1057 256 1069 278.5 c 128,-1,46
 1081 301 1081 301 1090 332 c 2,47,-1
 1118 471 l 1,48,-1
 1343 471 l 1,49,-1
 1319 348 l 2,50,51
 1317 338 1317 338 1317 315 c 0,52,53
 1317 278 1317 278 1339 240 c 1,54,55
 1378 195 1378 195 1432 195 c 2,56,-1
 1671 195 l 2,57,58
 1728 195 1728 195 1780.5 242 c 128,-1,59
 1833 289 1833 289 1843 350 c 1,60,-1
 1987 1020 l 2,61,62
 1991 1049 1991 1049 1991 1063 c 0,63,64
 1991 1110 1991 1110 1960 1147 c 0,65,66
 1917 1198 1917 1198 1841 1198 c 2,67,-1
 1632 1198 l 1,68,-1
 1618 1130 l 2,69,70
 1604 1056 1604 1056 1523 1002 c 128,-1,71
 1442 948 1442 948 1341 948 c 2,72,-1
 1081 948 l 2,73,74
 964 948 964 948 899 1022 c 0,75,76
 848 1077 848 1077 848 1153 c 0,77,78
 848 1167 848 1167 852 1196 c 1,79,-1
 895 1391 l 1,80,-1
 1118 1391 l 1,81,-1
 1081 1225 l 1,82,83
 1077 1188 1077 1188 1098.5 1164.5 c 128,-1,84
 1120 1141 1120 1141 1149 1141 c 2,85,-1
 1329 1141 l 2,86,87
 1360 1141 1360 1141 1384 1171 c 1,88,89
 1413 1194 1413 1194 1421 1241 c 2,90,-1
 1452 1389 l 1,91,-1
 1911 1389 l 2,92,93
 2020 1389 2020 1389 2096.5 1341.5 c 128,-1,94
 2173 1294 2173 1294 2198.5 1228.5 c 128,-1,95
 2224 1163 2224 1163 2224 1110 c 0,96,97
 2224 1079 2224 1079 2216 1047 c 2,98,-1
 2066 330 l 2,0,1
EndSplineSet
EndChar

StartChar: aivowel
Encoding: 121 3216 115
Width: 2054
Flags: W
LayerCount: 2
Fore
SplineSet
2173 301 m 2,0,1
 2148 176 2148 176 2039.5 86 c 128,-1,2
 1931 -4 1931 -4 1806 -4 c 2,3,-1
 1489 0 l 2,4,5
 1407 0 1407 0 1346 45 c 1,6,7
 1285 96 1285 96 1268 168 c 1,8,9
 1209 92 1209 92 1136 47 c 128,-1,10
 1063 2 1063 2 997 2 c 2,11,-1
 645 2 l 2,12,13
 520 2 520 2 446 84 c 0,14,15
 393 141 393 141 393 223 c 0,16,17
 393 239 393 239 397 279 c 1,18,-1
 463 584 l 1,19,20
 488 713 488 713 596.5 803 c 128,-1,21
 705 893 705 893 836 893 c 2,22,-1
 1225 893 l 1,23,-1
 1163 602 l 1,24,25
 1153 543 1153 543 1120 491.5 c 128,-1,26
 1087 440 1087 440 1036 397 c 0,27,28
 927 309 927 309 795 299 c 1,29,-1
 780 494 l 1,30,31
 805 494 805 494 833.5 503 c 128,-1,32
 862 512 862 512 885 528 c 0,33,34
 932 561 932 561 940 606 c 2,35,-1
 956 688 l 1,36,-1
 862 688 l 2,37,38
 796 688 796 688 750 651 c 1,39,40
 697 620 697 620 682 567 c 1,41,-1
 639 356 l 1,42,43
 635 323 635 323 635 313 c 0,44,45
 635 280 635 280 657 244 c 1,46,47
 682 193 682 193 741 193 c 2,48,-1
 981 193 l 2,49,50
 1053 193 1053 193 1116.5 244 c 128,-1,51
 1180 295 1180 295 1196 360 c 1,52,-1
 1212 442 l 1,53,-1
 1438 442 l 1,54,-1
 1421 360 l 2,55,56
 1417 331 1417 331 1417 317 c 0,57,58
 1417 274 1417 274 1446 244 c 1,59,60
 1479 193 1479 193 1546 193 c 2,61,-1
 1815 193 l 2,62,63
 1862 193 1862 193 1909 240 c 1,64,65
 1954 293 1954 293 1970 358 c 1,66,-1
 2116 1057 l 2,67,68
 2120 1086 2120 1086 2120 1098 c 0,69,70
 2120 1129 2120 1129 2100.5 1161.5 c 128,-1,71
 2081 1194 2081 1194 2023 1194 c 2,72,-1
 1784 1194 l 2,73,74
 1737 1194 1737 1194 1697 1158 c 128,-1,75
 1657 1122 1657 1122 1649 1071 c 1,76,-1
 1632 999 l 1,77,-1
 1409 999 l 1,78,-1
 1427 1081 l 1,79,80
 1435 1128 1435 1128 1397 1159 c 0,81,82
 1379 1173 1379 1173 1350 1181.5 c 128,-1,83
 1321 1190 1321 1190 1284 1190 c 2,84,-1
 938 1190 l 2,85,86
 891 1190 891 1190 844 1151 c 1,87,88
 797 1120 797 1120 758 1053 c 1,89,-1
 614 1163 l 1,90,91
 680 1267 680 1267 768 1325.5 c 128,-1,92
 856 1384 856 1384 938 1384 c 2,93,-1
 1372 1384 l 2,94,95
 1460 1384 1460 1384 1512.5 1341 c 128,-1,96
 1565 1298 1565 1298 1573 1237 c 1,97,98
 1620 1305 1620 1305 1686 1343 c 1,99,100
 1719 1366 1719 1366 1749.5 1374 c 128,-1,101
 1780 1382 1780 1382 1817 1382 c 2,102,-1
 2097 1382 l 2,103,104
 2183 1382 2183 1382 2245.5 1346.5 c 128,-1,105
 2308 1311 2308 1311 2333 1245 c 0,106,107
 2349 1202 2349 1202 2349 1155 c 0,108,109
 2349 1141 2349 1141 2345 1108 c 1,110,-1
 2173 301 l 2,0,1
EndSplineSet
EndChar

StartChar: ovowel
Encoding: 122 3218 116
Width: 1880
Flags: W
LayerCount: 2
Fore
SplineSet
1982 240 m 2,0,1
 1959 136 1959 136 1888 74 c 1,2,3
 1820 2 1820 2 1735 2 c 2,4,-1
 1305 2 l 2,5,6
 1239 2 1239 2 1200 39 c 1,7,8
 1161 70 1161 70 1153 129 c 1,9,10
 1128 74 1128 74 1077 38 c 128,-1,11
 1026 2 1026 2 975 2 c 2,12,-1
 584 2 l 2,13,14
 475 2 475 2 410 68 c 1,15,16
 359 115 359 115 358 176 c 0,17,18
 358 186 358 186 362 219 c 1,19,-1
 428 528 l 1,20,-1
 705 690 l 2,21,22
 873 786 873 786 937 833.5 c 128,-1,23
 1001 881 1001 881 1016 932 c 1,24,-1
 1053 1112 l 2,25,26
 1061 1151 1061 1151 1041.5 1172.5 c 128,-1,27
 1022 1194 1022 1194 989 1194 c 2,28,-1
 795 1194 l 1,29,-1
 772 1083 l 1,30,31
 768 1052 768 1052 784.5 1026.5 c 128,-1,32
 801 1001 801 1001 838 1001 c 2,33,-1
 866 1001 l 1,34,-1
 823 805 l 1,35,-1
 727 805 l 2,36,37
 631 805 631 805 580 887 c 0,38,39
 541 948 541 948 541 1020 c 0,40,41
 541 1049 541 1049 549 1081 c 2,42,-1
 614 1386 l 1,43,-1
 1090 1386 l 2,44,45
 1158 1386 1158 1386 1210 1357.5 c 128,-1,46
 1262 1329 1262 1329 1280 1291 c 128,-1,47
 1298 1253 1298 1253 1298 1223 c 0,48,49
 1298 1213 1298 1213 1294 1184 c 2,50,-1
 1227 860 l 1,51,52
 1219 809 1219 809 1157 762 c 0,53,54
 1120 733 1120 733 1090 715 c 0,55,56
 1014 668 1014 668 870 582 c 2,57,-1
 641 444 l 1,58,-1
 612 305 l 2,59,60
 610 295 610 295 610 279 c 0,61,62
 610 254 610 254 631.5 225.5 c 128,-1,63
 653 197 653 197 698 197 c 2,64,-1
 950 197 l 2,65,66
 993 197 993 197 1036 233 c 1,67,68
 1081 278 1081 278 1090 324 c 2,69,-1
 1108 418 l 1,70,-1
 1331 418 l 1,71,-1
 1315 336 l 2,72,73
 1313 326 1313 326 1313 307 c 0,74,75
 1313 274 1313 274 1331 242 c 1,76,77
 1370 203 1370 203 1421 203 c 2,78,-1
 1645 203 l 2,79,80
 1688 203 1688 203 1731 240 c 1,81,82
 1776 285 1776 285 1784 330 c 2,83,-1
 1827 526 l 2,84,85
 1835 567 1835 567 1813.5 592.5 c 128,-1,86
 1792 618 1792 618 1753 618 c 2,87,-1
 1679 618 l 1,88,-1
 1718 813 l 1,89,-1
 1913 813 l 2,90,91
 2003 813 2003 813 2040 760 c 1,92,93
 2073 721 2073 721 2073 668 c 0,94,95
 2073 658 2073 658 2068 625 c 1,96,-1
 1982 240 l 2,0,1
EndSplineSet
EndChar

StartChar: oovowel
Encoding: 123 3219 117
Width: 1880
Flags: W
LayerCount: 2
Fore
SplineSet
1989 268 m 1,0,1
 1973 192 1973 192 1928.5 133 c 128,-1,2
 1884 74 1884 74 1829 38 c 128,-1,3
 1774 2 1774 2 1712 2 c 2,4,-1
 1309 2 l 2,5,6
 1243 2 1243 2 1204 39 c 1,7,8
 1165 70 1165 70 1157 129 c 1,9,10
 1141 102 1141 102 1117.5 80.5 c 128,-1,11
 1094 59 1094 59 1065 37 c 1,12,13
 1006 4 1006 4 952 4 c 2,14,-1
 590 4 l 2,15,16
 481 4 481 4 416 70 c 1,17,18
 365 117 365 117 365 178 c 0,19,20
 365 188 365 188 369 221 c 1,21,-1
 434 530 l 1,22,-1
 711 692 l 2,23,24
 879 788 879 788 943.5 835.5 c 128,-1,25
 1008 883 1008 883 1022 934 c 1,26,-1
 1053 1085 l 2,27,28
 1061 1128 1061 1128 1038 1165 c 1,29,30
 1013 1196 1013 1196 967 1196 c 2,31,-1
 801 1196 l 1,32,-1
 778 1085 l 1,33,34
 774 1054 774 1054 790.5 1029 c 128,-1,35
 807 1004 807 1004 844 1004 c 2,36,-1
 872 1004 l 1,37,-1
 829 807 l 1,38,-1
 733 807 l 2,39,40
 637 807 637 807 586 889 c 0,41,42
 547 950 547 950 547 1022 c 0,43,44
 547 1051 547 1051 555 1083 c 2,45,-1
 621 1389 l 1,46,-1
 836 1389 l 1,47,48
 650 1520 650 1520 666 1602 c 2,49,-1
 702 1778 l 1,50,51
 712 1846 712 1846 795 1896 c 1,52,53
 863 1943 863 1943 958 1944 c 2,54,-1
 1206 1944 l 1,55,-1
 1167 1747 l 1,56,-1
 991 1747 l 2,57,58
 960 1747 960 1747 936.5 1730.5 c 128,-1,59
 913 1714 913 1714 911 1696 c 2,60,-1
 893 1610 l 2,61,62
 877 1524 877 1524 1071 1386 c 1,63,-1
 1096 1386 l 2,64,65
 1164 1386 1164 1386 1216 1357.5 c 128,-1,66
 1268 1329 1268 1329 1286.5 1291 c 128,-1,67
 1305 1253 1305 1253 1305 1223 c 0,68,69
 1305 1213 1305 1213 1300 1184 c 2,70,-1
 1233 860 l 1,71,72
 1225 809 1225 809 1163 762 c 0,73,74
 1126 733 1126 733 1096 715 c 0,75,76
 1020 668 1020 668 877 582 c 2,77,-1
 647 444 l 1,78,-1
 618 305 l 2,79,80
 616 295 616 295 616 279 c 0,81,82
 616 254 616 254 637.5 225.5 c 128,-1,83
 659 197 659 197 705 197 c 2,84,-1
 956 197 l 2,85,86
 999 197 999 197 1042 233 c 1,87,88
 1087 278 1087 278 1096 324 c 2,89,-1
 1114 418 l 1,90,-1
 1337 418 l 1,91,-1
 1315 307 l 2,92,93
 1305 264 1305 264 1338.5 230.5 c 128,-1,94
 1372 197 1372 197 1430 197 c 2,95,-1
 1653 197 l 2,96,97
 1696 197 1696 197 1739 233 c 1,98,99
 1784 278 1784 278 1792 324 c 2,100,-1
 1835 520 l 2,101,102
 1843 561 1843 561 1821.5 586.5 c 128,-1,103
 1800 612 1800 612 1761 612 c 2,104,-1
 1688 612 l 1,105,-1
 1726 807 l 1,106,-1
 1894 807 l 2,107,108
 1984 807 1984 807 2036 733 c 1,109,110
 2069 682 2069 682 2068 616 c 0,111,112
 2068 591 2068 591 2060 559 c 2,113,-1
 1989 268 l 1,0,1
EndSplineSet
EndChar

StartChar: auvowel
Encoding: 124 3220 118
Width: 1871
Flags: W
LayerCount: 2
Fore
SplineSet
2208 1063 m 1,0,-1
 1604 1063 l 2,1,2
 1510 1063 1510 1063 1458 1143 c 1,3,4
 1421 1196 1421 1196 1421 1268 c 0,5,6
 1421 1311 1421 1311 1425 1333 c 2,7,-1
 1473 1565 l 1,8,-1
 1976 1565 l 1,9,-1
 1937 1370 l 1,10,-1
 1632 1370 l 1,11,-1
 1624 1333 l 1,12,13
 1620 1302 1620 1302 1636 1280 c 1,14,15
 1659 1257 1659 1257 1690 1257 c 2,16,-1
 2023 1257 l 1,17,-1
 2105 1638 l 1,18,19
 2113 1695 2113 1695 2083.5 1728 c 128,-1,20
 2054 1761 2054 1761 2007 1761 c 2,21,-1
 1417 1761 l 1,22,23
 1456 1730 1456 1730 1448 1698 c 1,24,-1
 1438 1640 l 1,25,26
 1422 1574 1422 1574 1378 1532 c 1,27,28
 1325 1487 1325 1487 1278 1487 c 2,29,-1
 651 1487 l 1,30,-1
 694 1681 l 1,31,-1
 1227 1681 l 2,32,33
 1252 1681 1252 1681 1271 1700.5 c 128,-1,34
 1290 1720 1290 1720 1292 1735 c 1,35,36
 1290 1737 1290 1737 1288 1737 c 0,37,38
 1265 1753 1265 1753 1243 1761 c 1,39,-1
 711 1761 l 1,40,-1
 750 1958 l 1,41,-1
 2077 1958 l 2,42,43
 2167 1958 2167 1958 2235.5 1921 c 128,-1,44
 2304 1884 2304 1884 2326.5 1837 c 128,-1,45
 2349 1790 2349 1790 2349 1745 c 0,46,47
 2349 1731 2349 1731 2345 1698 c 1,48,-1
 2208 1063 l 1,0,-1
1982 242 m 1,49,50
 1964 146 1964 146 1894.5 74 c 128,-1,51
 1825 2 1825 2 1739 2 c 2,52,-1
 1300 2 l 2,53,54
 1241 2 1241 2 1204 39 c 1,55,56
 1161 66 1161 66 1153 127 c 1,57,58
 1135 96 1135 96 1118.5 79.5 c 128,-1,59
 1102 63 1102 63 1069 35 c 1,60,61
 1018 2 1018 2 973 2 c 2,62,-1
 610 2 l 2,63,64
 497 2 497 2 424 88 c 0,65,66
 377 145 377 145 377 225 c 0,67,68
 377 262 377 262 381 281 c 2,69,-1
 434 532 l 1,70,-1
 715 694 l 2,71,72
 903 805 903 805 955.5 845 c 128,-1,73
 1008 885 1008 885 1022 936 c 1,74,-1
 1065 1141 l 2,75,76
 1075 1198 1075 1198 993 1198 c 2,77,-1
 799 1198 l 1,78,-1
 776 1087 l 1,79,80
 772 1056 772 1056 788.5 1031 c 128,-1,81
 805 1006 805 1006 842 1006 c 2,82,-1
 895 1006 l 1,83,-1
 852 809 l 1,84,-1
 727 809 l 2,85,86
 631 809 631 809 580 891 c 1,87,88
 543 957 543 957 543 1024 c 0,89,90
 543 1053 543 1053 551 1085 c 2,91,-1
 616 1391 l 1,92,-1
 1092 1391 l 2,93,94
 1160 1391 1160 1391 1210 1366 c 1,95,96
 1261 1335 1261 1335 1280.5 1297.5 c 128,-1,97
 1300 1260 1300 1260 1300 1229 c 0,98,99
 1300 1219 1300 1219 1296 1190 c 2,100,-1
 1229 866 l 2,101,102
 1221 823 1221 823 1182 791 c 1,103,104
 1143 752 1143 752 1075 709 c 2,105,-1
 856 575 l 1,106,-1
 645 451 l 1,107,-1
 616 311 l 2,108,109
 614 301 614 301 614 285 c 0,110,111
 614 260 614 260 633.5 231.5 c 128,-1,112
 653 203 653 203 700 203 c 2,113,-1
 981 203 l 2,114,115
 1018 203 1018 203 1048.5 243 c 128,-1,116
 1079 283 1079 283 1090 330 c 2,117,-1
 1108 424 l 1,118,-1
 1331 424 l 1,119,-1
 1309 313 l 2,120,121
 1301 270 1301 270 1324.5 236.5 c 128,-1,122
 1348 203 1348 203 1393 203 c 2,123,-1
 1616 203 l 2,124,125
 1675 203 1675 203 1725.5 244 c 128,-1,126
 1776 285 1776 285 1784 330 c 2,127,-1
 1827 526 l 2,128,129
 1835 571 1835 571 1811.5 594.5 c 128,-1,130
 1788 618 1788 618 1749 618 c 2,131,-1
 1681 618 l 1,132,-1
 1720 813 l 1,133,-1
 1917 813 l 2,134,135
 2003 813 2003 813 2046 760 c 0,136,137
 2077 721 2077 721 2077 668 c 0,138,139
 2077 658 2077 658 2073 625 c 1,140,-1
 1982 242 l 1,49,50
EndSplineSet
EndChar

StartChar: ka.base
Encoding: 126 -1 120
Width: 1079
Flags: W
AnchorPoint: "s" 569 -127 basechar 0
LayerCount: 2
Fore
SplineSet
1638 811 m 1,0,-1
 1235 811 l 1,1,2
 1339 735 1339 735 1391 639 c 0,3,4
 1430 567 1430 567 1430 514 c 0,5,6
 1430 500 1430 500 1430 489 c 1,7,8
 1426 479 1426 479 1425 477 c 2,9,-1
 1380 266 l 1,10,11
 1362 162 1362 162 1275 89 c 128,-1,12
 1188 16 1188 16 1094 16 c 2,13,-1
 590 12 l 2,14,15
 502 12 502 12 455 70 c 0,16,17
 439 88 439 88 430.5 114.5 c 128,-1,18
 422 141 422 141 422 166 c 0,19,20
 422 189 422 189 424 203 c 2,21,-1
 477 455 l 2,22,23
 506 594 506 594 821 817 c 1,24,-1
 387 817 l 1,25,-1
 430 1014 l 1,26,-1
 961 1014 l 1,27,-1
 999 1208 l 1,28,-1
 469 1208 l 1,29,-1
 512 1403 l 1,30,-1
 1438 1403 l 1,31,-1
 1395 1208 l 1,32,-1
 1223 1208 l 1,33,-1
 1184 1014 l 1,34,-1
 1688 1014 l 1,35,-1
 1638 811 l 1,0,-1
1176 317 m 1,36,-1
 1204 446 l 2,37,38
 1208 469 1208 469 1208 485 c 0,39,40
 1208 538 1208 538 1169 600 c 1,41,42
 1122 690 1122 690 1020 750 c 1,43,44
 737 607 737 607 707 459 c 2,45,-1
 676 307 l 2,46,47
 674 297 674 297 674 281 c 0,48,49
 674 267 674 267 684 240 c 1,50,51
 707 215 707 215 737 215 c 1,52,-1
 735 207 l 1,53,-1
 1087 207 l 2,54,55
 1118 207 1118 207 1145 242.5 c 128,-1,56
 1172 278 1172 278 1176 317 c 1,36,-1
EndSplineSet
EndChar

StartChar: ka.imathra
Encoding: 127 -1 121
Width: 1269
Flags: W
AnchorPoint: "s" 553 -164 basechar 0
LayerCount: 2
Fore
SplineSet
1507 811 m 1,0,-1
 1196 811 l 1,1,2
 1311 725 1311 725 1364 621 c 0,3,4
 1401 549 1401 549 1401 483 c 0,5,6
 1401 467 1401 467 1397 438 c 2,7,-1
 1346 199 l 2,8,9
 1330 119 1330 119 1261 61.5 c 128,-1,10
 1192 4 1192 4 1112 4 c 2,11,-1
 580 4 l 2,12,13
 486 4 486 4 440.5 56.5 c 128,-1,14
 395 109 395 109 395 166 c 0,15,16
 395 184 395 184 397 195 c 2,17,-1
 455 463 l 1,18,19
 471 516 471 516 532 575 c 0,20,21
 550 593 550 593 633 662 c 0,22,23
 737 750 737 750 803 803 c 1,24,-1
 469 803 l 1,25,-1
 512 999 l 1,26,-1
 1012 999 l 1,27,-1
 1225 1210 l 1,28,-1
 1286 1516 l 2,29,30
 1294 1555 1294 1555 1266 1554 c 2,31,-1
 1126 1554 l 1,32,-1
 1102 1432 l 2,33,34
 1100 1422 1100 1422 1114 1405.5 c 128,-1,35
 1128 1389 1128 1389 1151 1389 c 2,36,-1
 1180 1389 l 1,37,-1
 1137 1194 l 1,38,-1
 1026 1194 l 2,39,40
 950 1194 950 1194 899 1245 c 1,41,42
 866 1284 866 1284 866 1329 c 0,43,44
 866 1347 866 1347 868 1358 c 2,45,-1
 950 1747 l 1,46,-1
 1370 1747 l 2,47,48
 1450 1747 1450 1747 1497 1694 c 1,49,50
 1526 1657 1526 1657 1526 1604 c 0,51,52
 1526 1573 1526 1573 1522 1556 c 2,53,-1
 1442 1182 l 1,54,-1
 1253 999 l 1,55,-1
 1548 999 l 1,56,-1
 1507 811 l 1,0,-1
1139 272 m 1,57,-1
 1171 438 l 2,58,59
 1189 526 1189 526 981 735 c 1,60,61
 686 520 686 520 664 426 c 1,62,-1
 627 244 l 2,63,64
 623 226 623 226 641 207 c 128,-1,65
 659 188 659 188 688 188 c 2,66,-1
 1061 188 l 2,67,68
 1086 188 1086 188 1107.5 213.5 c 128,-1,69
 1129 239 1129 239 1139 272 c 1,57,-1
EndSplineSet
LCarets2: 1 0
EndChar

StartChar: ka.sub
Encoding: 128 -1 122
Width: 333
Flags: W
AnchorPoint: "Sub" -262 541 mark 0
AnchorPoint: "Sub" 406 -844 basemark 0
LayerCount: 2
Fore
SplineSet
612 -297 m 1,0,-1
 360 -297 l 1,1,2
 491 -397 491 -397 469 -492 c 1,3,-1
 436 -657 l 2,4,5
 420 -731 420 -731 343 -786.5 c 128,-1,6
 266 -842 266 -842 176 -842 c 2,7,-1
 -141 -842 l 1,8,9
 -241 -834 -241 -834 -290.5 -781.5 c 128,-1,10
 -340 -729 -340 -729 -340 -664 c 0,11,12
 -340 -639 -340 -639 -338 -629 c 2,13,-1
 -319 -535 l 1,14,15
 -288 -433 -288 -433 -113 -295 c 1,16,-1
 -389 -295 l 1,17,-1
 -352 -127 l 1,18,-1
 78 -127 l 1,19,-1
 240 18 l 1,20,-1
 358 129 l 2,21,22
 387 158 387 158 391 188 c 1,23,-1
 449 457 l 2,24,25
 465 529 465 529 362 573 c 1,26,-1
 514 684 l 1,27,28
 666 559 666 559 649 479 c 2,29,-1
 582 156 l 2,30,31
 574 111 574 111 520 63 c 2,32,-1
 287 -133 l 1,33,-1
 649 -133 l 1,34,-1
 612 -297 l 1,0,-1
258 -596 m 1,35,-1
 276 -498 l 2,36,37
 286 -447 286 -447 242.5 -391.5 c 128,-1,38
 199 -336 199 -336 113 -305 c 1,39,40
 25 -330 25 -330 -43 -391 c 1,41,42
 -102 -457 -102 -457 -119 -524 c 1,43,-1
 -135 -606 l 2,44,45
 -143 -639 -143 -639 -117.5 -662.5 c 128,-1,46
 -92 -686 -92 -686 -53 -686 c 2,47,-1
 170 -686 l 2,48,49
 203 -686 203 -686 221 -657 c 1,50,51
 246 -633 246 -633 258 -596 c 1,35,-1
EndSplineSet
LCarets2: 1 0
EndChar

StartChar: ka_rvocalicmatra.sub
Encoding: 129 -1 123
Width: 663
Flags: W
LayerCount: 2
Fore
SplineSet
1219 -563 m 2,0,1
 1194 -680 1194 -680 1106 -760 c 1,2,3
 1024 -842 1024 -842 922 -842 c 2,4,-1
 129 -838 l 2,5,6
 39 -838 39 -838 -14 -776 c 0,7,8
 -32 -758 -32 -758 -40.5 -731.5 c 128,-1,9
 -49 -705 -49 -705 -49 -674 c 0,10,11
 -49 -645 -49 -645 -47 -631 c 2,12,-1
 33 -256 l 1,13,-1
 342 -256 l 1,14,15
 268 -225 268 -225 215 -178 c 1,16,17
 176 -125 176 -125 184 -94 c 1,18,-1
 223 102 l 2,19,20
 241 192 241 192 403 295 c 1,21,-1
 180 295 l 1,22,-1
 213 463 l 1,23,-1
 608 463 l 1,24,-1
 655 686 l 1,25,-1
 874 686 l 1,26,-1
 827 463 l 1,27,-1
 1219 463 l 1,28,-1
 1186 295 l 1,29,-1
 889 295 l 1,30,31
 969 264 969 264 1006 217 c 1,32,33
 1035 172 1035 172 1034 133 c 0,34,35
 1034 115 1034 115 1032 106 c 2,36,-1
 1008 -16 l 1,37,38
 985 -114 985 -114 901 -184 c 128,-1,39
 817 -254 817 -254 717 -254 c 2,40,-1
 537 -254 l 1,41,-1
 504 -420 l 1,42,-1
 199 -420 l 1,43,-1
 162 -600 l 2,44,45
 154 -631 154 -631 178 -647 c 1,46,47
 201 -670 201 -670 238 -670 c 2,48,-1
 907 -670 l 2,49,50
 938 -670 938 -670 968.5 -627 c 128,-1,51
 999 -584 999 -584 1014 -516 c 2,52,-1
 1130 45 l 1,53,54
 1140 104 1140 104 1075 133 c 1,55,-1
 1243 272 l 1,56,57
 1302 245 1302 245 1339 184 c 1,58,59
 1355 137 1355 137 1356 94 c 0,60,61
 1356 69 1356 69 1354 57 c 2,62,-1
 1219 -563 l 2,0,1
813 18 m 2,63,-1
 831 113 l 2,64,65
 835 142 835 142 836 156 c 0,66,67
 836 185 836 185 817 223 c 1,68,69
 799 276 799 276 733 301 c 1,70,-1
 580 301 l 1,71,72
 521 270 521 270 475.5 219 c 128,-1,73
 430 168 430 168 422 123 c 2,74,-1
 391 -16 l 1,75,76
 389 -47 389 -47 407.5 -66.5 c 128,-1,77
 426 -86 426 -86 459 -86 c 2,78,-1
 739 -82 l 2,79,80
 762 -82 762 -82 786 -53 c 1,81,82
 805 -23 805 -23 813 18 c 2,63,-1
EndSplineSet
EndChar

StartChar: kha
Encoding: 130 3222 124
Width: 1914
Flags: W
LayerCount: 2
Fore
SplineSet
2011 217 m 2,0,1
 1993 127 1993 127 1934.5 61.5 c 128,-1,2
 1876 -4 1876 -4 1817 -4 c 2,3,-1
 1520 -4 l 2,4,5
 1440 -4 1440 -4 1368 66 c 1,6,-1
 1223 178 l 1,7,8
 1184 96 1184 96 1105 45 c 128,-1,9
 1026 -6 1026 -6 936 -6 c 2,10,-1
 479 -6 l 1,11,12
 432 -2 432 -2 401.5 7 c 128,-1,13
 371 16 371 16 342 41 c 0,14,15
 291 86 291 86 305 152 c 2,16,-1
 362 428 l 2,17,18
 378 504 378 504 444 555 c 128,-1,19
 510 606 510 606 584 606 c 2,20,-1
 987 606 l 2,21,22
 1087 606 1087 606 1112 549 c 1,23,-1
 1227 1081 l 2,24,25
 1231 1110 1231 1110 1231 1120 c 256,26,27
 1231 1130 1231 1130 1231 1145 c 1,28,29
 1227 1155 1227 1155 1227 1157 c 0,30,31
 1204 1188 1204 1188 1186 1188 c 2,32,-1
 932 1188 l 2,33,34
 922 1188 922 1188 899 1163 c 1,35,36
 883 1132 883 1132 874 1096 c 2,37,-1
 831 885 l 1,38,-1
 606 885 l 1,39,-1
 666 1180 l 1,40,41
 689 1270 689 1270 762 1323 c 1,42,43
 834 1382 834 1382 936 1382 c 2,44,-1
 1284 1382 l 2,45,46
 1380 1382 1380 1382 1432 1307 c 0,47,48
 1471 1250 1471 1250 1470 1182 c 0,49,50
 1470 1153 1470 1153 1462 1122 c 2,51,-1
 1311 403 l 1,52,-1
 1464 236 l 1,53,54
 1525 179 1525 179 1591 178 c 2,55,-1
 1720 178 l 2,56,57
 1751 178 1751 178 1774.5 211 c 128,-1,58
 1798 244 1798 244 1806 289 c 2,59,-1
 1980 1102 l 2,60,61
 1988 1139 1988 1139 1966 1161.5 c 128,-1,62
 1944 1184 1944 1184 1905 1184 c 2,63,-1
 1665 1184 l 1,64,-1
 1704 1378 l 1,65,-1
 2038 1378 l 2,66,67
 2134 1378 2134 1378 2179 1313 c 1,68,69
 2218 1270 2218 1270 2218 1202 c 0,70,71
 2218 1171 2218 1171 2216 1157 c 2,72,-1
 2011 217 l 2,0,1
1044 264 m 1,73,-1
 1061 336 l 1,74,75
 1014 404 1014 404 909 403 c 2,76,-1
 657 403 l 2,77,78
 626 403 626 403 599.5 392 c 128,-1,79
 573 381 573 381 569 367 c 2,80,-1
 541 236 l 2,81,82
 537 213 537 213 559 199 c 1,83,84
 569 181 569 181 600 180 c 2,85,-1
 938 180 l 2,86,87
 977 180 977 180 1009.5 206.5 c 128,-1,88
 1042 233 1042 233 1044 264 c 1,73,-1
EndSplineSet
LCarets2: 1 0
EndChar

StartChar: kha.base
Encoding: 131 -1 125
Width: 1581
Flags: W
LayerCount: 2
Fore
SplineSet
2017 217 m 2,0,1
 2007 166 2007 166 1988.5 129 c 128,-1,2
 1970 92 1970 92 1939 61 c 1,3,4
 1882 -5 1882 -5 1823 -4 c 1,5,-1
 1819 0 l 1,6,-1
 1522 0 l 2,7,8
 1446 0 1446 0 1372 72 c 1,9,-1
 1243 168 l 1,10,11
 1210 94 1210 94 1127 47 c 128,-1,12
 1044 0 1044 0 944 0 c 2,13,-1
 485 0 l 2,14,15
 395 0 395 0 345 45 c 128,-1,16
 295 90 295 90 309 156 c 2,17,-1
 367 432 l 2,18,19
 383 508 383 508 449.5 559 c 128,-1,20
 516 610 516 610 598 610 c 2,21,-1
 989 610 l 2,22,23
 1083 610 1083 610 1114 553 c 1,24,-1
 1233 1114 l 2,25,26
 1235 1124 1235 1124 1235 1143 c 0,27,28
 1235 1157 1235 1157 1223.5 1175.5 c 128,-1,29
 1212 1194 1212 1194 1182 1194 c 2,30,-1
 958 1194 l 2,31,32
 933 1194 933 1194 903 1169 c 1,33,34
 878 1138 878 1138 870 1102 c 2,35,-1
 827 891 l 1,36,-1
 604 891 l 1,37,-1
 664 1186 l 1,38,39
 687 1276 687 1276 760 1329 c 1,40,41
 832 1388 832 1388 932 1389 c 2,42,-1
 1284 1389 l 2,43,44
 1380 1389 1380 1389 1432 1313 c 1,45,46
 1469 1254 1469 1254 1468 1192 c 0,47,48
 1468 1163 1468 1163 1460 1130 c 2,49,-1
 1309 412 l 1,50,-1
 1470 272 l 1,51,52
 1546 188 1546 188 1591 188 c 2,53,-1
 1749 188 l 2,54,55
 1786 188 1786 188 1794 233 c 2,56,-1
 1948 961 l 2,57,58
 1952 979 1952 979 1952 1018 c 0,59,60
 1952 1084 1952 1084 1915 1122 c 1,61,62
 1858 1190 1858 1190 1763 1190 c 2,63,-1
 1663 1190 l 1,64,-1
 1702 1384 l 1,65,-1
 1929 1384 l 1,66,67
 2019 1374 2019 1374 2083.5 1309.5 c 128,-1,68
 2148 1245 2148 1245 2167 1157 c 0,69,70
 2177 1112 2177 1112 2178 1096.5 c 128,-1,71
 2179 1081 2179 1081 2179 1063 c 0,72,73
 2179 1018 2179 1018 2165 961 c 1,74,-1
 2017 217 l 2,0,1
1038 272 m 1,75,-1
 1049 326 l 1,76,77
 975 412 975 412 860 412 c 2,78,-1
 621 412 l 2,79,80
 605 412 605 412 595.5 406.5 c 128,-1,81
 586 401 586 401 584 401 c 0,82,83
 568 391 568 391 563 377 c 2,84,-1
 535 246 l 2,85,86
 531 223 531 223 553 209 c 1,87,88
 563 191 563 191 594 190 c 2,89,-1
 932 190 l 2,90,91
 969 190 969 190 1002.5 215.5 c 128,-1,92
 1036 241 1036 241 1038 272 c 1,75,-1
EndSplineSet
EndChar

StartChar: kha.imathra
Encoding: 132 -1 126
Width: 1914
Flags: W
LayerCount: 2
Fore
SplineSet
2017 217 m 2,0,1
 2007 166 2007 166 1988.5 129 c 128,-1,2
 1970 92 1970 92 1939 61 c 1,3,4
 1882 -5 1882 -5 1823 -4 c 1,5,-1
 1819 0 l 1,6,-1
 1522 0 l 2,7,8
 1446 0 1446 0 1372 72 c 1,9,-1
 1229 182 l 1,10,11
 1192 106 1192 106 1116 54 c 128,-1,12
 1040 2 1040 2 961 2 c 2,13,-1
 485 2 l 2,14,15
 395 2 395 2 345 47 c 128,-1,16
 295 92 295 92 309 158 c 2,17,-1
 367 434 l 2,18,19
 383 510 383 510 449.5 561 c 128,-1,20
 516 612 516 612 598 612 c 2,21,-1
 989 612 l 2,22,23
 1055 612 1055 612 1112 530 c 1,24,-1
 1229 1090 l 2,25,26
 1231 1100 1231 1100 1231 1122 c 0,27,28
 1231 1147 1231 1147 1221 1165 c 1,29,30
 1196 1196 1196 1196 1159 1196 c 2,31,-1
 963 1196 l 2,32,33
 938 1196 938 1196 907 1171 c 1,34,35
 882 1140 882 1140 874 1104 c 2,36,-1
 831 893 l 1,37,-1
 608 893 l 1,38,-1
 668 1188 l 1,39,40
 691 1278 691 1278 764 1331 c 1,41,42
 836 1390 836 1390 936 1391 c 2,43,-1
 1288 1391 l 2,44,45
 1384 1391 1384 1391 1436 1315 c 1,46,47
 1473 1256 1473 1256 1473 1194 c 0,48,49
 1473 1165 1473 1165 1464 1133 c 2,50,-1
 1313 414 l 1,51,-1
 1446 274 l 1,52,53
 1548 190 1548 190 1653 190 c 2,54,-1
 1724 190 l 2,55,56
 1755 190 1755 190 1776.5 211.5 c 128,-1,57
 1798 233 1798 233 1806 264 c 2,58,-1
 2023 1298 l 2,59,60
 2025 1312 2025 1312 2025 1335 c 256,61,62
 2025 1358 2025 1358 2018 1374.5 c 128,-1,63
 2011 1391 2011 1391 1978 1391 c 2,64,-1
 1907 1391 l 1,65,-1
 1868 1382 l 1,66,67
 1860 1378 1860 1378 1854.5 1371 c 128,-1,68
 1849 1364 1849 1364 1847 1356 c 2,69,-1
 1837 1311 l 1,70,71
 1833 1272 1833 1272 1847.5 1250.5 c 128,-1,72
 1862 1229 1862 1229 1878 1229 c 2,73,-1
 1960 1229 l 1,74,-1
 1917 1032 l 1,75,-1
 1737 1032 l 2,76,77
 1665 1032 1665 1032 1622 1092 c 0,78,79
 1591 1137 1591 1137 1591 1188 c 0,80,81
 1591 1198 1591 1198 1595 1227 c 2,82,-1
 1634 1421 l 2,83,84
 1650 1495 1650 1495 1724 1542 c 128,-1,85
 1798 1589 1798 1589 1880 1589 c 2,86,-1
 2103 1589 l 2,87,88
 2189 1589 2189 1589 2236 1522 c 1,89,90
 2267 1469 2267 1469 2267 1409 c 0,91,92
 2267 1393 2267 1393 2263 1360 c 1,93,-1
 2017 217 l 2,0,1
1051 281 m 2,94,-1
 1061 324 l 1,95,96
 967 420 967 420 887 420 c 2,97,-1
 649 420 l 2,98,99
 635 420 635 420 623.5 418 c 128,-1,100
 612 416 612 416 593.5 407.5 c 128,-1,101
 575 399 575 399 571 385 c 2,102,-1
 549 270 l 1,103,104
 541 245 541 245 551 221 c 1,105,106
 553 198 553 198 575 199 c 2,107,-1
 938 199 l 2,108,109
 975 199 975 199 1009 224.5 c 128,-1,110
 1043 250 1043 250 1051 281 c 2,94,-1
EndSplineSet
LCarets2: 1 0
EndChar

StartChar: kha.sub
Encoding: 133 -1 127
Width: 317
Flags: W
AnchorPoint: "Sub" -614 514 mark 0
AnchorPoint: "Sub" 414 -858 basemark 0
LayerCount: 2
Fore
SplineSet
524 -485 m 2,0,1
 499 -604 499 -604 398 -691 c 128,-1,2
 297 -778 297 -778 182 -778 c 2,3,-1
 45 -778 l 2,4,5
 14 -778 14 -778 -102 -735 c 1,6,7
 -254 -835 -254 -835 -330 -836 c 2,8,-1
 -635 -836 l 1,9,-1
 -625 -836 l 2,10,11
 -697 -836 -697 -836 -748 -791 c 1,12,13
 -781 -758 -781 -758 -780 -713 c 0,14,15
 -780 -695 -780 -695 -778 -684 c 2,16,-1
 -750 -561 l 1,17,18
 -740 -493 -740 -493 -674 -438 c 128,-1,19
 -608 -383 -608 -383 -528 -383 c 2,20,-1
 -305 -383 l 2,21,22
 -272 -383 -272 -383 -260 -397 c 1,23,-1
 -143 -492 l 1,24,-1
 -111 -324 l 2,25,26
 -109 -316 -109 -316 -109 -306.5 c 128,-1,27
 -109 -297 -109 -297 -109 -295 c 0,28,29
 -109 -262 -109 -262 -119 -244 c 1,30,31
 -146 -207 -146 -207 -178 -207 c 2,32,-1
 -207 -207 l 1,33,-1
 -231 -317 l 1,34,-1
 -426 -317 l 1,35,-1
 -369 -51 l 1,36,-1
 -100 -51 l 2,37,38
 9 -51 9 -51 61 -131 c 0,39,40
 98 -184 98 -184 98 -256 c 0,41,42
 98 -287 98 -287 90 -326 c 2,43,-1
 33 -606 l 1,44,45
 72 -635 72 -635 100 -635 c 2,46,-1
 211 -635 l 2,47,48
 250 -635 250 -635 280.5 -594 c 128,-1,49
 311 -553 311 -553 326 -485 c 2,50,-1
 508 383 l 2,51,52
 516 426 516 426 485 455 c 1,53,54
 460 484 460 484 403 483 c 2,55,-1
 293 483 l 1,56,-1
 330 659 l 1,57,-1
 459 659 l 2,58,59
 588 659 588 659 662 586 c 1,60,61
 715 529 715 529 715 453 c 0,62,63
 715 420 715 420 711 403 c 2,64,-1
 524 -485 l 2,0,1
-240 -651 m 1,65,66
 -316 -565 -316 -565 -403 -565 c 2,67,-1
 -526 -565 l 2,68,69
 -569 -565 -569 -565 -578 -594 c 1,70,-1
 -592 -662 l 1,71,72
 -588 -678 -588 -678 -584 -678 c 0,73,74
 -570 -686 -570 -686 -559 -686 c 2,75,-1
 -334 -686 l 2,76,77
 -316 -686 -316 -686 -240 -651 c 1,65,66
EndSplineSet
LCarets2: 1 0
EndChar

StartChar: ga.base
Encoding: 135 -1 129
Width: 1126
Flags: W
LayerCount: 2
Fore
SplineSet
1516 0 m 1,0,-1
 1292 0 l 1,1,-1
 1503 997 l 2,2,3
 1505 1007 1505 1007 1505 1032 c 0,4,5
 1505 1071 1505 1071 1495 1096 c 0,6,7
 1470 1147 1470 1147 1423 1172.5 c 128,-1,8
 1376 1198 1376 1198 1315 1198 c 2,9,-1
 1104 1198 l 2,10,11
 1014 1198 1014 1198 937 1138.5 c 128,-1,12
 860 1079 860 1079 844 995 c 2,13,-1
 633 -2 l 1,14,-1
 408 -2 l 1,15,-1
 621 1006 l 2,16,17
 646 1121 646 1121 770 1200 c 1,18,-1
 659 1200 l 1,19,-1
 702 1395 l 1,20,-1
 1485 1395 l 1,21,22
 1622 1362 1622 1362 1696 1247 c 0,23,24
 1741 1173 1741 1173 1741 1073 c 0,25,26
 1741 1036 1741 1036 1733 997 c 2,27,-1
 1516 0 l 1,0,-1
EndSplineSet
EndChar

StartChar: ga.imathra
Encoding: 136 -1 130
Width: 1492
Flags: W
LayerCount: 2
Fore
SplineSet
1544 0 m 1,0,-1
 1321 0 l 1,1,-1
 1532 997 l 2,2,3
 1536 1020 1536 1020 1536 1059 c 0,4,5
 1536 1110 1536 1110 1513 1141 c 1,6,7
 1480 1200 1480 1200 1407 1200 c 2,8,-1
 1044 1200 l 2,9,10
 972 1200 972 1200 915 1143 c 1,11,12
 858 1092 858 1092 842 1006 c 2,13,-1
 627 -2 l 1,14,-1
 401 -2 l 1,15,-1
 612 995 l 1,16,17
 630 1093 630 1093 695 1174 c 128,-1,18
 760 1255 760 1255 842 1298 c 1,19,20
 776 1323 776 1323 737 1374 c 0,21,22
 714 1407 714 1407 715 1454 c 0,23,24
 715 1477 715 1477 717 1487 c 2,25,-1
 748 1626 l 1,26,27
 758 1694 758 1694 834 1753 c 1,28,29
 910 1804 910 1804 991 1804 c 2,30,-1
 1366 1804 l 2,31,32
 1518 1804 1518 1804 1627.5 1718 c 128,-1,33
 1737 1632 1737 1632 1780 1485 c 0,34,35
 1790 1452 1790 1452 1795 1407 c 128,-1,36
 1800 1362 1800 1362 1800 1317 c 0,37,38
 1800 1243 1800 1243 1784 1167 c 2,39,-1
 1544 0 l 1,0,-1
1589 1296 m 1,40,41
 1589 1439 1589 1439 1499 1526.5 c 128,-1,42
 1409 1614 1409 1614 1255 1614 c 2,43,-1
 1059 1614 l 2,44,45
 963 1614 963 1614 952 1561 c 2,46,-1
 938 1493 l 2,47,48
 936 1483 936 1483 936 1473.5 c 128,-1,49
 936 1464 936 1464 936 1462 c 0,50,51
 936 1439 936 1439 941 1421 c 128,-1,52
 946 1403 946 1403 969 1399 c 1,53,-1
 1444 1399 l 2,54,55
 1532 1398 1532 1398 1589 1296 c 1,40,41
EndSplineSet
LCarets2: 1 0
EndChar

StartChar: ga.sub
Encoding: 137 -1 131
Width: 194
Flags: W
AnchorPoint: "Sub" -442 -123 mark 0
AnchorPoint: "Sub" 213 -877 basemark 0
LayerCount: 2
Fore
SplineSet
219 -840 m 1,0,-1
 23 -840 l 1,1,-1
 117 -393 l 2,2,3
 125 -350 125 -350 102 -313 c 1,4,5
 71 -282 71 -282 29 -283 c 2,6,-1
 -137 -283 l 2,7,8
 -184 -283 -184 -283 -222 -313.5 c 128,-1,9
 -260 -344 -260 -344 -268 -391 c 2,10,-1
 -362 -838 l 1,11,-1
 -559 -838 l 1,12,-1
 -465 -391 l 2,13,14
 -440 -274 -440 -274 -347 -193.5 c 128,-1,15
 -254 -113 -254 -113 -143 -113 c 2,16,-1
 96 -113 l 2,17,18
 213 -113 213 -113 279 -184 c 1,19,20
 326 -231 326 -231 326 -307 c 0,21,22
 326 -325 326 -325 322 -358 c 1,23,-1
 219 -840 l 1,0,-1
EndSplineSet
LCarets2: 1 0
EndChar

StartChar: gha.base
Encoding: 139 -1 133
Width: 1986
Flags: W
LayerCount: 2
Fore
SplineSet
2656 1204 m 1,0,-1
 2011 1204 l 1,1,2
 2085 1147 2085 1147 2085 1042 c 0,3,4
 2085 1013 2085 1013 2083 999 c 1,5,6
 2140 841 2140 841 2230 842 c 1,7,8
 2275 846 2275 846 2306 869.5 c 128,-1,9
 2337 893 2337 893 2339 922 c 1,10,-1
 2382 1118 l 1,11,-1
 2605 1118 l 1,12,-1
 2572 950 l 2,13,14
 2556 874 2556 874 2511 801.5 c 128,-1,15
 2466 729 2466 729 2404.5 688 c 128,-1,16
 2343 647 2343 647 2286 647 c 2,17,-1
 2175 647 l 2,18,19
 2085 647 2085 647 2028 729 c 1,20,-1
 1933 283 l 1,21,22
 1902 164 1902 164 1821.5 84 c 128,-1,23
 1741 4 1741 4 1651 4 c 2,24,-1
 1317 4 l 2,25,26
 1241 4 1241 4 1196 57 c 0,27,28
 1167 90 1167 90 1153 125 c 128,-1,29
 1139 160 1139 160 1137 193 c 1,30,31
 1092 105 1092 105 1024 53 c 0,32,33
 993 28 993 28 957.5 14 c 128,-1,34
 922 0 922 0 893 0 c 2,35,-1
 541 0 l 2,36,37
 465 0 465 0 418 72 c 1,38,39
 393 123 393 123 393 182 c 0,40,41
 393 219 393 219 397 238 c 2,42,-1
 522 836 l 1,43,-1
 831 836 l 2,44,45
 940 836 940 836 993 764 c 1,46,47
 1036 713 1036 713 1036 639 c 0,48,49
 1036 621 1036 621 1032 588 c 1,50,-1
 1022 535 l 1,51,-1
 797 535 l 1,52,-1
 805 578 l 1,53,54
 807 607 807 607 799 629 c 1,55,56
 776 645 776 645 754 645 c 2,57,-1
 709 645 l 1,58,-1
 635 299 l 2,59,60
 633 289 633 289 633 270 c 0,61,62
 633 254 633 254 638 245 c 128,-1,63
 643 236 643 236 643 233 c 0,64,65
 657 202 657 202 686 203 c 2,66,-1
 909 203 l 2,67,68
 960 203 960 203 1010.5 265.5 c 128,-1,69
 1061 328 1061 328 1077 416 c 2,70,-1
 1108 563 l 1,71,-1
 1331 563 l 1,72,-1
 1300 416 l 2,73,74
 1298 402 1298 402 1298 377 c 0,75,76
 1298 359 1298 359 1303.5 335 c 128,-1,77
 1309 311 1309 311 1317 281 c 1,78,79
 1350 207 1350 207 1393 207 c 2,80,-1
 1616 207 l 2,81,82
 1649 207 1649 207 1686 236 c 1,83,84
 1711 265 1711 265 1718 309 c 2,85,-1
 1862 979 l 1,86,87
 1866 1012 1866 1012 1866 1026 c 0,88,89
 1866 1087 1866 1087 1819 1141 c 0,90,91
 1760 1209 1760 1209 1649 1208 c 2,92,-1
 598 1208 l 1,93,-1
 641 1403 l 1,94,-1
 2714 1403 l 1,95,-1
 2656 1204 l 1,0,-1
1391 846 m 1,96,-1
 1167 846 l 1,97,-1
 1214 1069 l 1,98,-1
 1438 1069 l 1,99,-1
 1391 846 l 1,96,-1
1149 -287 m 1,100,-1
 926 -287 l 1,101,-1
 985 -6 l 1,102,-1
 1208 -6 l 1,103,-1
 1149 -287 l 1,100,-1
EndSplineSet
EndChar

StartChar: gha.imathra
Encoding: 140 -1 134
Width: 2367
Flags: W
LayerCount: 2
Fore
SplineSet
1464 1233 m 1,0,1
 1448 1133 1448 1133 1374 1073 c 1,2,3
 1313 1012 1313 1012 1227 1012 c 2,4,-1
 864 1012 l 1,5,-1
 903 1206 l 1,6,-1
 1180 1206 l 1,7,8
 1209 1210 1209 1210 1230 1233.5 c 128,-1,9
 1251 1257 1251 1257 1253 1286 c 1,10,-1
 1305 1526 l 2,11,12
 1309 1555 1309 1555 1309 1565 c 256,13,14
 1309 1575 1309 1575 1305 1591 c 1,15,16
 1291 1616 1291 1616 1268 1616 c 2,17,-1
 1167 1616 l 2,18,19
 1128 1616 1128 1616 1124 1579 c 1,20,-1
 1110 1522 l 2,21,22
 1108 1508 1108 1508 1116 1493.5 c 128,-1,23
 1124 1479 1124 1479 1141 1479 c 2,24,-1
 1241 1479 l 1,25,-1
 1198 1282 l 1,26,-1
 1016 1282 l 2,27,28
 950 1282 950 1282 903 1333 c 0,29,30
 889 1351 889 1351 880.5 1374 c 128,-1,31
 872 1397 872 1397 872 1419 c 0,32,33
 872 1437 872 1437 874 1448 c 2,34,-1
 907 1602 l 1,35,36
 923 1692 923 1692 999 1745 c 1,37,38
 1067 1804 1067 1804 1155 1804 c 2,39,-1
 1421 1804 l 2,40,41
 1489 1804 1489 1804 1528 1747 c 0,42,43
 1551 1714 1551 1714 1550 1661 c 0,44,45
 1550 1628 1550 1628 1546 1612 c 2,46,-1
 1464 1233 l 1,0,1
2632 942 m 2,47,48
 2618 885 2618 885 2595 842 c 128,-1,49
 2572 799 2572 799 2535 762 c 0,50,51
 2467 690 2467 690 2382 690 c 2,52,-1
 2187 690 l 2,53,54
 2099 690 2099 690 2040 772 c 1,55,-1
 1935 270 l 1,56,57
 1904 151 1904 151 1823.5 71.5 c 128,-1,58
 1743 -8 1743 -8 1653 -8 c 2,59,-1
 1323 -8 l 2,60,61
 1247 -8 1247 -8 1200 39 c 1,62,63
 1141 90 1141 90 1141 158 c 1,64,65
 1100 84 1100 84 1033.5 37 c 128,-1,66
 967 -10 967 -10 895 -10 c 2,67,-1
 549 -10 l 2,68,69
 467 -10 467 -10 424 51 c 0,70,71
 393 98 393 98 393 152 c 0,72,73
 393 168 393 168 397 197 c 2,74,-1
 528 823 l 1,75,-1
 838 823 l 2,76,77
 942 823 942 823 999 758 c 1,78,79
 1044 713 1044 713 1044 647 c 0,80,81
 1044 616 1044 616 1042 602 c 2,82,-1
 1026 520 l 1,83,-1
 801 520 l 1,84,-1
 815 592 l 2,85,86
 819 610 819 610 801 618 c 1,87,88
 787 628 787 628 754 629 c 2,89,-1
 715 629 l 1,90,-1
 641 283 l 2,91,92
 639 273 639 273 639 254 c 0,93,94
 639 231 639 231 651.5 207.5 c 128,-1,95
 664 184 664 184 686 184 c 2,96,-1
 909 184 l 2,97,98
 966 184 966 184 1016.5 246.5 c 128,-1,99
 1067 309 1067 309 1083 397 c 2,100,-1
 1114 545 l 1,101,-1
 1337 545 l 1,102,-1
 1307 397 l 1,103,104
 1305 374 1305 374 1305 365 c 0,105,106
 1305 320 1305 320 1331.5 253 c 128,-1,107
 1358 186 1358 186 1401 186 c 2,108,-1
 1624 186 l 2,109,110
 1655 186 1655 186 1687.5 216 c 128,-1,111
 1720 246 1720 246 1729 289 c 2,112,-1
 1896 1081 l 2,113,114
 1904 1124 1904 1124 1882 1161 c 1,115,116
 1851 1192 1851 1192 1808 1192 c 2,117,-1
 1651 1192 l 1,118,-1
 1694 1386 l 1,119,-1
 1919 1386 l 2,120,121
 1993 1386 1993 1386 2044 1343 c 1,122,123
 2091 1296 2091 1296 2109 1223 c 0,124,125
 2117 1190 2117 1190 2118 1147 c 256,126,127
 2118 1104 2118 1104 2109 1057 c 1,128,129
 2181 891 2181 891 2249 891 c 2,130,-1
 2349 891 l 2,131,132
 2372 891 2372 891 2396 922 c 0,133,134
 2404 932 2404 932 2411.5 950.5 c 128,-1,135
 2419 969 2419 969 2427 999 c 2,136,-1
 2509 1389 l 1,137,-1
 2732 1389 l 1,138,-1
 2632 942 l 2,47,48
1137 -344 m 1,139,-1
 913 -344 l 1,140,-1
 973 -68 l 1,141,-1
 1196 -68 l 1,142,-1
 1137 -344 l 1,139,-1
EndSplineSet
LCarets2: 1 0
EndChar

StartChar: gha.sub
Encoding: 141 -1 135
Width: 409
Flags: W
AnchorPoint: "Sub" -707 236 mark 0
AnchorPoint: "Sub" 520 -829 basemark 0
LayerCount: 2
Fore
SplineSet
803 -66 m 1,0,1
 772 -218 772 -218 612 -305 c 1,2,-1
 575 -485 l 2,3,4
 557 -573 557 -573 490.5 -640 c 128,-1,5
 424 -707 424 -707 336 -707 c 2,6,-1
 39 -707 l 2,7,8
 -35 -707 -35 -707 -80 -662 c 1,9,10
 -135 -615 -135 -615 -154 -541 c 1,11,12
 -222 -627 -222 -627 -304.5 -677 c 128,-1,13
 -387 -727 -387 -727 -457 -727 c 2,14,-1
 -748 -727 l 2,15,16
 -834 -727 -834 -727 -870 -674 c 1,17,18
 -907 -629 -907 -629 -907 -582 c 0,19,20
 -907 -574 -907 -574 -903 -545 c 2,21,-1
 -864 -350 l 1,22,23
 -841 -260 -841 -260 -775 -202.5 c 128,-1,24
 -709 -145 -709 -145 -627 -145 c 2,25,-1
 -346 -145 l 1,26,-1
 -383 -311 l 1,27,-1
 -594 -311 l 2,28,29
 -623 -311 -623 -311 -646.5 -333.5 c 128,-1,30
 -670 -356 -670 -356 -674 -381 c 2,31,-1
 -698 -506 l 2,32,33
 -700 -524 -700 -524 -690 -543 c 1,34,35
 -672 -557 -672 -557 -655 -557 c 2,36,-1
 -403 -557 l 2,37,38
 -360 -557 -360 -557 -293 -489 c 1,39,40
 -232 -421 -232 -421 -219 -365 c 2,41,-1
 -203 -283 l 1,42,-1
 -6 -283 l 1,43,-1
 -25 -379 l 2,44,45
 -33 -430 -33 -430 4 -481 c 1,46,47
 47 -532 47 -532 94 -532 c 2,48,-1
 328 -532 l 2,49,50
 373 -532 373 -532 387 -475 c 1,51,-1
 410 -365 l 1,52,-1
 186 -365 l 1,53,-1
 223 -197 l 1,54,-1
 475 -197 l 2,55,56
 520 -197 520 -197 563 -158 c 1,57,58
 577 -142 577 -142 593.5 -116 c 128,-1,59
 610 -90 610 -90 614 -61 c 2,60,-1
 645 96 l 1,61,62
 653 123 653 123 563 188 c 1,63,-1
 707 328 l 1,64,65
 865 211 865 211 842 106 c 2,66,-1
 803 -66 l 1,0,1
-129 -844 m 1,67,-1
 -326 -844 l 1,68,-1
 -301 -715 l 1,69,-1
 -176 -592 l 1,70,-1
 -104 -715 l 1,71,-1
 -129 -844 l 1,67,-1
EndSplineSet
LCarets2: 1 0
EndChar

StartChar: nga
Encoding: 142 3225 136
Width: 1785
Flags: W
LayerCount: 2
Fore
SplineSet
1896 223 m 2,0,1
 1878 133 1878 133 1807.5 67.5 c 128,-1,2
 1737 2 1737 2 1655 2 c 2,3,-1
 1264 2 l 2,4,5
 1198 2 1198 2 1151 46 c 128,-1,6
 1104 90 1104 90 1104 158 c 1,7,8
 1071 86 1071 86 1016 43 c 128,-1,9
 961 0 961 0 907 0 c 2,10,-1
 532 0 l 2,11,12
 444 0 444 0 393 57 c 0,13,14
 356 96 356 96 356 156 c 0,15,16
 356 179 356 179 358 193 c 2,17,-1
 424 489 l 1,18,-1
 905 836 l 1,19,20
 948 859 948 859 971 946 c 1,21,-1
 1004 1114 l 1,22,23
 1012 1145 1012 1145 983 1174 c 1,24,25
 954 1197 954 1197 909 1196 c 2,26,-1
 799 1196 l 1,27,-1
 782 1114 l 2,28,29
 774 1083 774 1083 788 1055 c 1,30,31
 796 1030 796 1030 819 1030 c 2,32,-1
 848 1030 l 1,33,-1
 805 836 l 1,34,-1
 666 836 l 2,35,36
 600 836 600 836 563 897 c 0,37,38
 538 936 538 936 539 989 c 0,39,40
 539 1003 539 1003 543 1042 c 1,41,-1
 616 1389 l 1,42,-1
 997 1389 l 2,43,44
 1091 1389 1091 1389 1154 1349 c 128,-1,45
 1217 1309 1217 1309 1217 1241 c 1,46,47
 1377 1388 1377 1388 1528 1389 c 2,48,-1
 1946 1389 l 2,49,50
 2014 1389 2014 1389 2039 1348 c 128,-1,51
 2064 1307 2064 1307 2064 1268 c 0,52,53
 2064 1260 2064 1260 2060 1227 c 1,54,-1
 2028 1059 l 1,55,-1
 1804 1059 l 1,56,-1
 1819 1130 l 1,57,58
 1827 1159 1827 1159 1812 1182 c 1,59,60
 1796 1198 1796 1198 1765 1198 c 2,61,-1
 1554 1198 l 2,62,63
 1454 1198 1454 1198 1351.5 1146 c 128,-1,64
 1249 1094 1249 1094 1182 1006 c 1,65,-1
 1157 883 l 1,66,67
 1126 746 1126 746 1032 686 c 1,68,-1
 631 381 l 1,69,-1
 608 270 l 1,70,71
 600 245 600 245 623.5 222 c 128,-1,72
 647 199 647 199 690 199 c 2,73,-1
 866 199 l 2,74,75
 925 199 925 199 970.5 229.5 c 128,-1,76
 1016 260 1016 260 1030 307 c 1,77,-1
 1053 418 l 1,78,-1
 1276 418 l 1,79,-1
 1253 307 l 2,80,81
 1245 264 1245 264 1278 230.5 c 128,-1,82
 1311 197 1311 197 1368 197 c 2,83,-1
 1620 197 l 2,84,85
 1649 197 1649 197 1664 212 c 128,-1,86
 1679 227 1679 227 1688 252 c 1,87,-1
 1747 532 l 1,88,89
 1751 565 1751 565 1751 573 c 0,90,91
 1751 612 1751 612 1726 612 c 2,92,-1
 1569 612 l 1,93,-1
 1608 807 l 1,94,-1
 1831 807 l 2,95,96
 1892 807 1892 807 1923 778 c 1,97,98
 1962 749 1962 749 1978 707 c 1,99,100
 1986 674 1986 674 1987 643 c 0,101,102
 1987 633 1987 633 1982 604 c 1,103,-1
 1896 223 l 2,0,1
1296 532 m 1,104,-1
 1073 532 l 1,105,-1
 1118 756 l 1,106,-1
 1341 756 l 1,107,-1
 1296 532 l 1,104,-1
EndSplineSet
LCarets2: 1 0
EndChar

StartChar: nga.sub
Encoding: 143 -1 137
Width: 380
Flags: W
AnchorPoint: "Sub" -795 -66 mark 0
AnchorPoint: "Sub" 582 -836 basemark 0
LayerCount: 2
Fore
SplineSet
33 -446 m 1,0,-1
 -162 -446 l 1,1,-1
 -133 -307 l 1,2,-1
 61 -307 l 1,3,-1
 33 -446 l 1,0,-1
618 -655 m 1,4,5
 602 -729 602 -729 545 -782 c 1,6,7
 477 -835 477 -835 416 -836 c 2,8,-1
 25 -836 l 2,9,10
 -26 -836 -26 -836 -63 -803 c 128,-1,11
 -100 -770 -100 -770 -115 -709 c 1,12,13
 -138 -760 -138 -760 -197 -799 c 0,14,15
 -215 -813 -215 -813 -248 -824.5 c 128,-1,16
 -281 -836 -281 -836 -305 -836 c 2,17,-1
 -723 -836 l 2,18,19
 -797 -836 -797 -836 -850 -788 c 1,20,21
 -887 -749 -887 -749 -887 -696 c 0,22,23
 -887 -680 -887 -680 -885 -672 c 2,24,-1
 -852 -518 l 1,25,26
 -842 -457 -842 -457 -779.5 -413 c 128,-1,27
 -717 -369 -717 -369 -655 -369 c 2,28,-1
 -516 -369 l 2,29,30
 -487 -369 -487 -369 -485 -340 c 1,31,-1
 -475 -287 l 1,32,33
 -473 -258 -473 -258 -496 -258 c 2,34,-1
 -776 -258 l 1,35,-1
 -739 -92 l 1,36,-1
 -377 -92 l 2,37,38
 -326 -92 -326 -92 -301 -115 c 1,39,40
 -272 -148 -272 -148 -274 -184 c 1,41,42
 -208 -90 -208 -90 -98 -90 c 2,43,-1
 236 -90 l 2,44,45
 322 -90 322 -90 365 -135 c 0,46,47
 398 -168 398 -168 397 -215 c 0,48,49
 397 -223 397 -223 393 -252 c 2,50,-1
 371 -362 l 1,51,-1
 176 -362 l 1,52,-1
 193 -281 l 2,53,54
 201 -236 201 -236 129 -236 c 2,55,-1
 -94 -236 l 2,56,57
 -147 -236 -147 -236 -203.5 -273.5 c 128,-1,58
 -260 -311 -260 -311 -299 -377 c 1,59,-1
 -313 -444 l 2,60,61
 -321 -477 -321 -477 -364.5 -502.5 c 128,-1,62
 -408 -528 -408 -528 -461 -528 c 2,63,-1
 -614 -528 l 2,64,65
 -665 -528 -665 -528 -670 -565 c 1,66,-1
 -684 -623 l 1,67,68
 -684 -641 -684 -641 -674 -649 c 1,69,70
 -666 -663 -666 -663 -643 -664 c 2,71,-1
 -324 -664 l 2,72,73
 -277 -664 -277 -664 -237 -638 c 128,-1,74
 -197 -612 -197 -612 -195 -582 c 1,75,-1
 -176 -500 l 1,76,-1
 18 -500 l 1,77,-1
 4 -565 l 2,78,79
 2 -575 2 -575 2 -592 c 0,80,81
 2 -617 2 -617 22.5 -645.5 c 128,-1,82
 43 -674 43 -674 88 -674 c 2,83,-1
 356 -674 l 2,84,85
 387 -674 387 -674 409.5 -654.5 c 128,-1,86
 432 -635 432 -635 434 -610 c 1,87,-1
 465 -471 l 1,88,-1
 651 -471 l 1,89,-1
 618 -655 l 1,4,5
EndSplineSet
LCarets2: 1 0
EndChar

StartChar: ca.base
Encoding: 145 -1 139
Width: 1595
Flags: W
LayerCount: 2
Fore
SplineSet
2140 698 m 1,0,-1
 1917 698 l 1,1,2
 1954 661 1954 661 1954 614 c 0,3,4
 1954 598 1954 598 1952 590 c 2,5,-1
 1876 227 l 2,6,7
 1858 133 1858 133 1782 69.5 c 128,-1,8
 1706 6 1706 6 1618 6 c 2,9,-1
 1217 6 l 2,10,11
 1164 6 1164 6 1124 37 c 1,12,13
 1087 74 1087 74 1087 117 c 1,14,15
 1071 74 1071 74 1016 40 c 128,-1,16
 961 6 961 6 895 6 c 2,17,-1
 549 6 l 2,18,19
 461 6 461 6 408 78 c 0,20,21
 371 125 371 125 371 197 c 0,22,23
 371 211 371 211 375 244 c 1,24,-1
 440 549 l 1,25,-1
 918 829 l 1,26,-1
 977 1110 l 2,27,28
 985 1155 985 1155 962.5 1178.5 c 128,-1,29
 940 1202 940 1202 899 1202 c 2,30,-1
 805 1202 l 1,31,-1
 786 1108 l 1,32,33
 786 1071 786 1071 798.5 1052.5 c 128,-1,34
 811 1034 811 1034 836 1034 c 2,35,-1
 881 1034 l 1,36,-1
 838 840 l 1,37,-1
 680 840 l 2,38,39
 612 840 612 840 569 897 c 1,40,41
 538 942 538 942 539 993 c 0,42,43
 539 1003 539 1003 543 1032 c 2,44,-1
 618 1395 l 1,45,-1
 1051 1395 l 2,46,47
 1135 1395 1135 1395 1182 1327 c 0,48,49
 1213 1284 1213 1284 1212 1219 c 0,50,51
 1212 1182 1212 1182 1208 1163 c 2,52,-1
 1114 717 l 1,53,-1
 633 420 l 1,54,-1
 610 309 l 2,55,56
 608 295 608 295 608 272 c 256,57,58
 608 249 608 249 620.5 224 c 128,-1,59
 633 199 633 199 670 199 c 2,60,-1
 901 199 l 2,61,62
 944 199 944 199 978 224.5 c 128,-1,63
 1012 250 1012 250 1020 283 c 2,64,-1
 1049 420 l 1,65,-1
 1272 420 l 1,66,-1
 1249 309 l 2,67,68
 1247 299 1247 299 1247 283 c 0,69,70
 1247 256 1247 256 1261.5 229.5 c 128,-1,71
 1276 203 1276 203 1307 203 c 2,72,-1
 1540 203 l 2,73,74
 1585 203 1585 203 1619 226.5 c 128,-1,75
 1653 250 1653 250 1661 287 c 2,76,-1
 1722 582 l 2,77,78
 1724 592 1724 592 1724 614 c 0,79,80
 1724 643 1724 643 1708 666 c 0,81,82
 1683 703 1683 703 1638 702 c 2,83,-1
 1362 702 l 1,84,-1
 1405 899 l 1,85,-1
 1749 899 l 1,86,-1
 1810 1204 l 1,87,-1
 1466 1204 l 1,88,-1
 1509 1399 l 1,89,-1
 1954 1399 l 1,90,-1
 2034 1204 l 1,91,-1
 1972 899 l 1,92,-1
 2183 899 l 1,93,-1
 2140 698 l 1,0,-1
EndSplineSet
EndChar

StartChar: ca.imathra
Encoding: 146 -1 140
Width: 1943
Flags: W
LayerCount: 2
Fore
SplineSet
2152 698 m 1,0,-1
 1929 698 l 1,1,2
 1966 665 1966 665 1966 621 c 0,3,4
 1966 603 1966 603 1964 592 c 2,5,-1
 1888 229 l 1,6,7
 1865 135 1865 135 1807 71.5 c 128,-1,8
 1749 8 1749 8 1683 8 c 2,9,-1
 1225 8 l 2,10,11
 1172 8 1172 8 1139 41 c 1,12,13
 1100 72 1100 72 1100 117 c 1,14,15
 1084 72 1084 72 1026.5 39 c 128,-1,16
 969 6 969 6 907 6 c 2,17,-1
 532 6 l 2,18,19
 452 6 452 6 411.5 56 c 128,-1,20
 371 106 371 106 371 154 c 0,21,22
 371 164 371 164 375 186 c 2,23,-1
 457 578 l 1,24,-1
 930 829 l 1,25,-1
 989 1110 l 2,26,27
 997 1155 997 1155 974.5 1178.5 c 128,-1,28
 952 1202 952 1202 909 1202 c 2,29,-1
 813 1202 l 1,30,-1
 795 1108 l 1,31,32
 791 1075 791 1075 806 1055.5 c 128,-1,33
 821 1036 821 1036 850 1036 c 2,34,-1
 922 1036 l 1,35,-1
 879 842 l 1,36,-1
 696 842 l 2,37,38
 628 842 628 842 585.5 894 c 128,-1,39
 543 946 543 946 553 1008 c 1,40,-1
 635 1397 l 1,41,-1
 1083 1397 l 2,42,43
 1165 1397 1165 1397 1208 1335 c 1,44,45
 1233 1288 1233 1288 1233 1231 c 0,46,47
 1233 1198 1233 1198 1229 1180 c 2,48,-1
 1133 721 l 1,49,-1
 655 453 l 1,50,-1
 623 287 l 1,51,52
 619 250 619 250 635 227 c 1,53,54
 660 202 660 202 688 203 c 2,55,-1
 893 203 l 2,56,57
 946 203 946 203 989 226.5 c 128,-1,58
 1032 250 1032 250 1040 287 c 2,59,-1
 1079 481 l 1,60,-1
 1303 481 l 1,61,-1
 1270 313 l 2,62,63
 1268 303 1268 303 1268 287 c 0,64,65
 1268 260 1268 260 1282 233.5 c 128,-1,66
 1296 207 1296 207 1327 207 c 2,67,-1
 1589 207 l 2,68,69
 1620 207 1620 207 1646.5 230.5 c 128,-1,70
 1673 254 1673 254 1681 291 c 2,71,-1
 1743 586 l 2,72,73
 1751 631 1751 631 1731.5 663.5 c 128,-1,74
 1712 696 1712 696 1667 707 c 1,75,-1
 1378 707 l 1,76,-1
 1421 903 l 1,77,-1
 1726 903 l 1,78,79
 1820 946 1820 946 1835 1014 c 2,80,-1
 1911 1376 l 2,81,82
 1913 1390 1913 1390 1897.5 1395.5 c 128,-1,83
 1882 1401 1882 1401 1843 1401 c 2,84,-1
 1763 1401 l 2,85,86
 1747 1401 1747 1401 1737 1339 c 1,87,-1
 1726 1292 l 2,88,89
 1724 1274 1724 1274 1743.5 1257.5 c 128,-1,90
 1763 1241 1763 1241 1780 1241 c 2,91,-1
 1853 1241 l 1,92,-1
 1815 1044 l 1,93,-1
 1618 1044 l 2,94,95
 1552 1044 1552 1044 1513 1096 c 0,96,97
 1484 1133 1484 1133 1485 1178 c 0,98,99
 1485 1201 1485 1201 1487 1210 c 2,100,-1
 1534 1434 l 1,101,102
 1544 1506 1544 1506 1603.5 1554 c 128,-1,103
 1663 1602 1663 1602 1731 1602 c 2,104,-1
 1993 1602 l 2,105,106
 2075 1602 2075 1602 2111 1540 c 1,107,108
 2140 1503 2140 1503 2140 1450 c 0,109,110
 2140 1436 2140 1436 2136 1397 c 1,111,-1
 2062 1044 l 2,112,113
 2044 958 2044 958 1978 907 c 1,114,-1
 2202 907 l 1,115,-1
 2152 698 l 1,0,-1
EndSplineSet
LCarets2: 1 0
EndChar

StartChar: ca.sub
Encoding: 147 -1 141
Width: 380
Flags: W
AnchorPoint: "Sub" -666 387 mark 0
AnchorPoint: "Sub" 489 -823 basemark 0
LayerCount: 2
Fore
SplineSet
696 -305 m 1,0,-1
 539 -305 l 1,1,2
 584 -338 584 -338 584 -399 c 0,3,4
 584 -413 584 -413 580 -446 c 1,5,-1
 541 -643 l 2,6,7
 525 -719 525 -719 466.5 -771 c 128,-1,8
 408 -823 408 -823 336 -823 c 2,9,-1
 55 -823 l 2,10,11
 -25 -823 -25 -823 -82 -780 c 1,12,13
 -133 -733 -133 -733 -133 -668 c 1,14,15
 -176 -742 -176 -742 -244 -784 c 1,16,17
 -318 -823 -318 -823 -389 -823 c 2,18,-1
 -713 -823 l 1,19,20
 -793 -831 -793 -831 -850 -788 c 128,-1,21
 -907 -745 -907 -745 -893 -688 c 2,22,-1
 -854 -506 l 1,23,24
 -844 -445 -844 -445 -791 -399 c 1,25,26
 -758 -376 -758 -376 -734.5 -367 c 128,-1,27
 -711 -358 -711 -358 -678 -358 c 2,28,-1
 -539 -358 l 2,29,30
 -521 -358 -521 -358 -491 -344 c 128,-1,31
 -461 -330 -461 -330 -461 -313 c 1,32,-1
 -453 -276 l 2,33,34
 -451 -266 -451 -266 -458 -258 c 128,-1,35
 -465 -250 -465 -250 -502 -250 c 2,36,-1
 -782 -250 l 1,37,-1
 -745 -84 l 1,38,-1
 -401 -84 l 2,39,40
 -325 -84 -325 -84 -279 -117 c 1,41,42
 -234 -160 -234 -160 -244 -205 c 2,43,-1
 -281 -387 l 1,44,45
 -297 -453 -297 -453 -358.5 -503 c 128,-1,46
 -420 -553 -420 -553 -502 -553 c 2,47,-1
 -625 -553 l 2,48,49
 -643 -553 -643 -553 -662.5 -564 c 128,-1,50
 -682 -575 -682 -575 -682 -592 c 1,51,-1
 -690 -621 l 1,52,53
 -690 -639 -690 -639 -680 -647 c 1,54,55
 -672 -661 -672 -661 -649 -662 c 2,56,-1
 -395 -662 l 2,57,58
 -334 -662 -334 -662 -279.5 -617.5 c 128,-1,59
 -225 -573 -225 -573 -211 -508 c 2,60,-1
 -193 -412 l 1,61,-1
 2 -412 l 1,62,-1
 -23 -526 l 2,63,64
 -31 -571 -31 -571 2 -616 c 1,65,66
 41 -661 41 -661 74 -662 c 2,67,-1
 254 -662 l 2,68,69
 283 -662 283 -662 311 -639 c 1,70,71
 340 -610 340 -610 342 -580 c 1,72,-1
 379 -412 l 2,73,74
 387 -367 387 -367 365 -336 c 1,75,76
 334 -303 334 -303 291 -303 c 2,77,-1
 39 -303 l 1,78,-1
 76 -137 l 1,79,-1
 244 -137 l 1,80,81
 406 -4 406 -4 428 100 c 2,82,-1
 508 475 l 1,83,-1
 709 475 l 1,84,-1
 629 100 l 2,85,86
 600 -25 600 -25 467 -137 c 1,87,-1
 719 -137 l 1,88,-1
 696 -305 l 1,0,-1
EndSplineSet
LCarets2: 1 0
EndChar

StartChar: cha.base
Encoding: 149 -1 143
Width: 1421
Flags: W
LayerCount: 2
Fore
SplineSet
1866 240 m 2,0,1
 1843 136 1843 136 1763 74 c 1,2,3
 1689 2 1689 2 1593 2 c 2,4,-1
 1313 2 l 2,5,6
 1247 2 1247 2 1197 43 c 128,-1,7
 1147 84 1147 84 1147 141 c 1,8,9
 1116 80 1116 80 1056.5 42 c 128,-1,10
 997 4 997 4 940 4 c 2,11,-1
 635 4 l 2,12,13
 541 4 541 4 481 70 c 0,14,15
 440 117 440 117 440 176 c 0,16,17
 440 190 440 190 444 223 c 1,18,-1
 635 1135 l 2,19,20
 651 1209 651 1209 698 1270 c 128,-1,21
 745 1331 745 1331 805 1360 c 1,22,23
 866 1397 866 1397 928 1397 c 2,24,-1
 1327 1397 l 1,25,-1
 1251 1034 l 2,26,27
 1233 944 1233 944 1167.5 878.5 c 128,-1,28
 1102 813 1102 813 1028 813 c 2,29,-1
 870 813 l 1,30,-1
 913 1010 l 1,31,-1
 971 1010 l 1,32,33
 994 1012 994 1012 1016 1030 c 1,34,35
 1032 1055 1032 1055 1040 1087 c 2,36,-1
 1063 1198 l 1,37,-1
 969 1198 l 2,38,39
 932 1198 932 1198 893 1174 c 1,40,41
 860 1143 860 1143 852 1106 c 2,42,-1
 680 295 l 2,43,44
 672 252 672 252 690.5 222.5 c 128,-1,45
 709 193 709 193 739 193 c 2,46,-1
 926 193 l 2,47,48
 955 193 955 193 976 200 c 128,-1,49
 997 207 997 207 1022 225 c 0,50,51
 1065 258 1065 258 1073 301 c 2,52,-1
 1102 440 l 1,53,-1
 1325 440 l 1,54,-1
 1296 301 l 2,55,56
 1288 258 1288 258 1311.5 224 c 128,-1,57
 1335 190 1335 190 1380 190 c 2,58,-1
 1546 190 l 2,59,60
 1589 190 1589 190 1618 223 c 128,-1,61
 1647 256 1647 256 1657 301 c 2,62,-1
 1823 1085 l 2,63,64
 1839 1165 1839 1165 1735 1190 c 1,65,-1
 1454 1190 l 1,66,-1
 1493 1384 l 1,67,-1
 1798 1384 l 1,68,69
 1927 1368 1927 1368 2001 1282 c 1,70,71
 2048 1210 2048 1210 2048 1139 c 0,72,73
 2048 1102 2048 1102 2044 1085 c 2,74,-1
 1866 240 l 2,0,1
1153 -342 m 1,75,-1
 930 -342 l 1,76,-1
 989 -66 l 1,77,-1
 1212 -66 l 1,78,-1
 1153 -342 l 1,75,-1
EndSplineSet
EndChar

StartChar: cha.imathra
Encoding: 150 -1 144
Width: 1757
Flags: W
LayerCount: 2
Fore
SplineSet
1866 240 m 2,0,1
 1843 136 1843 136 1772 74 c 1,2,3
 1704 2 1704 2 1618 2 c 2,4,-1
 1313 2 l 2,5,6
 1247 2 1247 2 1197 43 c 128,-1,7
 1147 84 1147 84 1147 141 c 1,8,9
 1114 80 1114 80 1059 42 c 128,-1,10
 1004 4 1004 4 942 4 c 2,11,-1
 637 4 l 2,12,13
 543 4 543 4 483 70 c 0,14,15
 442 117 442 117 442 176 c 0,16,17
 442 190 442 190 446 223 c 1,18,-1
 637 1135 l 2,19,20
 653 1209 653 1209 700.5 1270 c 128,-1,21
 748 1331 748 1331 807 1360 c 1,22,23
 868 1397 868 1397 930 1397 c 2,24,-1
 1329 1397 l 1,25,-1
 1253 1034 l 2,26,27
 1235 944 1235 944 1169.5 878.5 c 128,-1,28
 1104 813 1104 813 1030 813 c 2,29,-1
 872 813 l 1,30,-1
 915 1010 l 1,31,-1
 973 1010 l 1,32,33
 998 1014 998 1014 1014 1024 c 1,34,35
 1032 1042 1032 1042 1034 1059 c 2,36,-1
 1063 1198 l 1,37,-1
 969 1198 l 2,38,39
 932 1198 932 1198 893 1174 c 1,40,41
 860 1143 860 1143 852 1106 c 2,42,-1
 680 295 l 2,43,44
 672 248 672 248 694 225 c 1,45,46
 717 194 717 194 756 195 c 2,47,-1
 924 195 l 2,48,49
 953 195 953 195 974 202 c 128,-1,50
 995 209 995 209 1020 227 c 0,51,52
 1063 260 1063 260 1071 303 c 2,53,-1
 1100 442 l 1,54,-1
 1323 442 l 1,55,-1
 1294 303 l 2,56,57
 1286 260 1286 260 1309.5 226.5 c 128,-1,58
 1333 193 1333 193 1378 193 c 2,59,-1
 1544 193 l 2,60,61
 1587 193 1587 193 1616 225.5 c 128,-1,62
 1645 258 1645 258 1655 303 c 2,63,-1
 1872 1331 l 2,64,65
 1874 1339 1874 1339 1874 1348.5 c 128,-1,66
 1874 1358 1874 1358 1874 1360 c 0,67,68
 1874 1378 1874 1378 1866 1393 c 0,69,70
 1850 1418 1850 1418 1825 1417 c 2,71,-1
 1743 1417 l 2,72,73
 1710 1417 1710 1417 1686.5 1394.5 c 128,-1,74
 1663 1372 1663 1372 1661 1354 c 2,75,-1
 1645 1268 l 1,76,77
 1637 1243 1637 1243 1653 1219 c 1,78,79
 1671 1201 1671 1201 1696 1200 c 2,80,-1
 1761 1200 l 1,81,-1
 1722 1006 l 1,82,-1
 1585 1006 l 2,83,84
 1491 1006 1491 1006 1440 1065 c 0,85,86
 1401 1108 1401 1108 1401 1169 c 0,87,88
 1401 1185 1401 1185 1405 1214 c 2,89,-1
 1444 1409 l 2,90,91
 1452 1452 1452 1452 1473.5 1488 c 128,-1,92
 1495 1524 1495 1524 1532 1554 c 0,93,94
 1606 1613 1606 1613 1681 1614 c 2,95,-1
 1950 1614 l 2,96,97
 2001 1614 2001 1614 2048 1581 c 1,98,99
 2066 1563 2066 1563 2080.5 1541.5 c 128,-1,100
 2095 1520 2095 1520 2100 1486 c 128,-1,101
 2105 1452 2105 1452 2105 1434 c 0,102,103
 2105 1401 2105 1401 2097 1362 c 2,104,-1
 1866 240 l 2,0,1
1149 -334 m 1,105,-1
 926 -334 l 1,106,-1
 985 -57 l 1,107,-1
 1208 -57 l 1,108,-1
 1149 -334 l 1,105,-1
EndSplineSet
LCarets2: 1 0
EndChar

